<!--
animNumber Copyright 2026- k1LoW, https://github.com/k1LoW/animNumber
Glyph outlines derived from Noto Sans (https://github.com/notofonts/latin-greek-cyrillic)
Copyright 2022 The Noto Project Authors, licensed under the SIL Open Font License v1.1.
You can redistribute and/or modify these files under the terms of the GNU
Lesser General Public License as published by the Free Software Foundation,
either version 3 of the license, or (at your option) any later version. You
should have received a copy of this license (the file "licenses/LGPL.txt") along with
these files; if not, see https://www.gnu.org/licenses/.
-->
<svg id="z48" class="acjk" viewBox="0 0 1024 1024" xmlns="http://www.w3.org/2000/svg">
<style>
<![CDATA[
@keyframes zk {
	to {
		stroke-dashoffset:0;
	}
}
svg.acjk path[clip-path] {
	--t:0.8s;
	animation:zk var(--t) linear forwards var(--d);
	stroke-dasharray:3337;
	stroke-dashoffset:3339;
	stroke-width:128;
	stroke-linecap:round;
	fill:none;
	stroke:#000;
}
svg.acjk path[id] {fill:#ccc;}
]]>
</style>
<path id="z48d1" d="M705 430Q705 523 686 591Q666 658 624 694Q581 730 511 730Q412 730 365 650Q319 571 319 430Q319 335 338 268Q357 201 399 166Q442 130 511 130Q609 130 657 209Q705 288 705 430ZM390 430Q390 550 418 609Q445 669 511 669Q576 669 605 610Q633 550 633 430Q633 310 605 251Q576 191 511 191Q445 191 418 251Q390 310 390 430Z"/>
<defs>
	<clipPath id="z48c1"><use href="#z48d1"/></clipPath>
</defs>
<path style="--d:1s;" pathLength="3333" clip-path="url(#z48c1)" d="M511 160L580 180L640 240L670 330L670 430L670 530L640 620L580 680L511 700L440 680L380 620L350 530L350 430L350 330L380 240L440 180L511 160"/>
</svg>