<!--
animNumber Copyright 2026- k1LoW, https://github.com/k1LoW/animNumber
Glyph outlines derived from Arphic PL KaitiM GB font.
You can redistribute and/or modify this file under the terms of the Arphic Public License
as published by Arphic Technology Co., Ltd.
You should have received a copy of this license along with this file.
If not, see https://ftp.gnu.org/non-gnu/chinese-fonts-truetype/LICENSE.
-->
<svg id="z48" class="acjk" viewBox="0 0 1024 1024" xmlns="http://www.w3.org/2000/svg">
<style>
<![CDATA[
@keyframes zk {
	to {
		stroke-dashoffset:0;
	}
}
svg.acjk path[clip-path] {
	--t:0.8s;
	animation:zk var(--t) linear forwards var(--d);
	stroke-dasharray:3337;
	stroke-dashoffset:3339;
	stroke-width:128;
	stroke-linecap:round;
	fill:none;
	stroke:#000;
}
svg.acjk path[id] {fill:#ccc;}
]]>
</style>
<path id="z48d1" d="M357 306Q306 400 306 527Q306 662 364 746Q422 831 509 834Q600 830 664 732Q719 648 719 517Q719 387 667 290Q616 199 517 197L517 196Q516 196 516 197Q515 196 511 197Q415 197 357 306ZM426 290Q457 226 512 225Q563 225 597 292Q643 386 643 517Q643 659 601 744Q571 802 509 806Q454 802 420 746Q383 682 382 527Q382 380 426 290Z"/>
<defs>
	<clipPath id="z48c1"><use href="#z48d1"/></clipPath>
</defs>
<path style="--d:1s;" pathLength="3333" clip-path="url(#z48c1)" d="M580 220L512 200L450 220L400 280L370 370L360 500L370 630L400 700L450 760L512 800L570 760L620 700L660 600L670 500L660 370L620 280L580 220"/>
</svg>