<!--
animNumber 2026 Copyright k1LoW, https://github.com/k1LoW/animNumber
Derived from:
    Klee One - https://github.com/fontworks-fonts/Klee
    Copyright 2020 The Klee Project Authors
You can redistribute and/or modify this file under the terms of the SIL Open Font License, Version 1.1
as published by SIL International.
You should have received a copy of this license along with this file.
If not, see https://openfontlicense.org/.
-->
<svg id="z48" class="acjk" viewBox="0 0 1024 1024" xmlns="http://www.w3.org/2000/svg">
<style>
<![CDATA[
@keyframes zk {
	to {
		stroke-dashoffset:0;
	}
}
svg.acjk path[clip-path] {
	--t:0.8s;
	animation:zk var(--t) linear forwards var(--d);
	stroke-dasharray:3337;
	stroke-dashoffset:3339;
	stroke-width:128;
	stroke-linecap:round;
	stroke-linejoin:round;
	fill:none;
	stroke:#000;
}
svg.acjk path[id] {fill:#ccc;}
]]>
</style>
<path id="z48d1a" d="M526 888C521 888 517 888 512 888C470 888 435 879 406 860C378 841 355 816 337 784C319 752 307 714 299 671C290 628 286 583 286 536C286 492 290 452 298 413C305 375 314 341 325 312C335 282 346 259 357 241C368 224 377 216 385 216C390 216 394 217 397 219C401 221 403 225 405 228C407 233 403 240 404 239C394 262 370 377 365 393C364 394 364 396 364 397C352 436 346 481 346 533C346 572 349 609 354 645C359 682 367 714 379 743C392 771 408 793 428 810C446 824 468 832 493 835C519 837 544 887 526 888Z"/>
<path id="z48d1b" d="M408 225C424 206 442 191 460 179C481 167 502 161 525 161C573 161 612 177 644 207C675 239 699 281 714 334C730 388 738 450 738 518C738 567 733 613 724 658C714 702 700 741 681 776C663 811 639 838 611 858C586 876 558 886 526 888C523 874 514 855 493 835C498 835 503 836 508 836C546 836 577 821 603 791C628 762 647 723 659 673C672 625 678 571 678 512C678 474 675 438 668 403C663 367 654 336 641 307C630 278 614 256 593 239C574 223 549 214 520 214C505 214 487 221 466 236C447 249 427 269 408 297C391 323 376 355 365 393C353 400 353 359 353 346C353 309 363 291 408 225Z"/>
<defs>
	<clipPath id="z48c1a"><use href="#z48d1a"/></clipPath>
	<clipPath id="z48c1b"><use href="#z48d1b"/></clipPath>
</defs>
<path style="--d:1s;" pathLength="3333" clip-path="url(#z48c1a)" d="M398 220L357 279L333 373L321 514L345 644L392 750L463 832L510 861L592 832L639 761L674 667L686 514L674 373L639 256L592 185L512 161L439 173L398 220L386 308"/>
<path style="--d:1s;" pathLength="3333" clip-path="url(#z48c1b)" d="M -267 861L510 861L592 832L639 761L674 667L686 514L674 373L639 256L592 185L512 161L439 173L410 226L386 308"/>
</svg>