<!--
animNumber 2026 Copyright k1LoW, https://github.com/k1LoW/animNumber
Derived from:
    Klee One - https://github.com/fontworks-fonts/Klee
    Copyright 2020 The Klee Project Authors
You can redistribute and/or modify this file under the terms of the SIL Open Font License, Version 1.1
as published by SIL International.
You should have received a copy of this license along with this file.
If not, see https://openfontlicense.org/.
-->
<svg id="z48" class="acjk" viewBox="0 0 1024 1024" xmlns="http://www.w3.org/2000/svg">
<style>
<![CDATA[
@keyframes zk {
	to {
		stroke-dashoffset:0;
	}
}
svg.acjk path[clip-path] {
	--t:0.8s;
	animation:zk var(--t) linear forwards var(--d);
	stroke-dasharray:3337;
	stroke-dashoffset:3339;
	stroke-width:128;
	stroke-linecap:round;
	stroke-linejoin:round;
	fill:none;
	stroke:#000;
}
svg.acjk path[id] {fill:#ccc;}
]]>
</style>
<path id="z48d1a" d="M523.67,837.604C519.841,837.868 515.951,838 512,838C476.667,838 446.667,830 422,814C398,798 378.333,776.333 363,749C348.333,721.667 337.667,689.667 331,653C323.667,617 320,578.667 320,538C320,501.333 323.333,466.667 330,434C336,401.333 343.667,372.667 353,348C361.667,322.667 370.667,302.667 380,288C389.333,273.333 397.333,266 404,266C408,266 411.333,267 414,269C417.333,271 419.667,273.667 421,277C422.649,281.123 419.256,286.856 420,286C411.897,305.338 390.923,403.642 386.883,417.035C386.586,418.019 386.292,419.007 386,420C376,453.333 371,492 371,536C371,568.667 373.333,600.333 378,631C382,662.333 389,690 399,714C409.667,738 423.667,757 441,771C456.06,783.271 474.386,790.408 495.978,792.413C517.73,794.432 539.263,836.528 523.67,837.604Z"/>
<path id="z48d1b" d="M423.224,274.406C437.247,258.265 452.173,245.129 468,235C485.333,225 503.667,220 523,220C563.667,220 597.333,233 624,259C650.667,285.667 670.667,321.667 684,367C697.333,413 704,465 704,523C704,564.333 700,604 692,642C684,679.333 672,712.667 656,742C640,772 620,795.333 596,812C574.963,827.193 550.853,835.728 523.67,837.604C521.132,825.424 514.118,809.641 495.978,792.413C500.194,792.804 504.535,793 509,793C541,793 567.667,780.333 589,755C610.333,730.333 626.333,697 637,655C647.667,613.667 653,568 653,518C653,486 650.333,455 645,425C640.333,395 632.667,368 622,344C612,319.333 598.333,300 581,286C564.333,272 543.667,265 519,265C505.667,265 490.333,271 473,283C456.333,294.333 440,311.667 424,335C409.114,357.005 396.742,384.35 386.883,417.035C376.963,422.399 376.882,388.001 376.769,377.132C376.438,345.259 385.12,329.744 423.224,274.406Z"/>
<defs>
	<clipPath id="z48c1a"><use href="#z48d1a"/></clipPath>
	<clipPath id="z48c1b"><use href="#z48d1b"/></clipPath>
</defs>
<path style="--d:1s;" pathLength="3333" clip-path="url(#z48c1a)" d="M415 270L380 320L360 400L350 520L370 630L410 720L470 790L510 815L580 790L620 730L650 650L660 520L650 400L620 300L580 240L512 220L450 230L415 270L405 345"/>
<path style="--d:1s;" pathLength="3333" clip-path="url(#z48c1b)" d="M -150 815L510 815L580 790L620 730L650 650L660 520L650 400L620 300L580 240L512 220L450 230L425 275L405 345"/>
</svg>