<!--
animNumber 2026 Copyright k1LoW, https://github.com/k1LoW/animNumber
Derived from:
    Klee One - https://github.com/fontworks-fonts/Klee
    Copyright 2020 The Klee Project Authors
You can redistribute and/or modify this file under the terms of the SIL Open Font License, Version 1.1
as published by SIL International.
You should have received a copy of this license along with this file.
If not, see https://openfontlicense.org/.
-->
<svg id="z49" class="acjk" viewBox="0 0 1024 1024" xmlns="http://www.w3.org/2000/svg">
<style>
<![CDATA[
@keyframes zk {
	to {
		stroke-dashoffset:0;
	}
}
svg.acjk path[clip-path] {
	--t:0.8s;
	animation:zk var(--t) linear forwards var(--d);
	stroke-dasharray:3337;
	stroke-dashoffset:3339;
	stroke-width:128;
	stroke-linecap:round;
	stroke-linejoin:round;
	fill:none;
	stroke:#000;
}
svg.acjk path[id] {fill:#ccc;}
]]>
</style>
<path id="z49d1" d="M485 256L485 767C485 773 485 783 484 796L484 830C483 841 483 850 483 856C483 864 488 871 499 876C510 880 520 883 530 883C540 883 546 879 546 873C546 864 546 852 545 838C545 824 545 810 544 796L544 272C544 257 545 236 545 224C545 206 546 205 546 197C546 187 545 184 537 176C528 167 521 166 513 164C508 163 484 157 479 163C474 168 486 185 485 256Z"/>
<defs>
	<clipPath id="z49c1"><use href="#z49d1"/></clipPath>
</defs>
<path style="--d:1s;" pathLength="3333" clip-path="url(#z49c1)" d="M514 173L514 867"/>
</svg>