<!--
animNumber Copyright 2026- k1LoW, https://github.com/k1LoW/animNumber
Glyph outlines derived and modified from Klee One Regular by Fontworks Inc.
Klee One is licensed under the SIL Open Font License, Version 1.1.
See https://openfontlicense.org/ for the license text.
-->
<svg id="z49" class="acjk" viewBox="0 0 1024 1024" xmlns="http://www.w3.org/2000/svg">
<style>
<![CDATA[
@keyframes zk {
	to {
		stroke-dashoffset:0;
	}
}
svg.acjk path[clip-path] {
	--t:0.8s;
	animation:zk var(--t) linear forwards var(--d);
	stroke-dasharray:3337;
	stroke-dashoffset:3339;
	stroke-width:128;
	stroke-linecap:round;
	stroke-linejoin:round;
	fill:none;
	stroke:#000;
}
svg.acjk path[id] {fill:#ccc;}
]]>
</style>
<path id="z49d1" d="M547 300L547 735Q547 743 546 759Q546 774 546 788Q545 803 545 810Q545 821 559 827Q573 833 585 833Q599 833 599 825Q599 813 598 795Q598 777 597 759Q597 741 597 730L597 314Q597 295 600 280Q602 264 602 254Q602 242 591 232Q580 222 571 222Q565 222 557 229Q550 235 544 242Q538 249 534 252Q515 266 488 282Q461 298 431 310Q422 313 422 318Q422 325 434 331Q446 337 458 337Q462 337 464 336Q484 332 506 322Q528 311 547 300Z"/>
<defs>
	<clipPath id="z49c1"><use href="#z49d1"/></clipPath>
</defs>
<path style="--d:1s;" pathLength="3333" clip-path="url(#z49c1)" d="M440 320L500 270L570 230L570 820"/>
</svg>