<!--
animNumber 2026 Copyright k1LoW, https://github.com/k1LoW/animNumber
Derived from:
    Klee One - https://github.com/fontworks-fonts/Klee
    Copyright 2020 The Klee Project Authors
You can redistribute and/or modify this file under the terms of the SIL Open Font License, Version 1.1
as published by SIL International.
You should have received a copy of this license along with this file.
If not, see https://openfontlicense.org/.
-->
<svg id="z49" class="acjk" viewBox="0 0 1024 1024" xmlns="http://www.w3.org/2000/svg">
<style>
<![CDATA[
@keyframes zk {
	to {
		stroke-dashoffset:0;
	}
}
svg.acjk path[clip-path] {
	--t:0.8s;
	animation:zk var(--t) linear forwards var(--d);
	stroke-dasharray:3337;
	stroke-dashoffset:3339;
	stroke-width:128;
	stroke-linecap:round;
	stroke-linejoin:round;
	fill:none;
	stroke:#000;
}
svg.acjk path[id] {fill:#ccc;}
]]>
</style>
<path id="z49d1" d="M489 300L489 735C489 740 489 748 488 759L488 788C487 798 487 805 487 810C487 817 492 823 501 827C510 831 519 833 527 833C536 833 541 830 541 825C541 817 541 807 540 795C540 783 540 771 539 759L539 314C539 301 540 283 540 273C540 258 541 257 541 250C541 242 540 239 533 232C526 225 520 224 513 222C509 221 488 216 484 221C480 226 490 240 489 300Z"/>
<defs>
	<clipPath id="z49c1"><use href="#z49d1"/></clipPath>
</defs>
<path style="--d:1s;" pathLength="3333" clip-path="url(#z49c1)" d="M514 230L514 820"/>
</svg>