<!--
animNumber Copyright 2026- k1LoW, https://github.com/k1LoW/animNumber
Glyph outlines derived from Noto Sans (https://github.com/notofonts/latin-greek-cyrillic)
Copyright 2022 The Noto Project Authors, licensed under the SIL Open Font License v1.1.
You can redistribute and/or modify these files under the terms of the GNU
Lesser General Public License as published by the Free Software Foundation,
either version 3 of the license, or (at your option) any later version. You
should have received a copy of this license (the file "licenses/LGPL.txt") along with
these files; if not, see https://www.gnu.org/licenses/.
-->
<svg id="z50" class="acjk" viewBox="0 0 1024 1024" xmlns="http://www.w3.org/2000/svg">
<style>
<![CDATA[
@keyframes zk {
	to {
		stroke-dashoffset:0;
	}
}
svg.acjk path[clip-path] {
	--t:0.8s;
	animation:zk var(--t) linear forwards var(--d);
	stroke-dasharray:3337;
	stroke-dashoffset:3339;
	stroke-width:128;
	stroke-linecap:round;
	fill:none;
	stroke:#000;
}
svg.acjk path[id] {fill:#ccc;}
]]>
</style>
<path id="z50d1" d="M703 722L318 722L318 662L470 508Q514 464 545 430Q575 395 590 362Q606 329 606 290Q606 242 577 217Q549 192 503 192Q461 192 428 207Q396 221 363 248L324 199Q359 171 403 151Q448 131 503 131Q585 131 632 172Q679 213 679 286Q679 332 661 372Q642 412 608 450Q575 489 530 533L408 653L408 657L703 657Z"/>
<defs>
	<clipPath id="z50c1"><use href="#z50d1"/></clipPath>
</defs>
<path style="--d:1s;" pathLength="3333" clip-path="url(#z50c1)" d="M350 220L410 170L500 145L570 160L630 200L660 250L660 290L640 340L600 400L540 470L470 540L400 620L370 675L450 695L570 695L700 690"/>
</svg>