<!--
animNumber Copyright 2026- k1LoW, https://github.com/k1LoW/animNumber
Glyph outlines derived and modified from Klee One Regular by Fontworks Inc.
Klee One is licensed under the SIL Open Font License, Version 1.1.
See https://openfontlicense.org/ for the license text.
-->
<svg id="z50" class="acjk" viewBox="0 0 1024 1024" xmlns="http://www.w3.org/2000/svg">
<style>
<![CDATA[
@keyframes zk {
	to {
		stroke-dashoffset:0;
	}
}
svg.acjk path[clip-path] {
	--t:0.8s;
	animation:zk var(--t) linear forwards var(--d);
	stroke-dasharray:3337;
	stroke-dashoffset:3339;
	stroke-width:128;
	stroke-linecap:round;
	stroke-linejoin:round;
	fill:none;
	stroke:#000;
}
svg.acjk path[id] {fill:#ccc;}
]]>
</style>
<path id="z50d1" d="M342 826L346 826Q374 821 397 819Q420 817 444 817Q468 816 501 816Q536 816 571 816Q606 816 632 818Q655 819 675 821Q695 823 704 823Q716 823 716 810Q716 798 707 785Q698 772 688 772Q679 772 662 773Q644 773 632 773Q606 773 573 773Q540 772 508 772Q492 772 466 773Q440 773 415 774Q389 775 372 776Q402 727 451 674Q501 620 565 566Q628 514 665 464Q702 413 702 359Q702 297 658 258Q614 220 539 220Q488 220 451 235Q414 250 390 272Q366 294 355 313Q343 332 343 340Q343 353 354 364Q365 375 373 375Q381 375 386 369Q391 362 393 355Q408 317 447 291Q485 266 537 266Q591 266 620 293Q649 320 649 359Q649 401 617 444Q586 487 529 533Q460 590 407 649Q355 708 331 750Q327 756 322 762Q317 767 311 776Q308 781 308 787Q308 800 318 813Q328 826 342 826Z"/>
<defs>
	<clipPath id="z50c1"><use href="#z50d1"/></clipPath>
</defs>
<path style="--d:1s;" pathLength="3333" clip-path="url(#z50c1)" d="M360 320L410 270L470 240L540 240L600 270L640 320L650 370L630 430L570 500L490 580L410 670L350 750L320 800L430 810L560 810L700 800"/>
</svg>