<!--
animNumber 2026 Copyright k1LoW, https://github.com/k1LoW/animNumber
Derived from:
    Klee One - https://github.com/fontworks-fonts/Klee
    Copyright 2020 The Klee Project Authors
You can redistribute and/or modify this file under the terms of the SIL Open Font License, Version 1.1
as published by SIL International.
You should have received a copy of this license along with this file.
If not, see https://openfontlicense.org/.
-->
<svg id="z50" class="acjk" viewBox="0 0 1024 1024" xmlns="http://www.w3.org/2000/svg">
<style>
<![CDATA[
@keyframes zk {
	to {
		stroke-dashoffset:0;
	}
}
svg.acjk path[clip-path] {
	--t:0.8s;
	animation:zk var(--t) linear forwards var(--d);
	stroke-dasharray:3337;
	stroke-dashoffset:3339;
	stroke-width:128;
	stroke-linecap:round;
	stroke-linejoin:round;
	fill:none;
	stroke:#000;
}
svg.acjk path[id] {fill:#ccc;}
]]>
</style>
<path id="z50d1" d="M312 874L317 874Q350 868 377 866Q404 864 432 864Q460 863 499 863Q540 863 581 863Q623 863 653 865Q680 866 704 868Q727 871 738 871Q752 871 752 856Q752 841 741 826Q731 811 719 811Q708 811 688 812Q667 812 653 812Q623 812 584 812Q545 811 507 811Q488 811 458 812Q427 812 398 813Q367 814 347 816Q383 758 440 696Q499 632 574 568Q648 507 692 448Q736 388 736 325Q736 252 684 206Q632 161 544 161Q484 161 440 179Q397 197 368 223Q340 248 327 271Q313 293 313 303Q313 318 326 331Q339 344 348 344Q358 344 364 337Q370 328 372 320Q390 276 436 245Q480 216 541 216Q605 216 639 247Q673 279 673 325Q673 374 636 425Q599 476 532 530Q451 597 388 666Q327 736 299 785Q294 792 288 799Q283 805 276 816Q272 821 272 828Q272 844 284 859Q296 874 312 874Z"/>
<defs>
	<clipPath id="z50c1"><use href="#z50d1"/></clipPath>
</defs>
<path style="--d:1s;" pathLength="3333" clip-path="url(#z50c1)" d="M333 279L392 220L463 185L545 185L616 220L663 279L674 338L651 408L580 491L486 585L392 691L321 785L286 844L416 856L568 856L733 844"/>
</svg>