<!--
animNumber Copyright 2026- k1LoW, https://github.com/k1LoW/animNumber
Glyph outlines derived from Arphic PL KaitiM GB font.
You can redistribute and/or modify this file under the terms of the Arphic Public License
as published by Arphic Technology Co., Ltd.
You should have received a copy of this license along with this file.
If not, see https://ftp.gnu.org/non-gnu/chinese-fonts-truetype/LICENSE.
-->
<svg id="z50" class="acjk" viewBox="0 0 1024 1024" xmlns="http://www.w3.org/2000/svg">
<style>
<![CDATA[
@keyframes zk {
	to {
		stroke-dashoffset:0;
	}
}
svg.acjk path[clip-path] {
	--t:0.8s;
	animation:zk var(--t) linear forwards var(--d);
	stroke-dasharray:3337;
	stroke-dashoffset:3339;
	stroke-width:128;
	stroke-linecap:round;
	fill:none;
	stroke:#000;
}
svg.acjk path[id] {fill:#ccc;}
]]>
</style>
<path id="z50d1" d="M556 562Q722 456 723 369Q723 300 665 246Q611 197 516 197L516 196Q515 196 516 197Q512 196 511 197Q429 197 373 243Q309 294 309 355Q309 380 327 397Q343 412 368 412Q387 412 403 397Q416 382 417 370Q416 343 403 328Q393 315 395 299Q396 277 432 254Q463 232 516 225Q564 225 600 259Q646 304 647 369Q647 445 520 535Q393 629 350 692Q307 744 307 824L674 824L717 706L700 698Q648 776 543 779L360 779Q369 728 401 693Q443 638 556 562Z"/>
<defs>
	<clipPath id="z50c1"><use href="#z50d1"/></clipPath>
</defs>
<path style="--d:1s;" pathLength="3333" clip-path="url(#z50c1)" d="M360 320L400 260L470 220L520 210L580 230L630 270L660 340L640 430L560 520L470 590L400 660L360 730L340 790L440 800L560 800L700 780"/>
</svg>