<!--
animNumber Copyright 2026- k1LoW, https://github.com/k1LoW/animNumber
Glyph outlines derived and modified from Klee One Regular by Fontworks Inc.
Klee One is licensed under the SIL Open Font License, Version 1.1.
See https://openfontlicense.org/ for the license text.
-->
<svg id="z51" class="acjk" viewBox="0 0 1024 1024" xmlns="http://www.w3.org/2000/svg">
<style>
<![CDATA[
@keyframes zk {
	to {
		stroke-dashoffset:0;
	}
}
svg.acjk path[clip-path] {
	--t:0.8s;
	animation:zk var(--t) linear forwards var(--d);
	stroke-dasharray:3337;
	stroke-dashoffset:3339;
	stroke-width:128;
	stroke-linecap:round;
	fill:none;
	stroke:#000;
}
svg.acjk path[id] {fill:#ccc;}
]]>
</style>
<path id="z51d1" d="M564 492L554 492Q611 478 648 441Q686 404 686 350Q686 288 642 254Q599 220 527 220Q487 220 453 231Q419 242 394 257Q369 273 355 289Q341 305 341 314Q341 315 344 323Q347 332 353 340Q358 347 367 347Q373 347 378 342Q383 336 385 334Q418 297 453 280Q488 264 529 264Q579 264 608 288Q637 313 637 356Q637 387 612 414Q587 442 542 461Q497 480 438 486Q429 487 429 498Q429 507 437 518Q445 530 456 530Q459 530 461 529Q463 529 481 526Q499 522 527 522Q586 522 625 555Q663 587 663 640Q663 679 645 714Q626 748 588 770Q549 793 490 793Q440 793 406 773Q373 753 345 719Q341 714 335 714Q326 714 318 726Q311 739 311 753Q311 764 316 770Q351 803 393 820Q435 838 490 838Q567 838 617 810Q666 783 690 738Q713 692 713 639Q713 594 693 561Q672 528 638 510Q604 492 564 492Z"/>
<defs>
	<clipPath id="z51c1"><use href="#z51d1"/></clipPath>
</defs>
<path style="--d:1s;" pathLength="3333" clip-path="url(#z51c1)" d="M360 300L420 250L500 230L560 240L620 280L650 340L640 420L580 480L510 495L435 505L510 515L570 520L620 550L650 610L650 680L620 750L560 790L490 810L420 800L370 760L330 720"/>
</svg>