<!--
animNumber 2026 Copyright k1LoW, https://github.com/k1LoW/animNumber
Derived from:
    Klee One - https://github.com/fontworks-fonts/Klee
    Copyright 2020 The Klee Project Authors
You can redistribute and/or modify this file under the terms of the SIL Open Font License, Version 1.1
as published by SIL International.
You should have received a copy of this license along with this file.
If not, see https://openfontlicense.org/.
-->
<svg id="z51" class="acjk" viewBox="0 0 1024 1024" xmlns="http://www.w3.org/2000/svg">
<style>
<![CDATA[
@keyframes zk {
	to {
		stroke-dashoffset:0;
	}
}
svg.acjk path[clip-path] {
	--t:0.8s;
	animation:zk var(--t) linear forwards var(--d);
	stroke-dasharray:3337;
	stroke-dashoffset:3339;
	stroke-width:128;
	stroke-linecap:round;
	stroke-linejoin:round;
	fill:none;
	stroke:#000;
}
svg.acjk path[id] {fill:#ccc;}
]]>
</style>
<path id="z51d1a" d="M568 480C532 489 479 491 464 496C447 501 445 523 426 515C425 514 425 513 424 512C417 503 414 496 414 488C414 480 418 475 425 474C471 470 512 460 547 445C583 430 610 412 630 390C649 368 659 346 659 321C659 288 648 261 625 241C602 223 571 213 532 213C500 213 470 219 443 232C415 245 388 267 363 296C361 297 358 300 354 305C350 309 346 311 341 311C334 311 329 308 325 303C320 296 317 290 314 283C312 276 311 273 311 272C311 265 316 255 327 243C338 230 354 217 373 205C393 193 416 183 443 174C469 166 498 161 530 161C586 161 631 175 665 201C699 228 717 266 717 314C717 357 702 392 672 421C644 449 610 468 568 480Z"/>
<path id="z51d1b" d="M442 472C446 473 450 474 459 474C473 474 473 477 488 478C529 480 540 481 561 481C560 482 563 481 561 481L573 481C605 481 634 488 660 503C687 517 708 537 725 563C741 588 748 619 748 654C748 696 739 735 721 771C703 806 674 834 636 856C596 877 547 888 486 888C443 888 405 881 372 867C339 854 309 834 281 808C277 804 276 797 276 788C276 777 278 767 284 757C290 747 297 743 304 743C308 743 312 745 316 748C337 775 361 796 387 812C414 828 447 836 486 836C532 836 571 827 601 808C631 791 654 769 668 743C683 715 690 686 690 656C690 614 675 581 645 556C614 530 576 517 530 517C508 517 490 518 476 521C461 524 454 525 452 525C450 526 448 526 446 526C437 526 430 521 424 512C417 503 414 496 414 488C414 480 418 475 425 474C431 474 436 473 442 472Z"/>
<defs>
	<clipPath id="z51c1a"><use href="#z51d1a"/></clipPath>
	<clipPath id="z51c1b"><use href="#z51d1b"/></clipPath>
</defs>
<path style="--d:1s;" pathLength="3333" clip-path="url(#z51c1a)" d="M357 244L416 197L521 197L604 220L663 256L674 326L674 408L639 456L580 479L474 479L557 503L639 538L698 597L710 679L686 761L627 832L521 856L416 844L345 797L310 761"/>
<path style="--d:1s;" pathLength="3333" clip-path="url(#z51c1b)" d="M474 -390L474 479L557 503L639 538L698 597L710 679L686 761L627 832L521 856L416 844L345 797L310 761L -286 761"/>
</svg>