<!--
animNumber 2026 Copyright k1LoW, https://github.com/k1LoW/animNumber
Derived from:
    Klee One - https://github.com/fontworks-fonts/Klee
    Copyright 2020 The Klee Project Authors
You can redistribute and/or modify this file under the terms of the SIL Open Font License, Version 1.1
as published by SIL International.
You should have received a copy of this license along with this file.
If not, see https://openfontlicense.org/.
-->
<svg id="z51" class="acjk" viewBox="0 0 1024 1024" xmlns="http://www.w3.org/2000/svg">
<style>
<![CDATA[
@keyframes zk {
	to {
		stroke-dashoffset:0;
	}
}
svg.acjk path[clip-path] {
	--t:0.8s;
	animation:zk var(--t) linear forwards var(--d);
	stroke-dasharray:3337;
	stroke-dashoffset:3339;
	stroke-width:128;
	stroke-linecap:round;
	stroke-linejoin:round;
	fill:none;
	stroke:#000;
}
svg.acjk path[id] {fill:#ccc;}
]]>
</style>
<path id="z51d1a" d="M559.891,490.477C529.007,498.866 484.347,500.499 471.314,504.11C456.348,508.258 455.08,527.084 438.965,520.709C438.295,519.864 437.641,518.961 437,518C431.667,510.667 429,504 429,498C429,490.667 432,486.667 438,486C477.333,482 512,473.667 542,461C572,448.333 595.333,432.667 612,414C628.667,396 637,376.667 637,356C637,327.333 627.333,304.667 608,288C588.667,272 562.333,264 529,264C501.667,264 476.333,269.333 453,280C429.667,291.333 407,309.333 385,334C383.667,335.333 381.333,338 378,342C374.667,345.333 371,347 367,347C361,347 356.333,344.667 353,340C349,334.667 346,329 344,323C342,317.667 341,314.667 341,314C341,308 345.667,299.667 355,289C364.333,278.333 377.333,267.667 394,257C410.667,247 430.333,238.333 453,231C475.667,223.667 500.333,220 527,220C575,220 613.333,231.333 642,254C671.333,276.667 686,308.667 686,350C686,386 673.333,416.333 648,441C624.62,464.38 595.25,480.873 559.891,490.477Z"/>
<path id="z51d1b" d="M452.208,484.34C455.739,484.819 459.481,485.278 466.613,485.375C479.216,485.545 478.818,488.362 491.329,489.092C526.184,491.127 535.876,491.323 554,492C552.663,492.352 555.354,491.667 554,492L564,492C590.667,492 615.333,498 638,510C660.667,522 679,539 693,561C706.333,583 713,609 713,639C713,674.333 705.333,707.333 690,738C674,768 649.667,792 617,810C583.667,828.667 541.333,838 490,838C453.333,838 421,832 393,820C365,808.667 339.333,792 316,770C312.667,766 311,760.333 311,753C311,743.667 313.333,734.667 318,726C323.333,718 329,714 335,714C339,714 342.333,715.667 345,719C363.667,741.667 384,759.667 406,773C428.667,786.333 456.667,793 490,793C529.333,793 562,785.333 588,770C613.333,755.333 632.333,736.667 645,714C657,690.667 663,666 663,640C663,604.667 650.333,576.333 625,555C599,533 566.333,522 527,522C508.333,522 493,523.333 481,526C469,528 462.333,529 461,529C459.667,529.667 458,530 456,530C448.667,530 442.333,526 437,518C431.667,510.667 429,504 429,498C429,490.667 432,486.667 438,486C442.806,485.511 447.542,484.958 452.208,484.34Z"/>
<defs>
	<clipPath id="z51c1a"><use href="#z51d1a"/></clipPath>
	<clipPath id="z51c1b"><use href="#z51d1b"/></clipPath>
</defs>
<path style="--d:1s;" pathLength="3333" clip-path="url(#z51c1a)" d="M380 290L430 250L520 250L590 270L640 300L650 360L650 430L620 470L570 490L480 490L480 1100L340 730"/>
<path style="--d:1s;" pathLength="3333" clip-path="url(#z51c1b)" d="M480 -249L480 490L550 510L620 540L670 590L680 660L660 730L610 790L520 810L430 800L370 760L340 730"/>
</svg>