<!--
animNumber Copyright 2026- k1LoW, https://github.com/k1LoW/animNumber
Glyph outlines derived from Arphic PL KaitiM GB font.
You can redistribute and/or modify this file under the terms of the Arphic Public License
as published by Arphic Technology Co., Ltd.
You should have received a copy of this license along with this file.
If not, see https://ftp.gnu.org/non-gnu/chinese-fonts-truetype/LICENSE.
-->
<svg id="z51" class="acjk" viewBox="0 0 1024 1024" xmlns="http://www.w3.org/2000/svg">
<style>
<![CDATA[
@keyframes zk {
	to {
		stroke-dashoffset:0;
	}
}
svg.acjk path[clip-path] {
	--t:0.8s;
	animation:zk var(--t) linear forwards var(--d);
	stroke-dasharray:3337;
	stroke-dashoffset:3339;
	stroke-width:128;
	stroke-linecap:round;
	fill:none;
	stroke:#000;
}
svg.acjk path[id] {fill:#ccc;}
]]>
</style>
<path id="z51d1" d="M716 666Q716 555 616 520Q595 513 576 508Q588 501 604 493Q695 447 696 354Q696 288 642 238Q599 198 516 197L516 196Q515 196 516 197Q512 196 511 197Q438 197 389 240Q331 286 330 348Q330 372 346 389Q362 405 381 405Q403 405 417 389Q430 373 431 348Q428 329 415 312Q405 296 430 264Q460 233 515 225Q554 225 585 255Q619 288 620 354Q620 424 579 464Q546 495 526 500Q508 499 499 494Q484 487 471 487Q443 487 442 514Q442 542 471 543Q481 543 495 535Q507 528 521 528Q567 528 603 559Q640 595 640 666Q640 741 604 771Q561 804 519 806Q464 797 428 774Q388 746 391 729Q392 716 400 706Q407 697 409 685Q409 660 394 645Q379 630 362 630Q340 630 324 645Q308 661 308 685Q308 740 362 785Q422 831 519 834Q598 833 655 792Q716 743 716 666Z"/>
<defs>
	<clipPath id="z51c1"><use href="#z51d1"/></clipPath>
</defs>
<path style="--d:1s;" pathLength="3333" clip-path="url(#z51c1)" d="M360 300L420 240L500 210L560 230L620 270L660 340L630 430L570 470L520 500L490 510L540 520L610 550L660 610L660 670L630 740L570 790L510 810L440 800L380 760L330 700"/>
</svg>