<!--
animNumber Copyright 2026- k1LoW, https://github.com/k1LoW/animNumber
Glyph outlines derived from Noto Sans (https://github.com/notofonts/latin-greek-cyrillic)
Copyright 2022 The Noto Project Authors, licensed under the SIL Open Font License v1.1.
You can redistribute and/or modify these files under the terms of the GNU
Lesser General Public License as published by the Free Software Foundation,
either version 3 of the license, or (at your option) any later version. You
should have received a copy of this license (the file "licenses/LGPL.txt") along with
these files; if not, see https://www.gnu.org/licenses/.
-->
<svg id="z51" class="acjk" viewBox="0 0 1024 1024" xmlns="http://www.w3.org/2000/svg">
<style>
<![CDATA[
@keyframes zk {
	to {
		stroke-dashoffset:0;
	}
}
svg.acjk path[clip-path] {
	--t:0.8s;
	animation:zk var(--t) linear forwards var(--d);
	stroke-dasharray:3337;
	stroke-dashoffset:3339;
	stroke-width:128;
	stroke-linecap:round;
	fill:none;
	stroke:#000;
}
svg.acjk path[id] {fill:#ccc;}
]]>
</style>
<path id="z51d1" d="M681 275Q681 334 648 369Q616 403 560 415L560 418Q630 426 665 462Q699 498 699 556Q699 607 675 646Q652 686 602 708Q553 730 475 730Q430 730 390 723Q351 716 315 698L315 631Q352 649 394 659Q437 670 476 670Q554 670 589 639Q624 608 624 554Q624 500 581 476Q538 452 461 452L404 452L404 390L461 390Q533 390 570 360Q608 330 608 280Q608 238 579 214Q550 191 501 191Q454 191 421 205Q387 219 354 240L319 191Q350 167 396 149Q442 131 501 131Q592 131 636 172Q681 212 681 275Z"/>
<defs>
	<clipPath id="z51c1"><use href="#z51d1"/></clipPath>
</defs>
<path style="--d:1s;" pathLength="3333" clip-path="url(#z51c1)" d="M340 220L410 170L500 145L570 170L620 210L650 260L640 320L600 360L540 390L480 410L540 430L600 470L640 520L660 560L640 620L600 660L540 690L480 705L410 705L340 680"/>
</svg>