<!--
animNumber Copyright 2026- k1LoW, https://github.com/k1LoW/animNumber
Glyph outlines derived from Arphic PL KaitiM GB font.
You can redistribute and/or modify this file under the terms of the Arphic Public License
as published by Arphic Technology Co., Ltd.
You should have received a copy of this license along with this file.
If not, see https://ftp.gnu.org/non-gnu/chinese-fonts-truetype/LICENSE.
-->
<svg id="z52" class="acjk" viewBox="0 0 1024 1024" xmlns="http://www.w3.org/2000/svg">
<style>
<![CDATA[
@keyframes zk {
	to {
		stroke-dashoffset:0;
	}
}
svg.acjk path[clip-path] {
	--t:0.8s;
	animation:zk var(--t) linear forwards var(--d);
	stroke-dasharray:3337;
	stroke-dashoffset:3339;
	stroke-width:128;
	stroke-linecap:round;
	fill:none;
	stroke:#000;
}
svg.acjk path[id] {fill:#ccc;}
]]>
</style>
<path id="z52d1" d="M618 665L618 206L585 206L580 213L580 229L289 658L289 693L546 693L546 750Q546 796 476 796L476 824L689 824L689 796Q619 796 618 750L618 693L735 693L735 665ZM546 665L322 665L546 317Z"/>
<path id="z52d2" d="M618 665L618 206L585 206L580 213L580 229L289 658L289 693L546 693L546 750Q546 796 476 796L476 824L689 824L689 796Q619 796 618 750L618 693L735 693L735 665ZM546 665L322 665L546 317Z"/>
<defs>
	<clipPath id="z52c1"><use href="#z52d1"/></clipPath>
	<clipPath id="z52c2"><use href="#z52d2"/></clipPath>
</defs>
<path style="--d:1s;" pathLength="3333" clip-path="url(#z52c1)" d="M600 210L430 480L310 670L500 680L730 680"/>
<path style="--d:2s;" pathLength="3333" clip-path="url(#z52c2)" d="M600 206L600 810"/>
</svg>