<!--
animNumber Copyright 2026- k1LoW, https://github.com/k1LoW/animNumber
Glyph outlines derived from Noto Sans (https://github.com/notofonts/latin-greek-cyrillic)
Copyright 2022 The Noto Project Authors, licensed under the SIL Open Font License v1.1.
You can redistribute and/or modify these files under the terms of the GNU
Lesser General Public License as published by the Free Software Foundation,
either version 3 of the license, or (at your option) any later version. You
should have received a copy of this license (the file "licenses/LGPL.txt") along with
these files; if not, see https://www.gnu.org/licenses/.
-->
<svg id="z52" class="acjk" viewBox="0 0 1024 1024" xmlns="http://www.w3.org/2000/svg">
<style>
<![CDATA[
@keyframes zk {
	to {
		stroke-dashoffset:0;
	}
}
svg.acjk path[clip-path] {
	--t:0.8s;
	animation:zk var(--t) linear forwards var(--d);
	stroke-dasharray:3337;
	stroke-dashoffset:3339;
	stroke-width:128;
	stroke-linecap:round;
	fill:none;
	stroke:#000;
}
svg.acjk path[id] {fill:#ccc;}
]]>
</style>
<path id="z52d1" d="M729 590L644 590L644 722L575 722L575 590L296 590L296 528L570 136L644 136L644 525L729 525ZM575 341Q575 299 576 269Q578 239 579 212L576 212Q569 228 559 246Q550 264 541 276L366 525L575 525Z"/>
<path id="z52d2" d="M729 590L644 590L644 722L575 722L575 590L296 590L296 528L570 136L644 136L644 525L729 525ZM575 341Q575 299 576 269Q578 239 579 212L576 212Q569 228 559 246Q550 264 541 276L366 525L575 525Z"/>
<defs>
	<clipPath id="z52c1"><use href="#z52d1"/></clipPath>
	<clipPath id="z52c2"><use href="#z52d2"/></clipPath>
</defs>
<path style="--d:1s;" pathLength="3333" clip-path="url(#z52c1)" d="M580 150L460 350L360 530L530 555L700 555"/>
<path style="--d:2s;" pathLength="3333" clip-path="url(#z52c2)" d="M610 145L610 722"/>
</svg>