<!--
animNumber 2026 Copyright k1LoW, https://github.com/k1LoW/animNumber
Derived from:
    Klee One - https://github.com/fontworks-fonts/Klee
    Copyright 2020 The Klee Project Authors
You can redistribute and/or modify this file under the terms of the SIL Open Font License, Version 1.1
as published by SIL International.
You should have received a copy of this license along with this file.
If not, see https://openfontlicense.org/.
-->
<svg id="z52" class="acjk" viewBox="0 0 1024 1024" xmlns="http://www.w3.org/2000/svg">
<style>
<![CDATA[
@keyframes zk {
	to {
		stroke-dashoffset:0;
	}
}
svg.acjk path[clip-path] {
	--t:0.8s;
	animation:zk var(--t) linear forwards var(--d);
	stroke-dasharray:3337;
	stroke-dashoffset:3339;
	stroke-width:128;
	stroke-linecap:round;
	stroke-linejoin:round;
	fill:none;
	stroke:#000;
}
svg.acjk path[id] {fill:#ccc;}
]]>
</style>
<path id="z52d1" d="M641 710L666 708C686 708 705 709 723 710C741 710 753 711 759 711C767 711 771 707 771 698C771 688 768 679 761 668C755 658 748 653 739 653C732 653 721 654 707 656C692 657 678 658 665 659L641 660L585 663L321 674C350 634 379 589 410 541C440 493 470 446 499 400C527 354 552 314 573 279L610 223C611 219 612 216 612 212C612 201 607 190 597 179C587 167 578 161 571 161C567 161 564 164 561 168C557 180 551 193 545 206C539 219 531 236 520 257C509 277 494 303 476 333C457 365 433 403 404 450C374 497 338 554 296 621C291 628 285 635 279 643C273 650 267 659 260 667C256 674 253 680 253 687C253 698 258 708 268 718C278 727 288 732 298 732C300 732 302 732 304 731C311 729 318 728 325 726C332 725 337 725 341 725L585 713L641 710Z"/>
<path id="z52d2" d="M641 768L641 424C642 412 643 401 643 390C643 379 644 370 644 365C644 356 639 350 628 345C617 339 608 337 599 337C587 337 581 340 581 347C581 354 582 365 583 380C583 394 584 408 584 423C585 437 585 447 585 454L585 767C585 772 585 780 584 792C584 804 583 816 583 828L583 856C583 864 588 871 599 876C609 880 619 883 628 883C639 883 645 879 645 873C645 861 645 847 644 828C643 810 642 790 641 768Z"/>
<defs>
	<clipPath id="z52c1"><use href="#z52d1"/></clipPath>
	<clipPath id="z52c2"><use href="#z52d2"/></clipPath>
</defs>
<path style="--d:1s;" pathLength="3333" clip-path="url(#z52c1)" d="M598 185L416 491L274 691L498 691L757 679"/>
<path style="--d:2s;" pathLength="3333" clip-path="url(#z52c2)" d="M616 173L616 867"/>
</svg>