<!--
animNumber Copyright 2026- k1LoW, https://github.com/k1LoW/animNumber
Glyph outlines derived from Klee One Regular by Fontworks Inc.
Klee One is licensed under the SIL Open Font License, Version 1.1.
See https://openfontlicense.org/ for the license text.
-->
<svg id="z52" class="acjk" viewBox="0 0 1024 1024" xmlns="http://www.w3.org/2000/svg">
<style>
<![CDATA[
@keyframes zk {
	to {
		stroke-dashoffset:0;
	}
}
svg.acjk path[clip-path] {
	--t:0.8s;
	animation:zk var(--t) linear forwards var(--d);
	stroke-dasharray:3337;
	stroke-dashoffset:3339;
	stroke-width:128;
	stroke-linecap:round;
	fill:none;
	stroke:#000;
}
svg.acjk path[id] {fill:#ccc;}
]]>
</style>
<path id="z52d1" d="M622 686L643 685Q668 685 691 686Q714 687 722 687Q732 687 732 676Q732 664 724 651Q716 638 705 638Q696 638 678 640Q659 642 642 643L622 644L622 469Q622 458 622 443Q623 428 623 414Q624 400 624 393Q624 382 611 376Q597 369 586 369Q571 369 571 378Q571 387 572 406Q573 424 573 442Q574 460 574 469L574 646L350 656Q386 604 425 543Q464 481 501 423Q537 364 564 320L595 272Q597 268 597 263Q597 249 584 235Q571 220 562 220Q557 220 554 226Q548 241 540 258Q533 275 519 301Q505 327 481 366Q457 406 420 465Q382 525 328 611Q322 619 314 629Q306 639 298 650Q292 658 292 667Q292 681 305 693Q317 705 330 705Q333 705 335 704Q344 702 353 700Q362 699 367 699L574 689L574 735Q574 741 573 756Q573 771 572 787Q572 803 572 810Q572 821 586 827Q599 833 611 833Q625 833 625 825Q625 810 624 787Q623 763 622 736Z"/>
<path id="z52d2" d="M622 686L643 685Q668 685 691 686Q714 687 722 687Q732 687 732 676Q732 664 724 651Q716 638 705 638Q696 638 678 640Q659 642 642 643L622 644L622 469Q622 458 622 443Q623 428 623 414Q624 400 624 393Q624 382 611 376Q597 369 586 369Q571 369 571 378Q571 387 572 406Q573 424 573 442Q574 460 574 469L574 646L350 656Q386 604 425 543Q464 481 501 423Q537 364 564 320L595 272Q597 268 597 263Q597 249 584 235Q571 220 562 220Q557 220 554 226Q548 241 540 258Q533 275 519 301Q505 327 481 366Q457 406 420 465Q382 525 328 611Q322 619 314 629Q306 639 298 650Q292 658 292 667Q292 681 305 693Q317 705 330 705Q333 705 335 704Q344 702 353 700Q362 699 367 699L574 689L574 735Q574 741 573 756Q573 771 572 787Q572 803 572 810Q572 821 586 827Q599 833 611 833Q625 833 625 825Q625 810 624 787Q623 763 622 736Z"/>
<defs>
	<clipPath id="z52c1"><use href="#z52d1"/></clipPath>
	<clipPath id="z52c2"><use href="#z52d2"/></clipPath>
</defs>
<path style="--d:1s;" pathLength="3333" clip-path="url(#z52c1)" d="M585 240L430 500L310 670L500 670L720 660"/>
<path style="--d:2s;" pathLength="3333" clip-path="url(#z52c2)" d="M600 230L600 820"/>
</svg>