<!--
animNumber Copyright 2026- k1LoW, https://github.com/k1LoW/animNumber
Glyph outlines derived from Klee One Regular by Fontworks Inc.
Klee One is licensed under the SIL Open Font License, Version 1.1.
See https://openfontlicense.org/ for the license text.
-->
<svg id="z52" class="acjk" viewBox="0 0 1024 1024" xmlns="http://www.w3.org/2000/svg">
<style>
<![CDATA[
@keyframes zk {
	to {
		stroke-dashoffset:0;
	}
}
svg.acjk path[clip-path] {
	--t:0.8s;
	animation:zk var(--t) linear forwards var(--d);
	stroke-dasharray:3337;
	stroke-dashoffset:3339;
	stroke-width:128;
	stroke-linecap:round;
	fill:none;
	stroke:#000;
}
svg.acjk path[id] {fill:#ccc;}
]]>
</style>
<path id="z52d1" d="M622,686L643,685C659.667,685 675.667,685.333 691,686C706.333,686.667 716.667,687 722,687C728.667,687 732,683.333 732,676C732,668 729.333,659.667 724,651C718.667,642.333 712.333,638 705,638C699,638 690,638.667 678,640C665.333,641.333 653.333,642.333 642,643L622,644L574,646L350,656C374,621.333 399,583.667 425,543C451,501.667 476.333,461.667 501,423C525,383.667 546,349.333 564,320L595,272C596.333,269.333 597,266.333 597,263C597,253.667 592.667,244.333 584,235C575.333,225 568,220 562,220C558.667,220 556,222 554,226C550,236 545.333,246.667 540,258C535.333,269.333 528.333,283.667 519,301C509.667,318.333 497,340 481,366C465,392.667 444.667,425.667 420,465C394.667,505 364,553.667 328,611C324,616.333 319.333,622.333 314,629C308.667,635.667 303.333,642.667 298,650C294,655.333 292,661 292,667C292,676.333 296.333,685 305,693C313,701 321.333,705 330,705C332,705 333.667,704.667 335,704C341,702.667 347,701.333 353,700C359,699.333 363.667,699 367,699L574,689L622,686Z"/>
<path id="z52d2" d="M622,736L622,443C622.667,433 623,423.333 623,414C623.667,404.667 624,397.667 624,393C624,385.667 619.667,380 611,376C601.667,371.333 593.333,369 586,369C576,369 571,372 571,378C571,384 571.333,393.333 572,406C572.667,418 573,430 573,442C573.667,454 574,463 574,469L574,735C574,739 573.667,746 573,756C573,766 572.667,776.333 572,787L572,810C572,817.333 576.667,823 586,827C594.667,831 603,833 611,833C620.333,833 625,830.333 625,825C625,815 624.667,802.333 624,787C623.333,771 622.667,754 622,736Z"/>
<defs>
	<clipPath id="z52c1"><use href="#z52d1"/></clipPath>
	<clipPath id="z52c2"><use href="#z52d2"/></clipPath>
</defs>
<path style="--d:1s;" pathLength="3333" clip-path="url(#z52c1)" d="M585 240L430 500L310 670L500 670L720 660"/>
<path style="--d:2s;" pathLength="3333" clip-path="url(#z52c2)" d="M600 230L600 820"/>
</svg>