<!--
animNumber Copyright 2026- k1LoW, https://github.com/k1LoW/animNumber
Glyph outlines derived from Arphic PL KaitiM GB font.
You can redistribute and/or modify this file under the terms of the Arphic Public License
as published by Arphic Technology Co., Ltd.
You should have received a copy of this license along with this file.
If not, see https://ftp.gnu.org/non-gnu/chinese-fonts-truetype/LICENSE.
-->
<svg id="z53" class="acjk" viewBox="0 0 1024 1024" xmlns="http://www.w3.org/2000/svg">
<style>
<![CDATA[
@keyframes zk {
	to {
		stroke-dashoffset:0;
	}
}
svg.acjk path[clip-path] {
	--t:0.8s;
	animation:zk var(--t) linear forwards var(--d);
	stroke-dasharray:3337;
	stroke-dashoffset:3339;
	stroke-width:128;
	stroke-linecap:round;
	fill:none;
	stroke:#000;
}
svg.acjk path[id] {fill:#ccc;}
]]>
</style>
<path id="z53d1" d="M686 218L360 218L360 512L371 525Q443 479 504 478Q556 478 593 514Q644 563 644 653Q644 726 598 770Q559 804 515 806Q457 799 425 774Q394 750 393 741Q393 734 399 727Q405 721 406 713Q406 694 391 678Q375 662 355 661Q336 661 320 674Q305 689 305 713Q305 753 358 786Q425 832 515 834Q600 833 656 789Q720 737 720 653Q720 550 653 493Q602 450 530 450L530 449Q530 449 530 450Q529 449 527 450Q526 449 526 449L526 450Q448 449 393 486L393 268L664 268Z"/>
<path id="z53d2" d="M686 218L360 218L360 512L371 525Q443 479 504 478Q556 478 593 514Q644 563 644 653Q644 726 598 770Q559 804 515 806Q457 799 425 774Q394 750 393 741Q393 734 399 727Q405 721 406 713Q406 694 391 678Q375 662 355 661Q336 661 320 674Q305 689 305 713Q305 753 358 786Q425 832 515 834Q600 833 656 789Q720 737 720 653Q720 550 653 493Q602 450 530 450L530 449Q530 449 530 450Q529 449 527 450Q526 449 526 449L526 450Q448 449 393 486L393 268L664 268Z"/>
<defs>
	<clipPath id="z53c1"><use href="#z53d1"/></clipPath>
	<clipPath id="z53c2"><use href="#z53d2"/></clipPath>
</defs>
<path style="--d:1s;" pathLength="3333" clip-path="url(#z53c1)" d="M680 240L530 240L400 240"/>
<path style="--d:2s;" pathLength="3333" clip-path="url(#z53c2)" d="M400 240L390 400L420 470L500 460L560 480L620 530L660 620L640 720L580 780L510 815L430 800L370 760"/>
</svg>