<!--
animNumber Copyright 2026- k1LoW, https://github.com/k1LoW/animNumber
Glyph outlines derived from Klee One Regular by Fontworks Inc.
Klee One is licensed under the SIL Open Font License, Version 1.1.
See https://openfontlicense.org/ for the license text.
-->
<svg id="z53" class="acjk" viewBox="0 0 1024 1024" xmlns="http://www.w3.org/2000/svg">
<style>
<![CDATA[
@keyframes zk {
	to {
		stroke-dashoffset:0;
	}
}
svg.acjk path[clip-path] {
	--t:0.8s;
	animation:zk var(--t) linear forwards var(--d);
	stroke-dasharray:3337;
	stroke-dashoffset:3339;
	stroke-width:128;
	stroke-linecap:round;
	fill:none;
	stroke:#000;
}
svg.acjk path[id] {fill:#ccc;}
]]>
</style>
<path id="z53d1" d="M495 792L493 792Q444 791 407 766Q370 741 348 708Q344 702 338 702Q330 702 321 715Q313 729 313 743Q313 754 319 760Q350 793 394 816Q438 838 493 838Q570 838 618 810Q666 781 689 734Q711 687 711 634Q711 576 685 535Q659 495 618 473Q577 452 530 451L523 451Q482 451 449 464Q416 477 389 498L422 293L609 279Q628 277 647 277Q665 277 676 276Q687 276 687 264Q687 254 679 241Q671 229 661 229L659 229Q648 231 632 232Q615 233 603 234L425 247Q406 237 392 237Q379 237 379 247Q379 254 379 264Q379 274 377 283L345 490L336 520Q336 523 336 528Q336 543 345 553Q355 563 365 563Q370 563 373 560Q392 544 412 529Q432 514 458 504Q484 495 523 495Q583 496 622 532Q661 569 661 634Q661 675 643 711Q625 748 589 770Q552 792 495 792Z"/>
<path id="z53d2" d="M495 792L493 792Q444 791 407 766Q370 741 348 708Q344 702 338 702Q330 702 321 715Q313 729 313 743Q313 754 319 760Q350 793 394 816Q438 838 493 838Q570 838 618 810Q666 781 689 734Q711 687 711 634Q711 576 685 535Q659 495 618 473Q577 452 530 451L523 451Q482 451 449 464Q416 477 389 498L422 293L609 279Q628 277 647 277Q665 277 676 276Q687 276 687 264Q687 254 679 241Q671 229 661 229L659 229Q648 231 632 232Q615 233 603 234L425 247Q406 237 392 237Q379 237 379 247Q379 254 379 264Q379 274 377 283L345 490L336 520Q336 523 336 528Q336 543 345 553Q355 563 365 563Q370 563 373 560Q392 544 412 529Q432 514 458 504Q484 495 523 495Q583 496 622 532Q661 569 661 634Q661 675 643 711Q625 748 589 770Q552 792 495 792Z"/>
<defs>
	<clipPath id="z53c1"><use href="#z53d1"/></clipPath>
	<clipPath id="z53c2"><use href="#z53d2"/></clipPath>
</defs>
<path style="--d:1s;" pathLength="3333" clip-path="url(#z53c1)" d="M670 260L520 260L400 260"/>
<path style="--d:2s;" pathLength="3333" clip-path="url(#z53c2)" d="M400 260L380 420L400 500L490 480L560 490L620 520L660 580L660 670L620 740L550 790L460 800L380 770"/>
</svg>