<!--
animNumber Copyright 2026- k1LoW, https://github.com/k1LoW/animNumber
Glyph outlines derived from Noto Sans (https://github.com/notofonts/latin-greek-cyrillic)
Copyright 2022 The Noto Project Authors, licensed under the SIL Open Font License v1.1.
You can redistribute and/or modify these files under the terms of the GNU
Lesser General Public License as published by the Free Software Foundation,
either version 3 of the license, or (at your option) any later version. You
should have received a copy of this license (the file "licenses/LGPL.txt") along with
these files; if not, see https://www.gnu.org/licenses/.
-->
<svg id="z53" class="acjk" viewBox="0 0 1024 1024" xmlns="http://www.w3.org/2000/svg">
<style>
<![CDATA[
@keyframes zk {
	to {
		stroke-dashoffset:0;
	}
}
svg.acjk path[clip-path] {
	--t:0.8s;
	animation:zk var(--t) linear forwards var(--d);
	stroke-dasharray:3337;
	stroke-dashoffset:3339;
	stroke-width:128;
	stroke-linecap:round;
	fill:none;
	stroke:#000;
}
svg.acjk path[id] {fill:#ccc;}
]]>
</style>
<path id="z53d1" d="M503 364Q593 364 646 409Q699 454 699 536Q699 626 641 678Q584 730 481 730Q436 730 396 722Q357 714 330 698L330 630Q359 648 401 659Q443 669 482 669Q546 669 586 638Q625 608 625 543Q625 486 590 455Q555 425 479 425Q456 425 427 429Q398 433 380 437L344 414L366 139L658 139L658 204L427 204L413 373Q427 371 451 368Q474 364 503 364Z"/>
<path id="z53d2" d="M503 364Q593 364 646 409Q699 454 699 536Q699 626 641 678Q584 730 481 730Q436 730 396 722Q357 714 330 698L330 630Q359 648 401 659Q443 669 482 669Q546 669 586 638Q625 608 625 543Q625 486 590 455Q555 425 479 425Q456 425 427 429Q398 433 380 437L344 414L366 139L658 139L658 204L427 204L413 373Q427 371 451 368Q474 364 503 364Z"/>
<defs>
	<clipPath id="z53c1"><use href="#z53d1"/></clipPath>
	<clipPath id="z53c2"><use href="#z53d2"/></clipPath>
</defs>
<path style="--d:1s;" pathLength="3333" clip-path="url(#z53c1)" d="M640 160L530 170L410 200"/>
<path style="--d:2s;" pathLength="3333" clip-path="url(#z53c2)" d="M410 200L400 320L420 390L480 400L540 390L600 435L640 510L630 600L580 660L500 700L420 690L355 660"/>
</svg>