<!--
animNumber Copyright 2026- k1LoW, https://github.com/k1LoW/animNumber
You can redistribute and/or modify these files under the terms of the GNU
Lesser General Public License as published by the Free Software Foundation,
either version 3 of the license, or (at your option) any later version. You
should have received a copy of this license (the file "licenses/LGPL.txt") along with
these files; if not, see https://www.gnu.org/licenses/.
-->
<svg id="z53" class="acjk" viewBox="0 0 1024 1024" xmlns="http://www.w3.org/2000/svg">
<style>
<![CDATA[
@keyframes zk {
	to {
		stroke-dashoffset:0;
	}
}
svg.acjk path[clip-path] {
	--t:0.8s;
	animation:zk var(--t) linear forwards var(--d);
	stroke-dasharray:3337;
	stroke-dashoffset:3339;
	stroke-width:128;
	stroke-linecap:round;
	fill:none;
	stroke:#000;
}
svg.acjk path[id] {fill:#ccc;}
]]>
</style>
<path id="z53d1" d="M640 200L530 200L420 200L350 200C311 200 280 169 280 130C280 91 311 60 350 60L420 60L530 60L640 60C679 60 710 91 710 130C710 169 679 200 640 200Z"/>
<path id="z53d2" d="M429 139L415 256L410 335L419 386L444 421L485 438L538 445L582 438L680 388L745 529L724 643L660 729L578 771L480 790L379 770L312 729C280 708 270 665 291 632C312 600 355 590 388 611L431 640L480 650L532 639L570 621L596 587L605 531L640 522L648 562L542 585L445 572L356 529L291 444L270 345L275 244L291 121C295 83 330 56 369 61C407 65 434 100 429 139Z"/>
<defs>
	<clipPath id="z53c1"><use href="#z53d1"/></clipPath>
	<clipPath id="z53c2"><use href="#z53d2"/></clipPath>
</defs>
<path style="--d:1s;" pathLength="3333" clip-path="url(#z53c1)" d="M640 130L530 130L420 130L350 130"/>
<path style="--d:2s;" pathLength="3333" clip-path="url(#z53c2)" d="M360 130L345 250L340 340L355 415L400 475L465 505L540 515L615 500L660 455L675 530L660 615L615 675L555 705L480 720L405 705L350 670"/>
</svg>