<!--
animNumber 2026 Copyright k1LoW, https://github.com/k1LoW/animNumber
Derived from:
    Klee One - https://github.com/fontworks-fonts/Klee
    Copyright 2020 The Klee Project Authors
You can redistribute and/or modify this file under the terms of the SIL Open Font License, Version 1.1
as published by SIL International.
You should have received a copy of this license along with this file.
If not, see https://openfontlicense.org/.
-->
<svg id="z53" class="acjk" viewBox="0 0 1024 1024" xmlns="http://www.w3.org/2000/svg">
<style>
<![CDATA[
@keyframes zk {
	to {
		stroke-dashoffset:0;
	}
}
svg.acjk path[clip-path] {
	--t:0.8s;
	animation:zk var(--t) linear forwards var(--d);
	stroke-dasharray:3337;
	stroke-dashoffset:3339;
	stroke-width:128;
	stroke-linecap:round;
	stroke-linejoin:round;
	fill:none;
	stroke:#000;
}
svg.acjk path[id] {fill:#ccc;}
]]>
</style>
<path id="z53d1" d="M406 247L626 231C641 229 656 228 671 228C685 228 696 228 705 227C714 227 718 223 718 213C718 205 715 196 708 186C702 177 695 172 687 172L685 172C676 174 666 175 653 176C640 176 628 177 619 178L410 193C393 191 368 195 376 216C381 231 382 246 406 247Z"/>
<path id="z53d2" d="M492 834L490 834C451 834 417 823 388 804C359 784 336 761 319 736C316 731 312 728 307 728C301 728 294 734 287 744C281 755 278 766 278 777C278 785 280 792 285 797C309 823 339 845 373 863C408 880 447 888 490 888C550 888 599 877 637 856C674 833 702 803 720 766C737 729 746 690 746 648C746 603 736 564 716 532C695 501 669 476 637 459C605 443 570 434 533 433L525 433C493 433 464 438 438 448C412 459 388 472 367 488L406 247C406 247 423 201 410 193C395 185 382 181 371 181C361 181 356 185 356 193L356 213C356 221 355 228 353 236L316 479L305 514L305 524C305 536 308 545 316 553C323 561 331 565 339 565C343 565 346 564 348 561C363 549 379 537 394 525C410 513 428 503 448 496C469 488 494 485 525 485C572 486 611 500 641 528C672 557 687 597 687 648C687 681 680 711 666 739C652 768 631 791 603 808C574 826 537 834 492 834Z"/>
<defs>
	<clipPath id="z53c1"><use href="#z53d1"/></clipPath>
	<clipPath id="z53c2"><use href="#z53d2"/></clipPath>
</defs>
<path style="--d:1s;" pathLength="3333" clip-path="url(#z53c1)" d="M380 208L521 208L698 208"/>
<path style="--d:2s;" pathLength="3333" clip-path="url(#z53c2)" d="M368 185L357 279L345 397L333 444L333 514L368 503L416 491L486 467L568 479L639 514L686 585L686 691L639 773L557 832L451 844L357 808L286 761"/>
</svg>