<!--
animNumber Copyright 2026- k1LoW, https://github.com/k1LoW/animNumber
Glyph outlines derived from Klee One Regular by Fontworks Inc.
Klee One is licensed under the SIL Open Font License, Version 1.1.
See https://openfontlicense.org/ for the license text.
-->
<svg id="z54" class="acjk" viewBox="0 0 1024 1024" xmlns="http://www.w3.org/2000/svg">
<style>
<![CDATA[
@keyframes zk {
	to {
		stroke-dashoffset:0;
	}
}
svg.acjk path[clip-path] {
	--t:0.8s;
	animation:zk var(--t) linear forwards var(--d);
	stroke-dasharray:3337;
	stroke-dashoffset:3339;
	stroke-width:128;
	stroke-linecap:round;
	fill:none;
	stroke:#000;
}
svg.acjk path[id] {fill:#ccc;}
]]>
</style>
<path id="z54d1" d="M380 534Q415 461 456 394Q497 328 560 255Q564 251 567 246Q571 242 571 238Q571 226 557 223Q543 219 534 219Q522 219 515 225Q509 232 498 247Q447 324 405 394Q362 464 336 530Q311 595 311 658Q311 708 336 748Q361 788 406 813Q451 837 511 837Q579 837 624 808Q669 780 691 733Q713 686 713 631Q713 580 688 541Q662 502 620 479Q578 457 527 457Q482 457 444 477Q405 498 380 534ZM511 793Q439 793 400 754Q361 714 361 657Q361 614 381 578Q402 543 438 521Q475 499 525 499Q565 499 596 518Q628 538 645 568Q663 599 663 634Q663 678 646 714Q628 751 595 772Q561 793 511 793Z"/>
<defs>
	<clipPath id="z54c1"><use href="#z54d1"/></clipPath>
</defs>
<path style="--d:1s;" pathLength="3333" clip-path="url(#z54c1)" d="M560 240L490 320L430 420L380 520L340 610L320 680L350 750L410 800L490 820L570 800L640 760L680 680L680 610L640 530L570 480L490 470L410 490L370 520"/>
</svg>