<!--
animNumber Copyright 2026- k1LoW, https://github.com/k1LoW/animNumber
Glyph outlines derived from Arphic PL KaitiM GB font.
You can redistribute and/or modify this file under the terms of the Arphic Public License
as published by Arphic Technology Co., Ltd.
You should have received a copy of this license along with this file.
If not, see https://ftp.gnu.org/non-gnu/chinese-fonts-truetype/LICENSE.
-->
<svg id="z54" class="acjk" viewBox="0 0 1024 1024" xmlns="http://www.w3.org/2000/svg">
<style>
<![CDATA[
@keyframes zk {
	to {
		stroke-dashoffset:0;
	}
}
svg.acjk path[clip-path] {
	--t:0.8s;
	animation:zk var(--t) linear forwards var(--d);
	stroke-dasharray:3337;
	stroke-dashoffset:3339;
	stroke-width:128;
	stroke-linecap:round;
	fill:none;
	stroke:#000;
}
svg.acjk path[id] {fill:#ccc;}
]]>
</style>
<path id="z54d1" d="M380 297Q307 409 306 566Q306 689 365 759Q426 831 512 834Q600 833 657 782Q718 722 719 639Q719 530 661 480Q612 437 548 436L548 435Q548 435 548 436Q545 435 542 436Q466 436 383 505Q390 369 438 300Q484 227 547 225Q577 228 598 250Q617 269 611 280Q604 290 602 307Q602 326 618 341Q631 354 649 354Q662 354 680 343Q696 328 697 307Q697 262 648 229Q602 198 552 197L552 196Q551 196 551 197Q548 196 546 197Q446 197 380 297ZM382 566Q382 553 382 540Q472 477 523 475Q578 475 611 512Q642 551 643 639Q643 727 607 767Q570 803 512 806Q457 803 419 750Q382 693 382 566Z"/>
<defs>
	<clipPath id="z54c1"><use href="#z54d1"/></clipPath>
</defs>
<path style="--d:1s;" pathLength="3333" clip-path="url(#z54c1)" d="M650 270L560 220L500 220L440 260L400 340L380 460L360 570L380 680L430 760L500 810L570 800L630 750L670 670L680 580L650 500L590 460L520 450L450 480L400 540L380 620"/>
</svg>