<!--
animNumber Copyright 2026- k1LoW, https://github.com/k1LoW/animNumber
Glyph outlines derived from Noto Sans (https://github.com/notofonts/latin-greek-cyrillic)
Copyright 2022 The Noto Project Authors, licensed under the SIL Open Font License v1.1.
You can redistribute and/or modify these files under the terms of the GNU
Lesser General Public License as published by the Free Software Foundation,
either version 3 of the license, or (at your option) any later version. You
should have received a copy of this license (the file "licenses/LGPL.txt") along with
these files; if not, see https://www.gnu.org/licenses/.
-->
<svg id="z54" class="acjk" viewBox="0 0 1024 1024" xmlns="http://www.w3.org/2000/svg">
<style>
<![CDATA[
@keyframes zk {
	to {
		stroke-dashoffset:0;
	}
}
svg.acjk path[clip-path] {
	--t:0.8s;
	animation:zk var(--t) linear forwards var(--d);
	stroke-dasharray:3337;
	stroke-dashoffset:3339;
	stroke-width:128;
	stroke-linecap:round;
	fill:none;
	stroke:#000;
}
svg.acjk path[id] {fill:#ccc;}
]]>
</style>
<path id="z54d1" d="M323 473Q323 410 334 349Q345 288 374 239Q403 190 456 160Q508 131 590 131Q608 131 628 132Q649 134 662 138L662 199Q648 194 629 192Q611 190 592 190Q536 190 498 208Q461 227 439 260Q417 292 408 335Q398 377 395 426L400 426Q419 397 452 377Q486 357 538 357Q614 357 661 403Q707 449 707 534Q707 626 657 678Q607 730 522 730Q466 730 421 702Q376 674 350 617Q323 560 323 473ZM521 670Q572 670 604 637Q636 603 636 534Q636 479 608 446Q580 413 523 413Q485 413 456 429Q428 445 412 470Q396 494 396 520Q396 555 410 590Q424 625 452 647Q479 670 521 670Z"/>
<defs>
	<clipPath id="z54c1"><use href="#z54d1"/></clipPath>
</defs>
<path style="--d:1s;" pathLength="3333" clip-path="url(#z54c1)" d="M610 150L540 180L470 220L430 270L405 340L380 430L350 530L365 620L410 680L480 705L550 700L610 660L650 590L660 520L640 450L590 410L520 390L450 420L410 480L395 540"/>
</svg>