<!--
animNumber 2026 Copyright k1LoW, https://github.com/k1LoW/animNumber
Derived from:
    Klee One - https://github.com/fontworks-fonts/Klee
    Copyright 2020 The Klee Project Authors
You can redistribute and/or modify this file under the terms of the SIL Open Font License, Version 1.1
as published by SIL International.
You should have received a copy of this license along with this file.
If not, see https://openfontlicense.org/.
-->
<svg id="z54" class="acjk" viewBox="0 0 1024 1024" xmlns="http://www.w3.org/2000/svg">
<style>
<![CDATA[
@keyframes zk {
	to {
		stroke-dashoffset:0;
	}
}
svg.acjk path[clip-path] {
	--t:0.8s;
	animation:zk var(--t) linear forwards var(--d);
	stroke-dasharray:3337;
	stroke-dashoffset:3339;
	stroke-width:128;
	stroke-linecap:round;
	stroke-linejoin:round;
	fill:none;
	stroke:#000;
}
svg.acjk path[id] {fill:#ccc;}
]]>
</style>
<path id="z54d1a" d="M523 887C519 887 515 887 511 887C464 887 423 878 387 859C352 839 325 814 305 783C285 751 276 716 276 677C276 627 285 577 305 526C325 474 352 421 386 366C419 311 456 254 496 193C504 181 511 173 516 167C521 163 528 160 538 160C545 160 554 162 565 165C576 167 581 173 581 183C581 186 580 189 577 192C574 196 572 199 568 203C519 260 478 314 446 366C414 419 384 474 357 531C359 528 354 534 357 531C341 575 336 626 334 669C334 671 334 673 334 676C334 720 350 758 380 790C408 817 446 832 495 835C520 836 525 849 529 851C538 858 542 874 530 882C529 883 525 885 523 887Z"/>
<path id="z54d1b" d="M363 522C382 498 405 478 432 464C462 448 494 440 530 440C570 440 606 449 639 466C672 484 699 508 719 539C739 570 748 605 748 645C748 688 740 728 723 765C705 802 679 831 644 853C611 874 571 885 523 887C525 885 526 883 526 882C526 858 519 859 510 853C506 850 503 844 495 835C500 835 505 836 511 836C550 836 583 827 610 811C636 794 656 772 670 743C683 714 690 683 690 648C690 621 683 595 668 571C655 547 636 528 611 512C587 497 559 490 527 490C488 490 454 498 425 516C397 533 374 555 358 583C343 609 335 638 334 669C322 666 307 654 314 611C316 593 334 560 363 522Z"/>
<defs>
	<clipPath id="z54c1a"><use href="#z54d1a"/></clipPath>
	<clipPath id="z54c1b"><use href="#z54d1b"/></clipPath>
</defs>
<path style="--d:1s;" pathLength="3333" clip-path="url(#z54c1a)" d="M580 185L486 279L416 397L357 514L310 620L286 703L321 785L392 844L486 867L580 844L663 797L710 703L710 620L663 526L580 467L486 456L404 485L368 514L321 561"/>
<path style="--d:1s;" pathLength="3333" clip-path="url(#z54c1b)" d="M -326 844L580 844L663 797L710 703L710 620L663 526L580 467L486 456L404 485L368 514L321 561"/>
</svg>