<!--
animNumber Copyright 2026- k1LoW, https://github.com/k1LoW/animNumber
Glyph outlines derived from Klee One Regular by Fontworks Inc.
Klee One is licensed under the SIL Open Font License, Version 1.1.
See https://openfontlicense.org/ for the license text.
-->
<svg id="z55" class="acjk" viewBox="0 0 1024 1024" xmlns="http://www.w3.org/2000/svg">
<style>
<![CDATA[
@keyframes zk {
	to {
		stroke-dashoffset:0;
	}
}
svg.acjk path[clip-path] {
	--t:0.8s;
	animation:zk var(--t) linear forwards var(--d);
	stroke-dasharray:3337;
	stroke-dashoffset:3339;
	stroke-width:128;
	stroke-linecap:round;
	fill:none;
	stroke:#000;
}
svg.acjk path[id] {fill:#ccc;}
]]>
</style>
<path id="z55d1" d="M388 299L640 277Q606 345 573 418Q539 491 510 559Q481 628 459 684Q437 740 424 775Q412 810 412 815Q412 827 425 830Q438 832 447 832Q466 832 469 820Q475 798 480 780Q485 761 490 748Q516 676 547 600Q577 524 611 449Q645 374 681 307Q685 300 693 288Q700 277 702 268Q702 267 703 266Q703 266 703 265Q703 253 690 241Q677 230 667 229L664 229Q656 229 648 232Q639 234 628 235L370 254Q367 254 363 254Q359 254 356 254Q345 254 339 254Q332 253 325 253Q321 253 321 258Q321 263 326 273Q331 283 341 292Q350 301 363 301Q369 301 376 300Q382 300 388 299Z"/>
<defs>
	<clipPath id="z55c1"><use href="#z55d1"/></clipPath>
</defs>
<path style="--d:1s;" pathLength="3333" clip-path="url(#z55c1)" d="M350 300L500 285L660 270L580 450L500 620L440 770L420 820"/>
</svg>