<!--
animNumber 2026 Copyright k1LoW, https://github.com/k1LoW/animNumber
Derived from:
    Klee One - https://github.com/fontworks-fonts/Klee
    Copyright 2020 The Klee Project Authors
You can redistribute and/or modify this file under the terms of the SIL Open Font License, Version 1.1
as published by SIL International.
You should have received a copy of this license along with this file.
If not, see https://openfontlicense.org/.
-->
<svg id="z55" class="acjk" viewBox="0 0 1024 1024" xmlns="http://www.w3.org/2000/svg">
<style>
<![CDATA[
@keyframes zk {
	to {
		stroke-dashoffset:0;
	}
}
svg.acjk path[clip-path] {
	--t:0.8s;
	animation:zk var(--t) linear forwards var(--d);
	stroke-dasharray:3337;
	stroke-dashoffset:3339;
	stroke-width:128;
	stroke-linecap:round;
	stroke-linejoin:round;
	fill:none;
	stroke:#000;
}
svg.acjk path[id] {fill:#ccc;}
]]>
</style>
<path id="z55d1" d="M343 281C343 281 344 263 344 252C345 241 344 237 344 232C344 223 341 214 331 210C320 204 314 201 305 201C293 201 287 203 287 210C287 217 288 228 288 243C289 257 291 280 291 280C291 285 292 293 291 305C291 317 290 329 290 341L290 368C290 377 294 384 305 388C315 393 320 396 330 396C341 396 346 392 346 386C346 374 346 359 345 341C344 323 343 303 343 281Z"/>
<path id="z55d2" d="M366 254L663 228C636 282 610 337 584 394C557 452 532 507 510 560C487 614 467 663 450 707C432 751 419 787 408 814C399 842 394 857 394 861C394 871 399 877 410 879C420 881 428 881 436 881C450 881 459 877 461 867C466 850 470 834 474 820C478 805 482 793 486 783C507 726 529 668 553 608C577 549 602 490 628 431C655 372 683 316 711 264C714 258 719 251 725 241C730 233 734 225 736 218C736 217 736 216 737 216L737 214C737 205 732 196 721 186C711 177 702 173 694 172L691 172C685 172 678 173 672 176C665 177 657 178 648 179L345 201L308 201C303 201 297 200 292 200C289 200 287 202 287 206C287 210 289 216 293 224C297 232 303 239 311 246C318 253 327 257 337 257C341 257 347 256 352 256C357 256 361 255 366 254Z"/>
<defs>
	<clipPath id="z55c1"><use href="#z55d1"/></clipPath>
	<clipPath id="z55c2"><use href="#z55d2"/></clipPath>
</defs>
<path style="--d:1s;" pathLength="3333" clip-path="url(#z55c1)" d="M305 203L318 303L330 397"/>
<path style="--d:2s;" pathLength="3333" clip-path="url(#z55c2)" d="M374 238L521 226L686 226L592 432L498 632L427 808L404 867"/>
</svg>