<!--
animNumber Copyright 2026- k1LoW, https://github.com/k1LoW/animNumber
Glyph outlines derived from Arphic PL KaitiM GB font.
You can redistribute and/or modify this file under the terms of the Arphic Public License
as published by Arphic Technology Co., Ltd.
You should have received a copy of this license along with this file.
If not, see https://ftp.gnu.org/non-gnu/chinese-fonts-truetype/LICENSE.
-->
<svg id="z55" class="acjk" viewBox="0 0 1024 1024" xmlns="http://www.w3.org/2000/svg">
<style>
<![CDATA[
@keyframes zk {
	to {
		stroke-dashoffset:0;
	}
}
svg.acjk path[clip-path] {
	--t:0.8s;
	animation:zk var(--t) linear forwards var(--d);
	stroke-dasharray:3337;
	stroke-dashoffset:3339;
	stroke-width:128;
	stroke-linecap:round;
	fill:none;
	stroke:#000;
}
svg.acjk path[id] {fill:#ccc;}
]]>
</style>
<path id="z55d1" d="M718 216L362 216L306 410L329 417Q377 314 421 292Q472 267 563 266L668 266Q530 441 477 556Q426 673 426 774Q426 811 436 826Q448 841 469 841Q488 841 501 825Q513 809 513 774Q513 614 554 507Q600 396 718 244Z"/>
<defs>
	<clipPath id="z55c1"><use href="#z55d1"/></clipPath>
</defs>
<path style="--d:1s;" pathLength="3333" clip-path="url(#z55c1)" d="M330 310L450 240L570 240L700 240L580 430L510 590L470 740L470 830"/>
</svg>