<!--
animNumber 2026 Copyright k1LoW, https://github.com/k1LoW/animNumber
Derived from:
    Klee One - https://github.com/fontworks-fonts/Klee
    Copyright 2020 The Klee Project Authors
You can redistribute and/or modify this file under the terms of the SIL Open Font License, Version 1.1
as published by SIL International.
You should have received a copy of this license along with this file.
If not, see https://openfontlicense.org/.
-->
<svg id="z56" class="acjk" viewBox="0 0 1024 1024" xmlns="http://www.w3.org/2000/svg">
<style>
<![CDATA[
@keyframes zk {
	to {
		stroke-dashoffset:0;
	}
}
svg.acjk path[clip-path] {
	--t:0.8s;
	animation:zk var(--t) linear forwards var(--d);
	stroke-dasharray:3337;
	stroke-dashoffset:3339;
	stroke-width:128;
	stroke-linecap:round;
	stroke-linejoin:round;
	fill:none;
	stroke:#000;
}
svg.acjk path[id] {fill:#ccc;}
]]>
</style>
<path id="z56d1a" d="M494 504L439 479C394 456 362 434 341 411C320 387 310 359 310 327C310 297 318 270 336 245C353 221 377 201 407 185C439 169 475 161 517 161C547 161 573 166 596 176C619 185 639 196 656 210C671 223 683 236 692 247C700 258 704 266 704 270C704 276 702 282 698 288C698 288 696 294 692 297C686 302 682 303 682 303C682 303 677 305 673 305C665 305 659 301 653 292C638 268 620 248 598 234C576 219 549 212 518 212C487 212 460 217 438 228C415 239 398 254 386 272C374 289 368 308 368 328C368 354 378 374 398 391C418 407 450 425 492 445C500 449 530 461 546 468L558 474C617 499 664 528 698 561C732 595 748 637 748 686C748 727 738 762 717 792C696 822 667 845 630 863C592 879 547 887 496 887C488 887 480 887 473 887C447 872 452 843 476 834C482 834 489 834 496 834C532 834 565 828 594 816C623 804 645 787 663 765C680 744 688 719 688 690C688 678 686 665 681 650C677 636 669 620 656 604C642 587 623 570 598 553C572 537 537 520 494 504Z"/>
<path id="z56d1b" d="M510 873C509 879 498 887 496 887C451 887 412 879 379 863C345 845 320 823 303 794C285 766 276 734 276 699C276 668 283 639 298 614C312 588 331 565 356 543C381 520 408 499 439 479L492 445C530 421 564 398 596 376C627 352 655 328 681 303C681 303 701 285 702 283L703 283C711 275 719 271 726 271C737 271 743 277 743 290C743 300 735 313 720 328C705 345 687 362 665 380C644 398 622 415 600 431C578 447 560 460 546 468L494 504C449 535 411 566 380 597C350 627 336 660 336 696C336 718 341 740 353 761C365 783 383 800 406 813C429 827 459 834 494 834C505 843 510 857 510 873Z"/>
<defs>
	<clipPath id="z56c1a"><use href="#z56d1a"/></clipPath>
	<clipPath id="z56c1b"><use href="#z56d1b"/></clipPath>
</defs>
<path style="--d:1s;" pathLength="3333" clip-path="url(#z56c1a)" d="M686 256L663 232L627 197L510 197L416 197L380 232L345 303L333 373L357 432L404 467L486 491L557 503L639 538L686 608L710 691L686 773L627 832L486 867L427 867L357 832L321 761L310 691L310 620L333 550L392 514L451 479L533 456L592 420L639 385L686 361L710 326L716 291"/>
<path style="--d:1s;" pathLength="3333" clip-path="url(#z56c1b)" d="M -312 1456L145 1456L486 1456L486 867L427 867L357 832L321 761L310 691L310 620L333 550L392 514L451 479L533 456L592 420L639 385L686 361L710 326L716 291"/>
</svg>