<!--
animNumber Copyright 2026- k1LoW, https://github.com/k1LoW/animNumber
Glyph outlines derived from Noto Sans (https://github.com/notofonts/latin-greek-cyrillic)
Copyright 2022 The Noto Project Authors, licensed under the SIL Open Font License v1.1.
You can redistribute and/or modify these files under the terms of the GNU
Lesser General Public License as published by the Free Software Foundation,
either version 3 of the license, or (at your option) any later version. You
should have received a copy of this license (the file "licenses/LGPL.txt") along with
these files; if not, see https://www.gnu.org/licenses/.
-->
<svg id="z56" class="acjk" viewBox="0 0 1024 1024" xmlns="http://www.w3.org/2000/svg">
<style>
<![CDATA[
@keyframes zk {
	to {
		stroke-dashoffset:0;
	}
}
svg.acjk path[clip-path] {
	--t:0.8s;
	animation:zk var(--t) linear forwards var(--d);
	stroke-dasharray:3337;
	stroke-dashoffset:3339;
	stroke-width:128;
	stroke-linecap:round;
	fill:none;
	stroke:#000;
}
svg.acjk path[id] {fill:#ccc;}
]]>
</style>
<path id="z56d1" d="M511 131Q588 131 637 167Q686 203 686 270Q686 306 671 332Q656 358 630 378Q605 398 575 413Q611 430 640 452Q670 474 687 502Q705 531 705 571Q705 644 653 687Q601 730 514 730Q420 730 369 689Q319 648 319 573Q319 533 335 504Q352 474 380 453Q408 432 439 417Q397 393 367 358Q337 323 337 270Q337 225 360 194Q383 163 422 147Q461 131 511 131ZM510 189Q465 189 436 210Q408 232 408 273Q408 303 422 323Q436 344 461 358Q485 372 514 386Q557 368 586 342Q615 317 615 273Q615 232 586 210Q558 189 510 189ZM389 574Q389 617 419 645Q449 673 512 673Q572 673 603 645Q634 617 634 572Q634 529 601 501Q568 473 512 452L499 447Q445 470 417 499Q389 529 389 574Z"/>
<defs>
	<clipPath id="z56c1"><use href="#z56d1"/></clipPath>
</defs>
<path style="--d:1s;" pathLength="3333" clip-path="url(#z56c1)" d="M511 410L430 370L370 320L360 260L390 200L450 160L511 145L570 160L640 200L660 260L650 320L590 370L511 410L440 450L380 510L360 570L380 640L440 680L511 705L580 680L640 630L660 560L640 490L580 440L511 410"/>
</svg>