<!--
animNumber Copyright 2026- k1LoW, https://github.com/k1LoW/animNumber
Glyph outlines derived and modified from Klee One Regular by Fontworks Inc.
Klee One is licensed under the SIL Open Font License, Version 1.1.
See https://openfontlicense.org/ for the license text.
-->
<svg id="z56" class="acjk" viewBox="0 0 1024 1024" xmlns="http://www.w3.org/2000/svg">
<style>
<![CDATA[
@keyframes zk {
	to {
		stroke-dashoffset:0;
	}
}
svg.acjk path[clip-path] {
	--t:0.8s;
	animation:zk var(--t) linear forwards var(--d);
	stroke-dasharray:3337;
	stroke-dashoffset:3339;
	stroke-width:128;
	stroke-linecap:round;
	fill:none;
	stroke:#000;
}
svg.acjk path[id] {fill:#ccc;}
]]>
</style>
<path id="z56d1" d="M551 486L541 481Q559 470 587 449Q615 429 642 406Q670 383 689 362Q708 342 708 329Q708 313 694 313Q685 313 674 323L670 328Q675 320 675 312Q675 307 665 293Q654 278 634 261Q613 244 583 232Q554 220 516 220Q463 220 423 240Q384 260 362 291Q340 323 340 361Q340 402 367 432Q393 461 450 490Q411 515 379 544Q348 572 330 605Q311 637 311 677Q311 722 334 758Q356 794 399 816Q441 837 498 837Q564 837 612 816Q660 794 686 756Q713 718 713 666Q713 603 670 560Q627 517 551 486ZM495 461Q441 436 415 415Q390 394 390 362Q390 336 405 314Q420 291 449 277Q477 263 517 263Q557 263 585 282Q613 300 632 331Q639 342 649 342Q654 342 656 340Q623 372 583 402Q543 431 495 461ZM497 511Q552 532 585 553Q617 575 634 596Q651 617 656 635Q662 654 662 669Q662 706 640 733Q618 761 582 776Q545 792 498 792Q452 792 422 774Q392 757 377 730Q362 703 362 674Q362 629 400 590Q439 551 497 511Z"/>
<defs>
	<clipPath id="z56c1"><use href="#z56d1"/></clipPath>
</defs>
<path style="--d:1s;" pathLength="3333" clip-path="url(#z56c1)" d="M512 240L430 260L370 320L360 390L410 450L490 490L570 530L630 590L660 670L620 750L550 800L490 810L420 800L360 750L340 670L370 580L440 520L520 480L600 440L650 380L660 320L620 260L560 240L512 240"/>
</svg>