<!--
animNumber 2026 Copyright k1LoW, https://github.com/k1LoW/animNumber
Derived from:
    Klee One - https://github.com/fontworks-fonts/Klee
    Copyright 2020 The Klee Project Authors
You can redistribute and/or modify this file under the terms of the SIL Open Font License, Version 1.1
as published by SIL International.
You should have received a copy of this license along with this file.
If not, see https://openfontlicense.org/.
-->
<svg id="z56" class="acjk" viewBox="0 0 1024 1024" xmlns="http://www.w3.org/2000/svg">
<style>
<![CDATA[
@keyframes zk {
	to {
		stroke-dashoffset:0;
	}
}
svg.acjk path[clip-path] {
	--t:0.8s;
	animation:zk var(--t) linear forwards var(--d);
	stroke-dasharray:3337;
	stroke-dashoffset:3339;
	stroke-width:128;
	stroke-linecap:round;
	stroke-linejoin:round;
	fill:none;
	stroke:#000;
}
svg.acjk path[id] {fill:#ccc;}
]]>
</style>
<path id="z56d1a" d="M497,511L450,490C412,470.667 384.333,451.333 367,432C349,412 340,388.333 340,361C340,335.667 347.333,312.333 362,291C376.667,270.333 397,253.333 423,240C449.667,226.667 480.667,220 516,220C541.333,220 563.667,224 583,232C603,240 620,249.667 634,261C647.333,272.333 657.667,283 665,293C671.667,302.333 675,308.667 675,312C675,317.333 673.333,322.667 670,328C670,328 668.05,332.601 664.799,335.445C660.04,339.607 656.636,340.291 656.899,340.098C656.859,340.103 652.223,342 649,342C642.333,342 636.667,338.333 632,331C619.333,310.333 603.667,294 585,282C566.333,269.333 543.667,263 517,263C490.333,263 467.667,267.667 449,277C429.667,286.333 415,298.667 405,314C395,328.667 390,344.667 390,362C390,383.333 398.333,401 415,415C432.333,429 459,444.333 495,461C501.876,464.183 527,474.667 541,481L551,486C601.667,506.667 641.333,531.333 670,560C698.667,588.667 713,624 713,666C713,700.667 704,730.667 686,756C668.667,781.333 644,801.333 612,816C580,830 542,837 498,837C491.359,837 484.87,836.786 478.535,836.359C456.378,824.009 461.024,799.605 481.017,791.344C486.484,791.781 492.145,792 498,792C529.333,792 557.333,786.667 582,776C606,766 625.333,751.667 640,733C654.667,715 662,693.667 662,669C662,659 660,647.667 656,635C652.667,623 645.333,610 634,596C622.667,582 606.333,567.667 585,553C563,539 533.667,525 497,511Z"/>
<path id="z56d1b" d="M509.886,825.031C509.792,829.541 500.211,837 498,837C460,837 427,830 399,816C370.333,801.333 348.667,782 334,758C318.667,734 311,707 311,677C311,650.333 317.333,626.333 330,605C342,583 358.333,562.667 379,544C400.333,524.667 424,506.667 450,490L495,461C527,441 556.333,421.333 583,402C609.626,382.031 633.925,361.397 655.899,340.098C655.899,340.098 672.884,324.74 673.672,323.41L674,323C681.333,316.333 688,313 694,313C703.333,313 708,318.333 708,329C708,337.667 701.667,348.667 689,362C676.333,376 660.667,390.667 642,406C624,421.333 605.667,435.667 587,449C568.333,463 553,473.667 541,481L497,511C458.333,537.667 426,564 400,590C374.667,616 362,644 362,674C362,693.333 367,712 377,730C387,748 402,762.667 422,774C441.704,785.822 466.584,791.821 496.641,791.996C505.973,799.084 510.171,811.38 509.886,825.031Z"/>
<defs>
	<clipPath id="z56c1a"><use href="#z56d1a"/></clipPath>
	<clipPath id="z56c1b"><use href="#z56d1b"/></clipPath>
</defs>
<path style="--d:1s;" pathLength="3333" clip-path="url(#z56c1a)" d="M640 280L610 250L510 250L430 250L400 280L370 340L360 400L380 450L420 480L490 500L550 510L620 540L660 600L680 670L660 740L610 790L490 820L -260 820"/>
<path style="--d:1s;" pathLength="3333" clip-path="url(#z56c1b)" d="M -160 1320L200 1320L490 1320L490 820L440 820L380 790L350 730L340 670L340 610L360 550L410 520L460 490L530 470L580 440L620 410L660 390L680 360L685 330"/>
</svg>