<!--
animNumber 2026 Copyright k1LoW, https://github.com/k1LoW/animNumber
Derived from:
    Klee One - https://github.com/fontworks-fonts/Klee
    Copyright 2020 The Klee Project Authors
You can redistribute and/or modify this file under the terms of the SIL Open Font License, Version 1.1
as published by SIL International.
You should have received a copy of this license along with this file.
If not, see https://openfontlicense.org/.
-->
<svg id="z57" class="acjk" viewBox="0 0 1024 1024" xmlns="http://www.w3.org/2000/svg">
<style>
<![CDATA[
@keyframes zk {
	to {
		stroke-dashoffset:0;
	}
}
svg.acjk path[clip-path] {
	--t:0.8s;
	animation:zk var(--t) linear forwards var(--d);
	stroke-dasharray:3337;
	stroke-dashoffset:3339;
	stroke-width:128;
	stroke-linecap:round;
	stroke-linejoin:round;
	fill:none;
	stroke:#000;
}
svg.acjk path[id] {fill:#ccc;}
]]>
</style>
<path id="z57d1a" d="M373 598C366 595 360 592 353 588C328 574 308 554 292 527C277 501 270 468 270 430C270 397 276 364 290 332C302 300 320 271 344 245C367 220 394 200 425 185C455 169 487 161 521 161C554 161 583 167 606 178C630 189 648 201 661 214C675 228 684 240 688 248L689 248C690 253 691 260 691 267C691 275 685 287 680 295L680 294C675 300 670 303 665 303C659 303 654 298 650 290C646 280 639 270 628 258C618 246 605 236 588 227C571 219 551 214 527 214C497 214 469 221 445 234C421 248 399 265 381 286C364 307 351 330 341 356C332 380 327 404 327 427C327 470 337 501 357 523C374 541 396 552 422 555C432 562 425 576 420 580C399 597 383 599 373 598Z"/>
<path id="z57d1b" d="M680 294C681 294 688 248 688 248C692 234 695 221 696 208C696 197 700 191 710 191L712 191C720 192 729 196 739 203C749 210 754 217 754 224C754 225 754 225 753 226L753 228C751 244 739 287 727 322C709 371 691 414 638 493C637 495 637 495 637 494C614 530 585 558 548 579C511 599 474 610 437 610C414 610 393 606 373 598C367 590 361 580 362 570C363 554 383 551 399 550C410 554 422 556 436 556C473 556 507 545 538 525C568 505 595 479 618 446C640 414 657 379 668 343L680 294Z"/>
<path id="z57d1c" d="M638 493C638 493 668 343 668 343L681 295C682 293 688 248 688 248C688 248 688 248 688 248C692 234 695 221 696 208C696 197 700 191 710 191L712 191C720 192 729 196 739 203C749 210 754 217 754 224C754 225 754 225 753 226L753 228C748 240 743 261 736 291C728 321 719 356 711 397C702 437 694 481 685 526C676 572 668 616 660 659C652 703 646 743 640 779C635 814 631 842 628 863C628 875 616 882 590 883L586 883C578 883 573 881 570 878C567 875 566 871 566 866C566 863 567 859 567 856C568 851 569 847 570 843C574 822 579 798 585 770C590 741 596 712 601 680C608 650 614 621 619 593C625 567 629 544 632 525C635 507 637 496 638 493Z"/>
<defs>
	<clipPath id="z57c1a"><use href="#z57d1a"/></clipPath>
	<clipPath id="z57c1b"><use href="#z57d1b"/></clipPath>
	<clipPath id="z57c1c"><use href="#z57d1c"/></clipPath>
</defs>
<path style="--d:1s;" pathLength="3333" clip-path="url(#z57c1a)" d="M663 256L580 185L486 173L404 185L345 232L321 303L310 397L310 479L345 538L380 573L404 585L427 585L486 585L533 550L568 514L592 479L639 444L663 408L686 373L710 326L716 279L716 232L710 197L692 279L674 361L663 444L645 514L633 597L627 679L621 761L610 844L598 903"/>
<path style="--d:1s;" pathLength="3333" clip-path="url(#z57c1b)" d="M427 1373L427 585L486 585L533 550L568 514L592 479L639 444L663 408L686 373L710 326L716 279L716 232L710 197L1516 197"/>
<path style="--d:1s;" pathLength="3333" clip-path="url(#z57c1c)" d="M -267 903L -267 197L710 197L692 279L674 361L663 444L645 514L633 597L627 679L621 761L610 844L598 903L598 1217"/>
</svg>