<!--
animNumber Copyright 2026- k1LoW, https://github.com/k1LoW/animNumber
Glyph outlines derived from Arphic PL KaitiM GB font.
You can redistribute and/or modify this file under the terms of the Arphic Public License
as published by Arphic Technology Co., Ltd.
You should have received a copy of this license along with this file.
If not, see https://ftp.gnu.org/non-gnu/chinese-fonts-truetype/LICENSE.
-->
<svg id="z57" class="acjk" viewBox="0 0 1024 1024" xmlns="http://www.w3.org/2000/svg">
<style>
<![CDATA[
@keyframes zk {
	to {
		stroke-dashoffset:0;
	}
}
svg.acjk path[clip-path] {
	--t:0.8s;
	animation:zk var(--t) linear forwards var(--d);
	stroke-dasharray:3337;
	stroke-dashoffset:3339;
	stroke-width:128;
	stroke-linecap:round;
	fill:none;
	stroke:#000;
}
svg.acjk path[id] {fill:#ccc;}
]]>
</style>
<path id="z57d1" d="M649 746Q718 647 718 501Q718 347 663 274Q605 198 509 197L509 196Q508 196 508 197Q504 196 503 197Q418 197 364 252Q301 319 301 405Q301 493 353 552Q407 607 493 608L493 607Q575 606 641 533Q634 666 586 736Q535 803 476 806Q445 800 426 787Q407 775 411 750Q410 716 396 700Q380 684 358 684Q340 685 327 699Q314 714 315 739Q315 772 363 802Q409 832 476 834Q588 833 649 746ZM413 272Q447 226 504 225Q565 225 605 283Q642 337 641 502Q617 527 595 545Q546 578 487 580Q444 577 412 537Q378 494 377 405Q377 321 413 272Z"/>
<defs>
	<clipPath id="z57c1"><use href="#z57d1"/></clipPath>
</defs>
<path style="--d:1s;" pathLength="3333" clip-path="url(#z57c1)" d="M640 420L620 320L560 250L500 220L430 240L380 300L360 380L380 480L430 550L500 590L570 580L630 520L650 450L650 550L620 670L570 760L510 810L440 810"/>
</svg>