<!--
animNumber 2026 Copyright k1LoW, https://github.com/k1LoW/animNumber
Derived from:
    Klee One - https://github.com/fontworks-fonts/Klee
    Copyright 2020 The Klee Project Authors
You can redistribute and/or modify this file under the terms of the SIL Open Font License, Version 1.1
as published by SIL International.
You should have received a copy of this license along with this file.
If not, see https://openfontlicense.org/.
-->
<svg id="z57" class="acjk" viewBox="0 0 1024 1024" xmlns="http://www.w3.org/2000/svg">
<style>
<![CDATA[
@keyframes zk {
	to {
		stroke-dashoffset:0;
	}
}
svg.acjk path[clip-path] {
	--t:0.8s;
	animation:zk var(--t) linear forwards var(--d);
	stroke-dasharray:3337;
	stroke-dashoffset:3339;
	stroke-width:128;
	stroke-linecap:round;
	stroke-linejoin:round;
	fill:none;
	stroke:#000;
}
svg.acjk path[id] {fill:#ccc;}
]]>
</style>
<path id="z57d1a" d="M393.985,591.093C388.168,588.795 382.506,586.097 377,583C355.667,571 338.333,553.667 325,531C312.333,508.333 306,480.667 306,448C306,420 311.667,392.333 323,365C333.667,337.667 349,313 369,291C389,269.667 412,252.667 438,240C463.333,226.667 490.667,220 520,220C548,220 572,224.667 592,234C612,243.333 627.667,253.667 639,265C650.333,277 658,286.667 662,294L662.04,293.854C663.187,298.092 664.264,303.821 664.125,310.15C663.989,316.317 659.172,326.886 654.813,333.768L655,333C650.333,337.667 646,340 642,340C636.667,340 632.333,336.333 629,329C625.667,321 619.667,312 611,302C602.333,292 591,283.333 577,276C562.333,268.667 545,265 525,265C499,265 475.667,270.667 455,282C434.333,293.333 416.333,308 401,326C386.333,344 375,363.667 367,385C359,405.667 355,426 355,446C355,482 363.333,509 380,527C394.859,543.002 413.392,552.145 435.599,554.429C444.055,560.637 438.012,572.34 433.922,575.689C416.192,590.207 402.506,591.743 393.985,591.093Z"/>
<path id="z57d1b" d="M655,333C655.333,332.667 662,294 662,294C665.333,282 667.333,270.667 668,260C668,250 672,245 680,245L682,245C688.667,245.667 696.333,249 705,255C713.667,261 718,267 718,273C718,273.667 717.667,274.333 717,275L717,277C715,290 705.242,326.432 694.33,356.592C679.403,397.848 664.449,434.531 619,502C618,503.485 617.897,503.41 618,503C598.667,533.667 574.333,557 543,575C511,592.333 479.333,601 448,601C428.786,601 410.846,597.723 394.181,591.17C388.646,584.457 383.899,575.564 384.351,567.076C385.056,553.843 402.451,550.842 416.162,550.378C425.616,553.459 435.895,555 447,555C479,555 508,546.333 534,529C560,512.333 582.667,490 602,462C620.667,434.667 635,405.333 645,374L655,333Z"/>
<path id="z57d1c" d="M619,502C619,502 645,374.333 645,374L655.576,333.74C656.809,332.052 661.782,293.604 661.782,293.604C661.856,293.737 661.928,293.869 662,294C665.333,282 667.333,270.667 668,260C668,250 672,245 680,245L682,245C688.667,245.667 696.333,249 705,255C713.667,261 718,267 718,273C718,273.667 717.667,274.333 717,275L717,277C713,287 708,304.667 702,330C695.333,355.333 688.333,385.333 681,420C673.667,454.667 666.333,491.333 659,530C651.667,568.667 644.667,606.333 638,643C631.333,680.333 625.667,714.333 621,745C616.333,775 613,798.667 611,816C611,826.667 600,832.333 578,833L575,833C568.333,833 563.667,831.667 561,829C559,826.333 558,823 558,819C558,816.333 558.333,813.333 559,810C559.667,806 560.333,802.333 561,799C564.333,781.667 568.667,761 574,737C578.667,713 583.333,687.667 588,661C593.333,635 598.333,610.333 603,587C607.667,564.333 611.333,545 614,529C616.667,513.667 618.333,504.667 619,502Z"/>
<defs>
	<clipPath id="z57c1a"><use href="#z57d1a"/></clipPath>
	<clipPath id="z57c1b"><use href="#z57d1b"/></clipPath>
	<clipPath id="z57c1c"><use href="#z57d1c"/></clipPath>
</defs>
<path style="--d:1s;" pathLength="3333" clip-path="url(#z57c1a)" d="M640 300L570 240L490 230L420 240L370 280L350 340L340 420L340 490L370 540L400 570L420 580L420 1868"/>
<path style="--d:1s;" pathLength="3333" clip-path="url(#z57c1b)" d="M440 1080L440 580L490 580L530 550L560 520L580 490L620 460L640 430L660 400L680 360L685 320L685 280L680 250L1237 250"/>
<path style="--d:1s;" pathLength="3333" clip-path="url(#z57c1c)" d="M -150 850L -150 250L680 250L665 320L650 390L640 460L625 520L615 590L610 660L605 730L595 800L585 850"/>
</svg>