<!--
animNumber Copyright 2026- k1LoW, https://github.com/k1LoW/animNumber
Glyph outlines derived and modified from Klee One Regular by Fontworks Inc.
Klee One is licensed under the SIL Open Font License, Version 1.1.
See https://openfontlicense.org/ for the license text.
-->
<svg id="z57" class="acjk" viewBox="0 0 1024 1024" xmlns="http://www.w3.org/2000/svg">
<style>
<![CDATA[
@keyframes zk {
	to {
		stroke-dashoffset:0;
	}
}
svg.acjk path[clip-path] {
	--t:0.8s;
	animation:zk var(--t) linear forwards var(--d);
	stroke-dasharray:3337;
	stroke-dashoffset:3339;
	stroke-width:128;
	stroke-linecap:round;
	stroke-linejoin:round;
	fill:none;
	stroke:#000;
}
svg.acjk path[id] {fill:#ccc;}
]]>
</style>
<path id="z57d1" d="M575 833L578 833Q611 832 611 816Q614 790 621 745Q628 699 638 643Q648 588 659 530Q670 472 681 420Q692 368 702 330Q711 292 717 277Q717 276 717 275Q718 274 718 273Q718 264 705 255Q692 246 682 245L680 245Q668 245 668 260Q667 276 662 294Q656 283 639 265Q622 248 592 234Q562 220 520 220Q476 220 438 240Q399 259 369 291Q339 324 323 365Q306 406 306 448Q306 497 325 531Q345 565 377 583Q409 601 448 601Q495 601 543 575Q590 548 619 502Q618 506 614 529Q610 553 603 587Q596 622 588 661Q581 701 574 737Q566 773 561 799Q560 804 559 810Q558 815 558 819Q558 825 561 829Q565 833 575 833ZM655 333L645 374Q630 421 602 462Q573 504 534 529Q495 555 447 555Q406 555 380 527Q355 500 355 446Q355 416 367 385Q379 353 401 326Q424 299 455 282Q486 265 525 265Q555 265 577 276Q598 287 611 302Q624 317 629 329Q634 340 642 340Q648 340 655 333Z"/>
<defs>
	<clipPath id="z57c1"><use href="#z57d1"/></clipPath>
</defs>
<path style="--d:1s;" pathLength="3333" clip-path="url(#z57c1)" d="M650 400L630 320L580 260L510 240L440 260L380 320L350 400L370 490L430 540L510 550L580 520L630 470L650 420L640 510L620 620L600 720L580 820"/>
</svg>