<!--
animNumber 2026 Copyright k1LoW, https://github.com/k1LoW/animNumber
Derived from:
    Klee One - https://github.com/fontworks-fonts/Klee
    Copyright 2020 The Klee Project Authors
You can redistribute and/or modify this file under the terms of the SIL Open Font License, Version 1.1
as published by SIL International.
You should have received a copy of this license along with this file.
If not, see https://openfontlicense.org/.
-->
<svg id="z65298" class="acjk" viewBox="0 0 1024 1024" xmlns="http://www.w3.org/2000/svg">
<style>
<![CDATA[
@keyframes zk {
	to {
		stroke-dashoffset:0;
	}
}
svg.acjk path[clip-path] {
	--t:0.8s;
	animation:zk var(--t) linear forwards var(--d);
	stroke-dasharray:3337;
	stroke-dashoffset:3339;
	stroke-width:128;
	stroke-linecap:round;
	stroke-linejoin:round;
	fill:none;
	stroke:#000;
}
svg.acjk path[id] {fill:#ccc;}
]]>
</style>
<path id="z65298d1" d="M291 874L296 874Q321 870 340 868Q359 866 379 865Q399 864 426 864Q454 863 498 863Q544 863 588 863Q633 863 667 865Q697 866 723 868Q750 871 759 871Q774 871 774 856Q774 841 764 826Q752 810 739 810Q727 810 705 811Q683 812 667 812Q633 812 591 811Q547 810 505 810Q485 810 451 811Q417 811 383 812Q348 814 326 816Q368 754 432 692Q494 628 579 568Q661 507 710 450Q758 393 758 325Q758 250 704 205Q650 161 545 161Q454 161 397 193Q339 225 299 284Q292 293 292 303Q292 319 305 331Q318 343 327 343Q337 343 343 336Q348 327 352 320Q379 267 425 240Q471 214 544 214Q620 214 658 245Q696 276 696 325Q696 379 652 425Q607 472 534 527Q474 571 425 619Q374 666 337 708Q299 752 278 785Q273 792 266 799Q259 805 252 816Q250 819 250 827Q250 841 261 858Q272 874 291 874Z"/>
<defs>
	<clipPath id="z65298c1"><use href="#z65298d1"/></clipPath>
</defs>
<path style="--d:1s;" pathLength="3333" clip-path="url(#z65298c1)" d="M316 279L380 220L458 185L548 185L625 220L677 279L690 338L664 408L587 491L484 585L380 691L303 785L265 844L406 856L574 856L754 844"/>
</svg>