<!--
animNumber 2026 Copyright k1LoW, https://github.com/k1LoW/animNumber
Derived from:
    Klee One - https://github.com/fontworks-fonts/Klee
    Copyright 2020 The Klee Project Authors
You can redistribute and/or modify this file under the terms of the SIL Open Font License, Version 1.1
as published by SIL International.
You should have received a copy of this license along with this file.
If not, see https://openfontlicense.org/.
-->
<svg id="z65296" class="acjk" viewBox="0 0 1024 1024" xmlns="http://www.w3.org/2000/svg">
<style>
<![CDATA[
@keyframes zk {
	to {
		stroke-dashoffset:0;
	}
}
svg.acjk path[clip-path] {
	--t:0.8s;
	animation:zk var(--t) linear forwards var(--d);
	stroke-dasharray:3337;
	stroke-dashoffset:3339;
	stroke-width:128;
	stroke-linecap:round;
	stroke-linejoin:round;
	fill:none;
	stroke:#000;
}
svg.acjk path[id] {fill:#ccc;}
]]>
</style>
<path id="z65296d1a" d="M518.928,837.909C516.638,837.97 514.328,838 512,838C458.667,838 416,824.667 384,798C352,772 329.333,736.333 316,691C302.667,645.667 296,594.667 296,538C296,500 299.667,465 307,433C315,400.333 324.333,371.333 335,346C346.333,320.667 357.333,301 368,287C378.667,273 387,266 393,266C400.333,266 405.667,268.667 409,274C411.348,277.757 410.923,286.967 408.789,296.026C406.735,304.741 403.779,308.192 401.361,322.77C398.679,338.94 395.159,346.412 384.982,365.881C377.114,380.935 370.119,397.642 364,416C352.667,450 347,490 347,536C347,585.333 351.667,629.333 361,668C371,706.667 387.667,737 411,759C430.793,778.227 457.301,789.3 490.525,792.217C515.108,799.78 541.868,837.299 518.928,837.909Z"/>
<path id="z65296d1b" d="M413.53,268.989C425.911,255.815 440.401,244.485 457,235C475,225 497.333,220 524,220C570,220 608,232.333 638,257C668,282.333 690.667,317.667 706,363C720.667,408.333 728,461.667 728,523C728,583.667 720.333,637.667 705,685C689.667,732.333 666,769.667 634,797C603.51,823.043 565.153,836.679 518.928,837.909C492.345,835.457 476.108,810.78 490.525,792.217C496.469,792.739 502.627,793 509,793C547.667,793 579.333,781.333 604,758C628.667,735.333 647,703.333 659,662C671,620.667 677,572.667 677,518C677,472 672,429.667 662,391C651.333,353 634.667,322.333 612,299C589.333,276.333 559,265 521,265C503.667,265 484.667,270.333 464,281C443.333,292.333 424.333,309 407,331C399.026,341.428 391.687,353.055 384.982,365.881C377.298,361.996 375.679,353.94 378.361,337.77C383.597,306.197 392.253,291.63 413.53,268.989Z"/>
<defs>
	<clipPath id="z65296c1a"><use href="#z65296d1a"/></clipPath>
	<clipPath id="z65296c1b"><use href="#z65296d1b"/></clipPath>
</defs>
<path style="--d:1s;" pathLength="3333" clip-path="url(#z65296c1a)" d="M403 270L363 320L340 400L329 520L352 630L397 720L465 790L510 815L589 790L634 730L668 650L679 520L668 400L634 300L589 240L512 220L442 230L403 270L391 345"/>
<path style="--d:1s;" pathLength="3333" clip-path="url(#z65296c1b)" d="M -235 815L510 815L589 790L634 730L668 650L679 520L668 400L634 300L589 240L512 220L442 230L414 275L391 345"/>
</svg>