<!--
animNumber 2026 Copyright k1LoW, https://github.com/k1LoW/animNumber
Derived from:
    Klee One - https://github.com/fontworks-fonts/Klee
    Copyright 2020 The Klee Project Authors
You can redistribute and/or modify this file under the terms of the SIL Open Font License, Version 1.1
as published by SIL International.
You should have received a copy of this license along with this file.
If not, see https://openfontlicense.org/.
-->
<svg id="z65296" class="acjk" viewBox="0 0 1024 1024" xmlns="http://www.w3.org/2000/svg">
<style>
<![CDATA[
@keyframes zk {
	to {
		stroke-dashoffset:0;
	}
}
svg.acjk path[clip-path] {
	--t:0.8s;
	animation:zk var(--t) linear forwards var(--d);
	stroke-dasharray:3337;
	stroke-dashoffset:3339;
	stroke-width:128;
	stroke-linecap:round;
	stroke-linejoin:round;
	fill:none;
	stroke:#000;
}
svg.acjk path[id] {fill:#ccc;}
]]>
</style>
<path id="z65296d1a" d="M520 888C517 888 515 888 512 888C449 888 399 873 361 841C324 811 297 769 281 716C266 662 258 602 258 536C258 491 262 450 271 412C280 374 291 339 304 310C317 280 330 257 343 240C355 224 365 216 372 216C381 216 387 219 391 225C394 229 393 240 391 251C388 261 385 265 382 282C379 301 375 310 363 333C353 351 345 370 338 392C325 432 318 479 318 533C318 591 323 643 334 688C346 734 366 770 393 796C416 818 448 831 487 835C516 844 547 888 520 888Z"/>
<path id="z65296d1b" d="M396 219C411 204 428 190 447 179C468 167 495 161 526 161C580 161 625 176 660 205C696 235 722 276 740 330C757 383 766 446 766 518C766 589 757 653 739 708C721 764 693 808 656 840C620 871 575 887 520 888C489 885 470 856 487 835C494 835 501 836 508 836C554 836 591 822 620 794C649 768 671 730 685 681C699 633 706 576 706 512C706 458 700 408 688 363C676 318 656 282 630 254C603 228 567 214 523 214C502 214 480 221 456 233C431 247 409 266 388 292C379 304 370 318 363 333C354 328 352 319 355 300C361 263 371 246 396 219Z"/>
<defs>
	<clipPath id="z65296c1a"><use href="#z65296d1a"/></clipPath>
	<clipPath id="z65296c1b"><use href="#z65296d1b"/></clipPath>
</defs>
<path style="--d:1s;" pathLength="3333" clip-path="url(#z65296c1a)" d="M384 220L337 279L310 373L297 514L324 644L377 750L457 832L510 861L603 832L656 761L696 667L708 514L696 373L656 256L603 185L512 161L430 173L384 220L370 308"/>
<path style="--d:1s;" pathLength="3333" clip-path="url(#z65296c1b)" d="M -286 861L510 861L603 832L656 761L696 667L708 514L696 373L656 256L603 185L512 161L430 173L397 226L370 308"/>
</svg>