<!--
animNumber 2026 Copyright k1LoW, https://github.com/k1LoW/animNumber
Derived from:
    Klee One - https://github.com/fontworks-fonts/Klee
    Copyright 2020 The Klee Project Authors
You can redistribute and/or modify this file under the terms of the SIL Open Font License, Version 1.1
as published by SIL International.
You should have received a copy of this license along with this file.
If not, see https://openfontlicense.org/.
-->
<svg id="z65299" class="acjk" viewBox="0 0 1024 1024" xmlns="http://www.w3.org/2000/svg">
<style>
<![CDATA[
@keyframes zk {
	to {
		stroke-dashoffset:0;
	}
}
svg.acjk path[clip-path] {
	--t:0.8s;
	animation:zk var(--t) linear forwards var(--d);
	stroke-dasharray:3337;
	stroke-dashoffset:3339;
	stroke-width:128;
	stroke-linecap:round;
	stroke-linejoin:round;
	fill:none;
	stroke:#000;
}
svg.acjk path[id] {fill:#ccc;}
]]>
</style>
<path id="z65299d1a" d="M563,489C501.487,501.776 481.674,523.769 468.645,527.926C465.183,529.031 462.547,529.642 455,532C453.667,532.667 451.667,533 449,533C441,533 434,529 428,521C422.667,513.667 420,506 420,498C420,490.667 423.333,486.667 430,486L460,481C476,479 495,475.333 517,470C539,464 560.333,456.333 581,447C602.333,437 620,424.667 634,410C647.333,394.667 654,376.667 654,356C654,294.667 612.667,264 530,264C495.333,264 466.333,269.333 443,280C419.667,290.667 395.333,308.667 370,334C368,335.333 365.333,338 362,342C358.667,345.333 354.667,347 350,347C348,347 343.667,345 337,341C331,336.333 326.667,329 324,319L324,315C324,310.333 324.667,306.333 326,303L332,295C358.667,271 387.333,252.333 418,239C448.667,226.333 485.667,220 529,220C585,220 628,231 658,253C688.667,275.667 704,308 704,350C704,386 691,416.333 665,441C639,465 605,481 563,489Z"/>
<path id="z65299d1b" d="M481.645,525.926C469.725,527.899 436.487,499.636 563,487.86L563,492L574,492C601.333,492 627.333,497.667 652,509C676,520.333 695.667,537 711,559C725.667,581 733,608.333 733,641C733,677.667 724.667,711 708,741C691.333,771 665,794.667 629,812C592.333,829.333 545.333,838 488,838C442.667,838 405.333,831 376,817C346,803.667 319.333,784.333 296,759C292.667,755 291,749.667 291,743C291,734.333 293.667,725.333 299,716C305,706.667 310.667,702 316,702C320,702 323.667,704.333 327,709C343.667,735.667 365,756.333 391,771C417.667,785.667 450,793 488,793C532,793 568.333,786 597,772C626.333,758.667 648,740.667 662,718C676,695.333 683,670 683,642C683,603.333 669,573.667 641,553C613,531.667 577.667,521 535,521C524.333,521 511,522 495,524C490.32,524.585 485.869,525.227 481.645,525.926Z"/>
<defs>
	<clipPath id="z65299c1a"><use href="#z65299d1a"/></clipPath>
	<clipPath id="z65299c1b"><use href="#z65299d1b"/></clipPath>
</defs>
<path style="--d:1s;" pathLength="3333" clip-path="url(#z65299c1a)" d="M335 305L367 290L422 250L521 250L598 270L653 300L664 360L664 430L631 470L576 490L477 490L554 510L631 540L686 590L697 660L675 730L620 790L521 810L422 800L356 760L323 730"/>
<path style="--d:1s;" pathLength="3333" clip-path="url(#z65299c1b)" d="M477 -249L477 490L554 510L631 540L686 590L697 660L675 730L620 790L521 810L422 800L356 760L323 730L -101 730"/>
</svg>