<!--
animNumber 2026 Copyright k1LoW, https://github.com/k1LoW/animNumber
Derived from:
    Klee One - https://github.com/fontworks-fonts/Klee
    Copyright 2020 The Klee Project Authors
You can redistribute and/or modify this file under the terms of the SIL Open Font License, Version 1.1
as published by SIL International.
You should have received a copy of this license along with this file.
If not, see https://openfontlicense.org/.
-->
<svg id="z65299" class="acjk" viewBox="0 0 1024 1024" xmlns="http://www.w3.org/2000/svg">
<style>
<![CDATA[
@keyframes zk {
	to {
		stroke-dashoffset:0;
	}
}
svg.acjk path[clip-path] {
	--t:0.8s;
	animation:zk var(--t) linear forwards var(--d);
	stroke-dasharray:3337;
	stroke-dashoffset:3339;
	stroke-width:128;
	stroke-linecap:round;
	stroke-linejoin:round;
	fill:none;
	stroke:#000;
}
svg.acjk path[id] {fill:#ccc;}
]]>
</style>
<path id="z65299d1a" d="M572 478C500 493 476 519 461 524C457 525 454 526 445 528C443 529 441 530 438 530C428 530 420 525 413 516C407 507 404 498 404 488C404 480 408 475 416 474L451 468C470 466 492 462 518 456C544 448 569 439 593 428C618 417 639 402 656 385C671 367 679 346 679 321C679 249 630 213 533 213C492 213 458 219 431 232C403 245 375 266 345 296C343 297 339 300 336 305C332 309 327 311 321 311C319 311 314 308 306 304C299 298 294 290 291 278L291 273C291 268 292 263 293 259L300 250C332 221 365 199 401 184C437 169 481 161 532 161C598 161 648 174 684 200C720 227 738 265 738 314C738 357 723 392 692 421C661 450 621 468 572 478Z"/>
<path id="z65299d1b" d="M476 521C468 523 417 539 406 500C403 488 514 482 572 477L572 481L585 481C617 481 648 488 677 501C705 515 728 534 746 560C763 586 772 618 772 657C772 700 762 739 743 774C723 810 692 837 650 858C607 878 551 888 484 888C430 888 387 880 352 864C317 848 285 825 258 796C254 791 252 785 252 777C252 767 255 756 261 745C268 734 275 728 281 728C286 728 290 731 294 737C314 768 339 792 370 810C401 827 439 836 484 836C536 836 578 827 612 811C647 795 672 774 688 747C705 721 713 691 713 658C713 612 697 577 664 553C631 528 589 516 539 516C527 516 511 517 492 519C486 520 481 521 476 521Z"/>
<defs>
	<clipPath id="z65299c1a"><use href="#z65299d1a"/></clipPath>
	<clipPath id="z65299c1b"><use href="#z65299d1b"/></clipPath>
</defs>
<path style="--d:1s;" pathLength="3333" clip-path="url(#z65299c1a)" d="M292 267L341 244L406 197L523 197L613 220L678 256L691 326L691 408L652 456L587 479L471 479L447 527L406 499L561 503L652 538L717 597L730 679L704 761L639 832L523 856L406 844L328 797L290 761"/>
<path style="--d:1s;" pathLength="3333" clip-path="url(#z65299c1b)" d="M471 -390L471 479L447 527L406 499L561 503L652 538L717 597L730 679L704 761L639 832L523 856L406 844L328 797L290 761L -209 761"/>
</svg>