<!--
animNumber 2026 Copyright k1LoW, https://github.com/k1LoW/animNumber
Derived from:
    Klee One - https://github.com/fontworks-fonts/Klee
    Copyright 2020 The Klee Project Authors
You can redistribute and/or modify this file under the terms of the SIL Open Font License, Version 1.1
as published by SIL International.
You should have received a copy of this license along with this file.
If not, see https://openfontlicense.org/.
-->
<svg id="z65301" class="acjk" viewBox="0 0 1024 1024" xmlns="http://www.w3.org/2000/svg">
<style>
<![CDATA[
@keyframes zk {
	to {
		stroke-dashoffset:0;
	}
}
svg.acjk path[clip-path] {
	--t:0.8s;
	animation:zk var(--t) linear forwards var(--d);
	stroke-dasharray:3337;
	stroke-dashoffset:3339;
	stroke-width:128;
	stroke-linecap:round;
	stroke-linejoin:round;
	fill:none;
	stroke:#000;
}
svg.acjk path[id] {fill:#ccc;}
]]>
</style>
<path id="z65301d1" d="M706 170L704 170C694 171 682 172 670 173C657 175 644 176 630 177L398 193C390 194 383 194 376 192C367 190 379 246 391 246C392 246 639 230 639 230C656 229 673 228 688 228C703 228 716 228 726 227C735 227 739 223 739 213C739 205 736 195 728 185C721 175 714 170 706 170Z"/>
<path id="z65301d2" d="M391 246C394 229 410 197 398 193C391 191 383 187 376 185C367 183 360 181 354 181C344 181 339 185 339 192L339 212C339 220 338 228 337 236L296 478L284 513C283 515 283 517 283 521C283 534 287 545 297 553C306 563 315 567 323 567C327 567 330 566 332 563C348 546 364 532 379 520C394 508 413 499 436 493C458 487 489 484 527 484C581 484 625 498 659 526C694 554 712 595 712 648C712 703 694 747 657 781C620 816 564 833 488 833C447 833 411 825 380 810C350 795 323 770 297 734C291 727 286 723 281 723C274 723 267 728 261 738C256 748 253 758 253 768C253 779 256 787 261 792C297 827 332 851 366 866C401 881 441 888 488 888C553 888 606 877 647 856C689 834 720 806 740 770C761 734 771 693 771 647C771 599 760 560 738 528C715 497 686 473 651 457C615 440 576 432 536 432C491 432 454 436 426 445C398 453 372 467 348 487C348 487 383 295 391 246Z"/>
<defs>
	<clipPath id="z65301c1"><use href="#z65301d1"/></clipPath>
	<clipPath id="z65301c2"><use href="#z65301d2"/></clipPath>
</defs>
<path style="--d:1s;" pathLength="3333" clip-path="url(#z65301c1)" d="M398 208L523 208L716 208"/>
<path style="--d:2s;" pathLength="3333" clip-path="url(#z65301c2)" d="M353 185L340 279L327 397L314 444L314 514L353 503L405 491L484 467L574 479L652 514L704 585L704 691L652 773L561 832L445 844L340 808L263 761"/>
</svg>