<!--
animNumber 2026 Copyright k1LoW, https://github.com/k1LoW/animNumber
Derived from:
    Klee One - https://github.com/fontworks-fonts/Klee
    Copyright 2020 The Klee Project Authors
You can redistribute and/or modify this file under the terms of the SIL Open Font License, Version 1.1
as published by SIL International.
You should have received a copy of this license along with this file.
If not, see https://openfontlicense.org/.
-->
<svg id="z65300" class="acjk" viewBox="0 0 1024 1024" xmlns="http://www.w3.org/2000/svg">
<style>
<![CDATA[
@keyframes zk {
	to {
		stroke-dashoffset:0;
	}
}
svg.acjk path[clip-path] {
	--t:0.8s;
	animation:zk var(--t) linear forwards var(--d);
	stroke-dasharray:3337;
	stroke-dashoffset:3339;
	stroke-width:128;
	stroke-linecap:round;
	stroke-linejoin:round;
	fill:none;
	stroke:#000;
}
svg.acjk path[id] {fill:#ccc;}
]]>
</style>
<path id="z65300d1" d="M653 710L684 708C705 708 725 709 745 710C764 710 777 711 784 711C792 711 796 707 796 698C796 689 792 679 785 668C779 658 771 653 761 653C754 653 743 654 728 656C714 657 698 658 683 659L668 659C664 660 659 660 653 660L597 663C562 664 527 666 492 667C457 668 425 669 396 671C366 672 342 672 325 673C307 674 298 674 298 674C321 644 345 611 370 576C395 540 419 505 444 470C469 434 492 399 514 367C537 334 557 305 574 279C580 271 585 263 591 253C597 245 605 234 613 223C616 220 617 216 617 211C617 201 612 190 601 179C592 167 583 161 576 161C571 161 568 164 566 168C558 188 545 213 527 243C510 272 490 305 467 339C445 373 422 407 398 443C374 478 351 511 328 541C307 572 288 598 272 620C256 643 244 659 237 667C231 674 228 681 228 688C228 699 234 708 245 718C255 727 265 731 276 731C279 731 282 730 283 730C291 728 299 727 306 725C314 724 320 724 324 724C324 724 332 723 350 723C367 722 388 721 413 720C439 719 465 717 492 717C519 716 542 715 561 714C580 714 592 713 596 713L597 713L653 710Z"/>
<path id="z65300d2" d="M653 710C653 710 653 665 653 660L653 424C654 412 654 401 654 390C655 379 656 370 656 365C656 356 650 350 639 345C629 339 619 337 610 337C599 337 594 340 594 347L594 380C595 394 596 408 596 423C596 437 597 447 597 454L597 663C596 663 597 713 597 713L597 792C596 804 596 816 596 828L596 856C596 864 601 871 611 876C622 880 632 883 640 883C651 883 657 879 657 873C657 861 656 847 656 828C655 810 654 790 653 768L653 710Z"/>
<defs>
	<clipPath id="z65300c1"><use href="#z65300d1"/></clipPath>
	<clipPath id="z65300c2"><use href="#z65300d2"/></clipPath>
</defs>
<path style="--d:1s;" pathLength="3333" clip-path="url(#z65300c1)" d="M606 185L406 491L252 691L497 691L780 679"/>
<path style="--d:2s;" pathLength="3333" clip-path="url(#z65300c2)" d="M625 173L625 867"/>
</svg>