<!--
animNumber 2026 Copyright k1LoW, https://github.com/k1LoW/animNumber
Derived from:
    Klee One - https://github.com/fontworks-fonts/Klee
    Copyright 2020 The Klee Project Authors
You can redistribute and/or modify this file under the terms of the SIL Open Font License, Version 1.1
as published by SIL International.
You should have received a copy of this license along with this file.
If not, see https://openfontlicense.org/.
-->
<svg id="z65303" class="acjk" viewBox="0 0 1024 1024" xmlns="http://www.w3.org/2000/svg">
<style>
<![CDATA[
@keyframes zk {
	to {
		stroke-dashoffset:0;
	}
}
svg.acjk path[clip-path] {
	--t:0.8s;
	animation:zk var(--t) linear forwards var(--d);
	stroke-dasharray:3337;
	stroke-dashoffset:3339;
	stroke-width:128;
	stroke-linecap:round;
	stroke-linejoin:round;
	fill:none;
	stroke:#000;
}
svg.acjk path[id] {fill:#ccc;}
]]>
</style>
<path id="z65303d1" d="M316 281C316 281 317 263 317 252C317 241 317 237 317 232C317 223 314 214 304 210C293 204 287 201 278 201C266 201 260 203 260 210C260 217 261 228 261 243C262 257 264 280 264 280C264 285 265 293 264 305C264 317 263 329 263 341L263 368C263 377 267 384 278 388C288 393 293 396 303 396C314 396 319 392 319 386C319 374 319 359 318 341C317 323 316 303 316 281Z"/>
<path id="z65303d2" d="M354 256L687 227C636 313 590 400 547 488C505 577 464 669 424 764C412 791 403 811 398 824C392 836 388 845 387 850C386 854 385 858 385 861C385 871 390 877 401 879C412 881 421 881 428 881C446 881 455 877 457 867C461 850 466 834 471 820C475 805 479 793 483 783C505 726 530 668 558 608C585 548 613 488 643 430C672 372 702 316 732 263C735 258 740 251 747 241C754 233 758 225 760 218L760 216C761 216 761 215 761 214C761 206 756 197 745 187C735 178 724 173 712 172L708 172C704 172 699 173 694 174C690 176 681 177 666 179L331 201C328 201 325 202 321 203L312 203C303 203 296 202 288 201L268 201C265 201 263 203 263 207C263 209 265 214 268 223C273 231 279 239 287 247C296 255 306 259 318 259C324 259 330 259 336 258C342 256 348 256 354 256Z"/>
<defs>
	<clipPath id="z65303c1"><use href="#z65303d1"/></clipPath>
	<clipPath id="z65303c2"><use href="#z65303d2"/></clipPath>
</defs>
<path style="--d:1s;" pathLength="3333" clip-path="url(#z65303c1)" d="M283 203L297 303L310 397"/>
<path style="--d:2s;" pathLength="3333" clip-path="url(#z65303c2)" d="M360 238L523 226L705 226L600 432L497 632L418 808L392 867"/>
</svg>