<!--
animNumber 2026 Copyright k1LoW, https://github.com/k1LoW/animNumber
Derived from:
    Klee One - https://github.com/fontworks-fonts/Klee
    Copyright 2020 The Klee Project Authors
You can redistribute and/or modify this file under the terms of the SIL Open Font License, Version 1.1
as published by SIL International.
You should have received a copy of this license along with this file.
If not, see https://openfontlicense.org/.
-->
<svg id="z65304" class="acjk" viewBox="0 0 1024 1024" xmlns="http://www.w3.org/2000/svg">
<style>
<![CDATA[
@keyframes zk {
	to {
		stroke-dashoffset:0;
	}
}
svg.acjk path[clip-path] {
	--t:0.8s;
	animation:zk var(--t) linear forwards var(--d);
	stroke-dasharray:3337;
	stroke-dashoffset:3339;
	stroke-width:128;
	stroke-linecap:round;
	stroke-linejoin:round;
	fill:none;
	stroke:#000;
}
svg.acjk path[id] {fill:#ccc;}
]]>
</style>
<path id="z65304d1a" d="M479,508L430,488C400,475.333 374.333,459 353,439C332.333,419.667 322,392 322,356C322,318 337.667,285.667 369,259C400.333,233 445.333,220 504,220C534.667,220 561.333,224 584,232C607.333,239.333 626.667,248.667 642,260C657.333,271.333 668.667,282 676,292C684,302 688,308.667 688,312C688,318 686.333,323.333 683,328C683,328 675.697,337.067 668.527,341.749C666.225,343.252 662.781,343.858 664,343L661,343C654.333,343 648.667,339.667 644,333C630.667,311 611.333,293.667 586,281C560,268.333 532.333,262 503,262C462.333,262 430.333,271 407,289C383,307.667 371,330.333 371,357C371,384.333 381.333,405.333 402,420C422,434.667 447.333,447.667 478,459L530,479C554.667,487.667 579,497 603,507C627,516.333 648.667,528 668,542C688,556 704,573 716,593C727.333,613 733,637.667 733,667C733,721.667 712.333,763.667 671,793C630.236,822.117 574.4,837.104 503.492,837.961C487.28,838.157 489.173,824.965 489.211,822.566C489.362,813.03 493.375,793.315 509.596,792.804C540.508,791.832 568.309,787.23 593,779C621,769 643,755 659,737C675,718.333 683,696 683,670C683,646 677,625.667 665,609C653.667,591.667 638,577.333 618,566C598.667,554.667 577,544.333 553,535C529,525.667 504.333,516.667 479,508Z"/>
<path id="z65304d1b" d="M520.188,837.486C512.641,837.829 504.912,838 497,838C433.667,838 383.333,823 346,793C309.333,763.667 291,725.333 291,678C291,639.333 303.333,604 328,572C353.333,540.667 387.333,512.667 430,488L478,459C494.667,451 514,440.333 536,427C558,414.333 580.333,400.333 603,385C625.667,369.667 646,355.667 664,343L661,343C660.625,343 685.468,324.545 683,328L691,322C697,316.667 702.667,314 708,314C718.667,314 724,319.333 724,330C724,336.667 721,343 715,349C698.333,365 678.333,381.333 655,398C631.667,415.333 608.667,431 586,445C563.333,459 544.667,470.333 530,479L479,508C435,534 401,561 377,589C353,617 341,645.667 341,675C341,695.667 347,715 359,733C370.333,750.333 388,764.667 412,776C435.333,787.333 463.667,793 497,793C504.696,793 512.209,792.787 519.539,792.36C534.87,791.468 540.932,803.582 543.347,814.863C545.325,824.102 533.483,836.881 520.188,837.486Z"/>
<defs>
	<clipPath id="z65304c1a"><use href="#z65304d1a"/></clipPath>
	<clipPath id="z65304c1b"><use href="#z65304d1b"/></clipPath>
</defs>
<path style="--d:1s;" pathLength="3333" clip-path="url(#z65304c1a)" d="M653 280L620 250L510 250L421 250L388 280L355 340L344 400L366 450L410 480L488 500L554 510L631 540L675 600L697 670L675 740L620 790L488 820L433 820L366 790L333 730L322 670L322 610L344 550L399 520L455 490L532 470L587 440L631 410L675 390L697 360L703 330"/>
<path style="--d:1s;" pathLength="3333" clip-path="url(#z65304c1b)" d="M -9 1100L -9 1320L168 1320L488 1320L488 820L433 820L366 790L333 730L322 670L322 610L344 550L399 520L455 490L532 470L587 440L631 410L675 390L697 360L703 330"/>
</svg>