<!--
animNumber 2026 Copyright k1LoW, https://github.com/k1LoW/animNumber
Derived from:
    Klee One - https://github.com/fontworks-fonts/Klee
    Copyright 2020 The Klee Project Authors
You can redistribute and/or modify this file under the terms of the SIL Open Font License, Version 1.1
as published by SIL International.
You should have received a copy of this license along with this file.
If not, see https://openfontlicense.org/.
-->
<svg id="z65305" class="acjk" viewBox="0 0 1024 1024" xmlns="http://www.w3.org/2000/svg">
<style>
<![CDATA[
@keyframes zk {
	to {
		stroke-dashoffset:0;
	}
}
svg.acjk path[clip-path] {
	--t:0.8s;
	animation:zk var(--t) linear forwards var(--d);
	stroke-dasharray:3337;
	stroke-dashoffset:3339;
	stroke-width:128;
	stroke-linecap:round;
	stroke-linejoin:round;
	fill:none;
	stroke:#000;
}
svg.acjk path[id] {fill:#ccc;}
]]>
</style>
<path id="z65305d1a" d="M447.883,601C419.926,600.983 393.632,594.983 369,583C345,571 325.667,553.667 311,531C296.333,508.333 289,480.667 289,448C289,420 295,392.333 307,365C319,337.667 335.333,313 356,291C377.333,269.667 402,252.667 430,240C458,226.667 488,220 520,220C550.667,220 577.333,224.667 600,234C622.667,243.333 640.667,253.667 654,265C667.333,277 675.667,286.667 679,294C680.267,296.788 686.587,308.627 686.855,316.417C687.344,330.592 684.767,332.684 681.618,337.554C678.718,342.038 670,341 666,341C660.667,341 649.02,336.248 646,329C642.667,321 635.667,312 625,302C614.333,292 600.333,283.333 583,276C566.333,268.667 547,265 525,265C496.333,265 470.667,270.667 448,282C424.667,293.333 405,308 389,326C372.333,344 359.667,363.667 351,385C342.333,405.667 338,426 338,446C338,482 348.333,509 369,527C390.333,545.667 416.333,555 447,555C447.814,555 448.626,554.996 449.436,554.987C462.642,554.85 469.59,568.985 469.884,576.594C470.448,591.141 458.839,601.007 447.883,601Z"/>
<path id="z65305d1b" d="M672,333C671.333,332.667 679,295 679,295C679.219,294.212 679.432,292.426 679.64,291.644C682.59,280.514 684.377,269.966 685,260C685,250 689,245 697,245L699,245C705.667,245.667 713.333,249 722,255C730.667,261 735,267 735,273C735,273.667 734.667,276.333 734,277C730,287 726,296.667 720,322C715.249,340.054 707.329,365.477 698.239,390.271C681.147,422.466 660.772,463.653 648.267,484.844C644.811,490.7 635.75,503.001 636,502C623.333,522 606.667,539.667 586,555C564.667,570.333 542,581.667 518,589C494,597 470.667,601 448,601C446.63,601 445.264,600.986 443.902,600.957C437.226,600.816 429.837,598.392 424.393,589.85C422.55,586.959 415.985,552.319 430.5,554.047C435.841,554.682 441.341,555 447,555C481.667,555 513,547.333 541,532C569,516.667 593.333,495 614,467C634.667,439.667 650.667,408.667 662,374L672,333Z"/>
<path id="z65305d1c" d="M672,330C674.333,319.667 677.409,304.326 679,294C680.896,281.691 684.333,270.667 685,260C685,250 689,245 697,245L699,245C705.667,245.667 713.333,249 722,255C730.667,261 735,267 735,273C735,273.667 734.667,274.333 734,275L734,277C730,287 725,304.667 719,330C712.333,355.333 705.333,385.333 698,420C690.667,454.667 683.333,491.333 676,530C668.667,568.667 661.667,606.333 655,643C648.333,680.333 642.667,714.333 638,745C633.333,775 630,798.667 628,816C628,826.667 617,832.333 595,833L592,833C585.333,833 580.667,831.667 578,829C576,826.333 575,823 575,819C575,816.333 575.333,813.333 576,810C576.667,806 577.333,802.333 578,799C581.333,781.667 585.667,761 591,737C595.667,713 600.667,687.667 606,661C610.667,635 615.333,610.333 620,587C624.667,564.333 628.333,545 631,529C633.667,513.667 635.333,504.667 636,502C642.483,476.068 656.65,405.541 662,374L672,330Z"/>
<defs>
	<clipPath id="z65305c1a"><use href="#z65305d1a"/></clipPath>
	<clipPath id="z65305c1b"><use href="#z65305d1b"/></clipPath>
	<clipPath id="z65305c1c"><use href="#z65305d1c"/></clipPath>
</defs>
<path style="--d:1s;" pathLength="3333" clip-path="url(#z65305c1a)" d="M651 300L575 240L488 230L412 240L358 280L337 340L326 420L326 490L358 540L391 570L412 580L434 580L488 580L531 550L564 520L586 490L629 460L651 430L672 400L694 360L699 320L699 280L694 250L678 320L661 390L651 460L634 520L624 590L618 660L613 730L602 800L591 850"/>
<path style="--d:1s;" pathLength="3333" clip-path="url(#z65305c1b)" d="M434 1330L434 580L488 580L531 550L564 520L586 490L629 460L651 430L672 400L694 360L699 320L699 280L694 250L1329 250"/>
<path style="--d:1s;" pathLength="3333" clip-path="url(#z65305c1c)" d="M -205 850L -205 250L694 250L678 320L661 390L651 460L634 520L624 590L618 660L613 730L602 800L591 850L591 1026"/>
</svg>