<!--
animNumber 2026 Copyright k1LoW, https://github.com/k1LoW/animNumber
Derived from:
    Klee One - https://github.com/fontworks-fonts/Klee
    Copyright 2020 The Klee Project Authors
You can redistribute and/or modify this file under the terms of the SIL Open Font License, Version 1.1
as published by SIL International.
You should have received a copy of this license along with this file.
If not, see https://openfontlicense.org/.
-->
<svg id="z65302" class="acjk" viewBox="0 0 1024 1024" xmlns="http://www.w3.org/2000/svg">
<style>
<![CDATA[
@keyframes zk {
	to {
		stroke-dashoffset:0;
	}
}
svg.acjk path[clip-path] {
	--t:0.8s;
	animation:zk var(--t) linear forwards var(--d);
	stroke-dasharray:3337;
	stroke-dashoffset:3339;
	stroke-width:128;
	stroke-linecap:round;
	stroke-linejoin:round;
	fill:none;
	stroke:#000;
}
svg.acjk path[id] {fill:#ccc;}
]]>
</style>
<path id="z65302d1a" d="M492 888C446 886 406 877 372 861C333 844 303 819 281 787C261 756 251 719 251 678C251 628 259 583 276 540C291 497 313 452 341 406C365 368 391 330 420 293C449 256 474 224 496 196L508 174C511 170 515 167 520 165C526 163 532 161 538 161C540 161 545 162 553 164C561 165 568 167 576 170C583 173 587 177 587 183C587 187 586 190 583 194C579 198 576 202 573 205C545 233 519 263 494 293C469 324 447 354 427 383C408 412 391 438 378 461C365 484 355 502 348 516C348 516 338 537 327 567C319 591 314 638 312 653C311 660 311 668 311 676C311 725 328 764 361 793C388 816 425 830 472 835C486 843 509 857 503 873C499 882 499 884 492 888Z"/>
<path id="z65302d1b" d="M354 510C372 489 397 472 426 460C458 448 494 441 532 441C577 441 618 450 654 466C690 483 719 507 741 538C763 568 773 605 773 646C773 692 764 734 745 770C726 807 697 836 659 857C621 878 571 888 511 888C504 888 498 888 492 888C478 888 465 877 457 872C436 860 434 835 472 835C484 836 497 837 511 837C580 837 631 819 664 785C697 751 713 706 713 648C713 619 706 592 691 568C676 544 655 525 627 512C600 498 567 491 528 491C494 491 460 499 426 514C392 529 365 551 344 579C326 601 316 625 312 653C308 657 304 660 301 652C295 637 294 607 305 584C316 559 325 541 354 510Z"/>
<defs>
	<clipPath id="z65302c1a"><use href="#z65302d1a"/></clipPath>
	<clipPath id="z65302c1b"><use href="#z65302d1b"/></clipPath>
</defs>
<path style="--d:1s;" pathLength="3333" clip-path="url(#z65302c1a)" d="M587 185L484 279L406 397L341 514L290 620L264 703L303 785L380 844L484 867L587 844L678 797L730 703L730 620L678 526L587 467L484 456L393 485L354 514L303 561"/>
<path style="--d:1s;" pathLength="3333" clip-path="url(#z65302c1b)" d="M -174 1020L -174 844L587 844L678 797L730 703L730 620L678 526L587 467L484 456L393 485L354 514L303 561"/>
</svg>