<!--
animNumber 2026 Copyright k1LoW, https://github.com/k1LoW/animNumber
Derived from:
    Klee One - https://github.com/fontworks-fonts/Klee
    Copyright 2020 The Klee Project Authors
You can redistribute and/or modify this file under the terms of the SIL Open Font License, Version 1.1
as published by SIL International.
You should have received a copy of this license along with this file.
If not, see https://openfontlicense.org/.
-->
<svg id="z65305" class="acjk" viewBox="0 0 1024 1024" xmlns="http://www.w3.org/2000/svg">
<style>
<![CDATA[
@keyframes zk {
	to {
		stroke-dashoffset:0;
	}
}
svg.acjk path[clip-path] {
	--t:0.8s;
	animation:zk var(--t) linear forwards var(--d);
	stroke-dasharray:3337;
	stroke-dashoffset:3339;
	stroke-width:128;
	stroke-linecap:round;
	stroke-linejoin:round;
	fill:none;
	stroke:#000;
}
svg.acjk path[id] {fill:#ccc;}
]]>
</style>
<path id="z65305d1a" d="M437 610C404 610 373 603 344 588C316 574 293 554 276 527C258 501 250 468 250 430C250 397 257 364 271 332C285 300 304 271 328 245C354 220 383 200 416 185C448 169 484 161 521 161C557 161 589 167 616 178C642 189 663 201 679 214C695 228 705 240 708 248C710 252 717 266 718 275C718 292 715 294 712 300C708 305 698 304 693 304C687 304 673 298 670 290C666 280 657 270 645 258C632 246 616 236 596 227C576 219 553 214 527 214C494 214 463 221 437 234C409 248 386 265 367 286C348 307 333 330 323 356C312 380 307 404 307 427C307 470 319 501 344 523C369 545 399 556 436 556C436 556 437 556 438 556C454 555 462 572 462 581C463 598 449 610 437 610Z"/>
<path id="z65305d1b" d="M700 294C699 294 708 250 708 250C709 249 709 247 709 246C713 233 715 220 716 208C716 197 720 191 730 191L732 191C740 192 749 196 759 203C769 210 774 217 774 224C774 225 774 228 773 228C768 240 764 252 757 281C751 303 742 333 731 362C711 400 687 448 672 473C668 480 658 494 658 493C643 517 623 537 599 556C574 574 547 587 519 596C491 605 463 610 437 610C435 610 433 610 432 610C424 609 415 607 409 597C407 593 399 552 416 554C422 555 429 556 436 556C476 556 513 547 546 528C579 510 608 485 632 452C656 420 675 383 688 343L700 294Z"/>
<path id="z65305d1c" d="M700 291C703 279 707 261 708 248C711 234 715 221 716 208C716 197 720 191 730 191L732 191C740 192 749 196 759 203C769 210 774 217 774 224C774 225 774 225 773 226L773 228C768 240 763 261 756 291C748 321 739 356 731 397C722 437 714 481 705 526C696 572 688 616 680 659C672 703 666 743 660 779C655 814 651 842 648 863C648 875 636 882 610 883L606 883C598 883 593 881 590 878C587 875 586 871 586 866C586 863 587 859 587 856C588 851 589 847 590 843C594 822 599 798 605 770C610 741 616 712 623 680C628 650 634 621 639 593C645 567 649 544 652 525C655 507 657 496 658 493C666 463 682 380 688 343L700 291Z"/>
<defs>
	<clipPath id="z65305c1a"><use href="#z65305d1a"/></clipPath>
	<clipPath id="z65305c1b"><use href="#z65305d1b"/></clipPath>
	<clipPath id="z65305c1c"><use href="#z65305d1c"/></clipPath>
</defs>
<path style="--d:1s;" pathLength="3333" clip-path="url(#z65305c1a)" d="M676 256L586 185L484 173L394 185L331 232L306 303L293 397L293 479L331 538L370 573L394 585L420 585L484 585L534 550L573 514L599 479L650 444L676 408L700 373L726 326L732 279L732 232L726 197L707 279L687 361L676 444L656 514L644 597L637 679L631 761L618 844L605 903"/>
<path style="--d:1s;" pathLength="3333" clip-path="url(#z65305c1b)" d="M420 1467L420 585L484 585L534 550L573 514L599 479L650 444L676 408L700 373L726 326L732 279L732 232L726 197L1473 197"/>
<path style="--d:1s;" pathLength="3333" clip-path="url(#z65305c1c)" d="M -332 903L -332 197L726 197L707 279L687 361L676 444L656 514L644 597L637 679L631 761L618 844L605 903L605 1110"/>
</svg>