<!--
animNumber 2026 Copyright k1LoW, https://github.com/k1LoW/animNumber
Derived from:
    Klee One - https://github.com/fontworks-fonts/Klee
    Copyright 2020 The Klee Project Authors
You can redistribute and/or modify this file under the terms of the SIL Open Font License, Version 1.1
as published by SIL International.
You should have received a copy of this license along with this file.
If not, see https://openfontlicense.org/.
-->
<svg id="z65303" class="acjk" viewBox="0 0 1024 1024" xmlns="http://www.w3.org/2000/svg">
<style>
<![CDATA[
@keyframes zk {
	to {
		stroke-dashoffset:0;
	}
}
svg.acjk path[clip-path] {
	--t:0.8s;
	animation:zk var(--t) linear forwards var(--d);
	stroke-dasharray:3337;
	stroke-dashoffset:3339;
	stroke-width:128;
	stroke-linecap:round;
	stroke-linejoin:round;
	fill:none;
	stroke:#000;
}
svg.acjk path[id] {fill:#ccc;}
]]>
</style>
<path id="z65303d1" d="M378,300L661,276C617.667,348.667 578,422.667 542,498C506,573.333 471,651.333 437,732C427,755.333 419.667,772.333 415,783C409.667,793.667 406.667,801 406,805C404.667,809 404,812.333 404,815C404,823 408.667,828 418,830C427.333,831.333 435,832 441,832C455.667,832 463.667,828 465,820C469,805.333 473,792 477,780C480.333,767.333 483.667,756.667 487,748C506.333,700 527.667,650.667 551,600C573.667,548.667 597.667,498 623,448C648.333,398.667 673.667,351.333 699,306C701.667,302 706,296 712,288C717.333,280.667 721,274 723,268L723,266C723.667,266 724,265.667 724,265C724,257.667 719.333,250 710,242C701.333,234 692,229.667 682,229L679,229C675,229 671,229.667 667,231C663.667,232.333 655.667,233.667 643,235L358,254C355.333,254 352.667,254.333 350,255L342,255C334.667,255 328,254.667 322,254L305,254C301.667,254 300,255.667 300,259C300,260.333 301.667,264.667 305,272C309,279.333 314.333,286.333 321,293C328.333,299.667 337,303 347,303C352.333,303 357.333,302.667 362,302C367.333,300.667 372.667,300 378,300Z" style="fill-rule:nonzero;"/>
<path id="z65303d2" d="M345,322C345,322 346,306.333 346,297C346.667,287.667 346,284.667 346,280C346,272.667 343.667,265 335,261C325.667,256.333 320.333,254 313,254C303,254 298,255 298,261C298,267 298.333,276.333 299,289C299.667,301 301,321 301,321C301,325 301.667,332 301,342C301,352 300.667,362.333 300,373L300,396C300,403.333 303.667,409 313,413C321.667,417 326,419 334,419C343.333,419 348,416.333 348,411C348,401 347.667,388.333 347,373C346.333,357 345.667,340 345,322Z" style="fill-rule:nonzero;"/>
<defs>
	<clipPath id="z65303c1"><use href="#z65303d1"/></clipPath>
	<clipPath id="z65303c2"><use href="#z65303d2"/></clipPath>
</defs>
<path style="--d:1s;" pathLength="3333" clip-path="url(#z65303c1)" d="M317 255L329 340L340 420"/>
<path style="--d:2s;" pathLength="3333" clip-path="url(#z65303c2)" d="M383 285L521 275L676 275L587 450L499 620L432 770L410 820"/>
</svg>