<!--
animNumber 2026 Copyright k1LoW, https://github.com/k1LoW/animNumber
Derived from:
    Klee One - https://github.com/fontworks-fonts/Klee
    Copyright 2020 The Klee Project Authors
You can redistribute and/or modify this file under the terms of the SIL Open Font License, Version 1.1
as published by SIL International.
You should have received a copy of this license along with this file.
If not, see https://openfontlicense.org/.
-->
<svg id="z65304" class="acjk" viewBox="0 0 1024 1024" xmlns="http://www.w3.org/2000/svg">
<style>
<![CDATA[
@keyframes zk {
	to {
		stroke-dashoffset:0;
	}
}
svg.acjk path[clip-path] {
	--t:0.8s;
	animation:zk var(--t) linear forwards var(--d);
	stroke-dasharray:3337;
	stroke-dashoffset:3339;
	stroke-width:128;
	stroke-linecap:round;
	stroke-linejoin:round;
	fill:none;
	stroke:#000;
}
svg.acjk path[id] {fill:#ccc;}
]]>
</style>
<path id="z65304d1a" d="M473 500L416 477C380 462 350 443 325 419C301 396 288 364 288 321C288 277 307 239 344 207C381 177 434 161 503 161C539 161 570 166 597 176C624 184 647 195 665 208C683 222 696 234 705 246C714 258 719 266 719 270C719 277 717 283 713 288C713 288 705 299 696 305C693 306 689 307 691 306L687 306C679 306 673 302 667 294C652 268 629 248 599 233C568 218 536 211 501 211C454 211 416 221 388 243C360 265 346 291 346 323C346 355 358 379 383 397C406 414 436 429 472 443L533 466C562 476 591 487 619 499C647 510 673 524 696 540C719 557 738 577 752 600C765 624 772 653 772 687C772 752 748 801 699 836C651 870 585 887 502 888C483 889 485 873 485 870C485 859 490 836 509 835C546 834 578 829 607 819C640 807 666 791 685 770C704 748 713 721 713 691C713 663 706 639 692 619C679 599 660 582 637 568C614 555 588 543 560 532C532 521 503 510 473 500Z"/>
<path id="z65304d1b" d="M522 888C513 888 504 888 494 888C420 888 361 871 317 836C274 801 252 756 252 700C252 655 267 613 296 576C325 539 365 506 416 477L472 443C492 433 514 421 540 405C566 390 592 374 619 356C646 337 670 321 691 306L687 306C687 306 716 284 713 288L723 281C730 275 736 272 743 272C755 272 761 278 761 291C761 299 758 306 751 313C731 332 708 351 680 371C653 391 626 410 599 426C572 443 550 456 533 466L473 500C421 531 381 563 353 596C325 628 311 662 311 697C311 721 318 744 332 765C345 785 366 802 394 816C422 829 455 836 494 836C503 836 512 835 521 835C539 834 546 848 549 861C551 872 537 887 522 888Z"/>
<defs>
	<clipPath id="z65304c1a"><use href="#z65304d1a"/></clipPath>
	<clipPath id="z65304c1b"><use href="#z65304d1b"/></clipPath>
</defs>
<path style="--d:1s;" pathLength="3333" clip-path="url(#z65304c1a)" d="M698 256L678 232L639 197L510 197L405 197L366 232L327 303L314 373L340 432L392 467L484 491L561 503L652 538L704 608L730 691L704 773L639 832L484 867L419 867L340 832L301 761L288 691L288 620L314 550L379 514L445 479L536 456L600 420L652 385L704 361L730 326L737 291"/>
<path style="--d:1s;" pathLength="3333" clip-path="url(#z65304c1b)" d="M -132 1197L -132 1456L107 1456L484 1456L484 867L419 867L340 832L301 761L288 691L288 620L314 550L379 514L445 479L536 456L600 420L652 385L704 361L730 326L737 291"/>
</svg>