<?xml version="1.0" encoding="UTF-8" standalone="no"?>
<!DOCTYPE svg PUBLIC "-//W3C//DTD SVG 1.1//EN" "http://www.w3.org/Graphics/SVG/1.1/DTD/svg11.dtd">
<svg width="100%" height="100%" viewBox="0 0 1024 1024" version="1.1" xmlns="http://www.w3.org/2000/svg" xmlns:xlink="http://www.w3.org/1999/xlink" xml:space="preserve" xmlns:serif="http://www.serif.com/" style="fill-rule:evenodd;clip-rule:evenodd;stroke-linejoin:round;stroke-miterlimit:2;">
    <path id="z48d1b" d="M408 225C424 206 442 191 460 179C481 167 502 161 525 161C573 161 612 177 644 207C675 239 699 281 714 334C730 388 738 450 738 518C738 567 733 613 724 658C714 702 700 741 681 776C663 811 639 838 611 858C586 876 558 886 526 888C523 874 514 855 493 835C498 835 503 836 508 836C546 836 577 821 603 791C628 762 647 723 659 673C672 625 678 571 678 512C678 474 675 438 668 403C663 367 654 336 641 307C630 278 614 256 593 239C574 223 549 214 520 214C505 214 487 221 466 236C447 249 427 269 408 297C391 323 376 355 365 393C353 400 353 359 353 346C353 309 363 291 408 225Z"/>
    <path id="z48d1a" d="M526 888C521 888 517 888 512 888C470 888 435 879 406 860C378 841 355 816 337 784C319 752 307 714 299 671C290 628 286 583 286 536C286 492 290 452 298 413C305 375 314 341 325 312C335 282 346 259 357 241C368 224 377 216 385 216C390 216 394 217 397 219C401 221 403 225 405 228C407 233 403 240 404 239C394 262 370 377 365 393C364 394 364 396 364 397C352 436 346 481 346 533C346 572 349 609 354 645C359 682 367 714 379 743C392 771 408 793 428 810C446 824 468 832 493 835C519 837 544 887 526 888Z"/>
    <clipPath id="_clip1">
        <path d="M386 162C384 159 381 154 377 152C373 149 368 148 363 148C353 148 343 158 330 178C317 199 304 226 292 261C279 295 268 335 260 380C251 426 246 473 246 525C246 580 251 633 261 684C271 734 285 779 306 816C327 854 354 884 387 906C421 928 463 939 512 939C557 939 596 927 628 904C661 880 690 848 711 807C733 766 750 720 761 668C772 615 778 561 778 504C778 424 768 351 750 287C732 225 704 175 667 138C630 102 584 84 527 84C500 84 476 91 451 105C428 120 406 139 386 162ZM507 878C470 878 439 867 413 847C390 827 371 801 356 768C341 734 332 696 326 653C320 611 317 567 317 521C317 460 324 407 338 361C352 314 368 274 390 244C412 211 436 187 458 172C483 154 504 146 521 146C556 146 585 156 607 175C632 195 651 221 664 255C679 289 690 326 696 368C704 409 707 452 707 496C707 566 700 629 685 686C671 745 648 791 619 825C588 860 552 878 507 878Z"/>
    </clipPath>
    <g clip-path="url(#_clip1)">
        <path d="M634 112L512 84L412 112L343 195L301 319L287 499L301 679L343 789L412 873L512 914L606 873L661 789L703 666L717 499L703 319L634 112" style="fill-rule:nonzero;"/>
    </g>
</svg>
