<?xml version="1.0" encoding="UTF-8" standalone="no"?>
<!DOCTYPE svg PUBLIC "-//W3C//DTD SVG 1.1//EN" "http://www.w3.org/Graphics/SVG/1.1/DTD/svg11.dtd">
<svg width="100%" height="100%" viewBox="0 0 1024 1024" version="1.1" xmlns="http://www.w3.org/2000/svg" xmlns:xlink="http://www.w3.org/1999/xlink" xml:space="preserve" xmlns:serif="http://www.serif.com/" style="fill-rule:evenodd;clip-rule:evenodd;stroke-linejoin:round;stroke-miterlimit:2;">
    <path id="z48d1b" d="M423.224,274.406C437.247,258.265 452.173,245.129 468,235C485.333,225 503.667,220 523,220C563.667,220 597.333,233 624,259C650.667,285.667 670.667,321.667 684,367C697.333,413 704,465 704,523C704,564.333 700,604 692,642C684,679.333 672,712.667 656,742C640,772 620,795.333 596,812C574.963,827.193 550.853,835.728 523.67,837.604C521.132,825.424 514.118,809.641 495.978,792.413C500.194,792.804 504.535,793 509,793C541,793 567.667,780.333 589,755C610.333,730.333 626.333,697 637,655C647.667,613.667 653,568 653,518C653,486 650.333,455 645,425C640.333,395 632.667,368 622,344C612,319.333 598.333,300 581,286C564.333,272 543.667,265 519,265C505.667,265 490.333,271 473,283C456.333,294.333 440,311.667 424,335C409.114,357.005 396.742,384.35 386.883,417.035C376.963,422.399 376.882,388.001 376.769,377.132C376.438,345.259 385.12,329.744 423.224,274.406Z"/>
    <path id="z48d1a" d="M523.67,837.604C519.841,837.868 515.951,838 512,838C476.667,838 446.667,830 422,814C398,798 378.333,776.333 363,749C348.333,721.667 337.667,689.667 331,653C323.667,617 320,578.667 320,538C320,501.333 323.333,466.667 330,434C336,401.333 343.667,372.667 353,348C361.667,322.667 370.667,302.667 380,288C389.333,273.333 397.333,266 404,266C408,266 411.333,267 414,269C417.333,271 419.667,273.667 421,277C422.649,281.123 419.256,286.856 420,286C411.897,305.338 390.923,403.642 386.883,417.035C386.586,418.019 386.292,419.007 386,420C376,453.333 371,492 371,536C371,568.667 373.333,600.333 378,631C382,662.333 389,690 399,714C409.667,738 423.667,757 441,771C456.06,783.271 474.386,790.408 495.978,792.413C517.73,794.432 539.263,836.528 523.67,837.604Z"/>
    <clipPath id="_clip1">
        <path d="M421,277C419.667,273.667 417.333,271 414,269C411.333,267 408,266 404,266C397.333,266 389.333,273.333 380,288C370.667,302.667 361.667,322.667 353,348C343.667,372.667 336,401.333 330,434C323.333,466.667 320,501.333 320,538C320,578.667 323.667,617 331,653C337.667,689.667 348.333,721.667 363,749C378.333,776.333 398,798 422,814C446.667,830 476.667,838 512,838C544,838 572,829.333 596,812C620,795.333 640,772 656,742C672,712.667 684,679.333 692,642C700,604 704,564.333 704,523C704,465 697.333,413 684,367C670.667,321.667 650.667,285.667 624,259C597.333,233 563.667,220 523,220C503.667,220 485.333,225 468,235C451.333,245.667 435.667,259.667 421,277ZM509,793C481.667,793 459,785.667 441,771C423.667,757 409.667,738 399,714C389,690 382,662.333 378,631C373.333,600.333 371,568.667 371,536C371,492 376,453.333 386,420C396,386 408.667,357.667 424,335C440,311.667 456.333,294.333 473,283C490.333,271 505.667,265 519,265C543.667,265 564.333,272 581,286C598.333,300 612,319.333 622,344C632.667,368 640.333,395 645,425C650.333,455 653,486 653,518C653,568 647.667,613.667 637,655C626.333,697 610.333,730.333 589,755C567.667,780.333 541,793 509,793Z"/>
    </clipPath>
    <g clip-path="url(#_clip1)">
        <path d="M600,240L512,220L440,240L390,300L360,390L350,520L360,650L390,730L440,790L512,820L580,790L620,730L650,640L660,520L650,390L600,240" style="fill-rule:nonzero;"/>
    </g>
</svg>
