<?xml version="1.0" encoding="UTF-8" standalone="no"?>
<!DOCTYPE svg PUBLIC "-//W3C//DTD SVG 1.1//EN" "http://www.w3.org/Graphics/SVG/1.1/DTD/svg11.dtd">
<svg width="100%" height="100%" viewBox="0 0 1024 1024" version="1.1" xmlns="http://www.w3.org/2000/svg" xmlns:xlink="http://www.w3.org/1999/xlink" xml:space="preserve" xmlns:serif="http://www.serif.com/" style="fill-rule:evenodd;clip-rule:evenodd;stroke-linejoin:round;stroke-miterlimit:2;">
    <path id="z49d1" d="M488.963,300L488.963,735C488.963,740.333 488.63,748.333 487.963,759L487.963,788C487.296,798 486.963,805.333 486.963,810C486.963,817.333 491.63,823 500.963,827C510.296,831 518.963,833 526.963,833C536.296,833 540.963,830.333 540.963,825C540.963,817 540.63,807 539.963,795C539.963,783 539.63,771 538.963,759L538.963,314C538.963,301.333 540.035,283.198 539.963,273C539.854,257.543 540.963,256.667 540.963,250C540.963,242 540.296,238.667 532.963,232C525.63,225.333 519.963,224 512.963,222C509.117,220.901 487.963,216.333 483.963,221C479.963,225.667 490.296,240.333 488.963,300Z" style="fill-rule:nonzero;"/>
    <clipPath id="_clip1">
        <path d="M547,300L547,735C547,740.333 546.667,748.333 546,759L546,788C545.333,798 545,805.333 545,810C545,817.333 549.667,823 559,827C568.333,831 577,833 585,833C594.333,833 599,830.333 599,825C599,817 598.667,807 598,795C598,783 597.667,771 597,759L597,314C597,301.333 598,290 600,280C601.333,269.333 602,260.667 602,254C602,246 598.333,238.667 591,232C583.667,225.333 577,222 571,222C567,222 562.333,224.333 557,229C552.333,233 548,237.333 544,242C540,246.667 536.667,250 534,252C521.333,261.333 506,271.333 488,282C470,292.667 451,302 431,310C425,312 422,314.667 422,318C422,322.667 426,327 434,331C442,335 450,337 458,337C460.667,337 462.667,336.667 464,336C477.333,333.333 491.333,328.667 506,322C520.667,314.667 534.333,307.333 547,300Z"/>
    </clipPath>
    <g clip-path="url(#_clip1)">
        <path d="M440,320L500,270L570,230L570,820" style="fill-rule:nonzero;"/>
    </g>
</svg>
