<?xml version="1.0" encoding="UTF-8" standalone="no"?>
<!DOCTYPE svg PUBLIC "-//W3C//DTD SVG 1.1//EN" "http://www.w3.org/Graphics/SVG/1.1/DTD/svg11.dtd">
<svg width="100%" height="100%" viewBox="0 0 1024 1024" version="1.1" xmlns="http://www.w3.org/2000/svg" xmlns:xlink="http://www.w3.org/1999/xlink" xml:space="preserve" xmlns:serif="http://www.serif.com/" style="fill-rule:evenodd;clip-rule:evenodd;stroke-linejoin:round;stroke-miterlimit:2;">
    <path id="z49d1" d="M485 256L485 767C485 774 485 783 484 796L484 830C483 841 483 850 483 856C483 864 488 871 499 876C510 880 520 883 530 883C541 883 546 879 546 873C546 864 546 852 545 838C545 824 545 810 544 796L544 272C544 257 545 236 545 224C545 206 546 205 546 197C546 187 545 183 537 176C528 168 521 166 513 164C509 162 484 157 479 163C474 168 486 185 485 256Z" style="fill-rule:nonzero;"/>
    <clipPath id="_clip1">
        <path d="M560 195L560 796C560 805 560 815 559 831L559 871C558 884 558 894 558 901C558 911 564 919 577 925C590 929 601 933 613 933C626 933 632 928 632 921C632 911 632 896 631 880C631 864 631 847 630 831L630 214C630 196 631 181 634 167C636 152 637 140 637 131C637 120 632 109 621 101C611 92 601 87 593 87C588 87 581 91 574 96C567 102 561 108 557 114C551 121 546 126 543 128C525 141 504 155 479 169C454 185 427 198 400 208C392 212 387 215 387 220C387 226 393 232 404 238C416 244 426 246 437 246C441 246 444 246 446 245C464 241 484 234 504 225C524 215 543 205 560 195Z"/>
    </clipPath>
    <g clip-path="url(#_clip1)">
        <path d="M412 222L496 153L592 98L592 914" style="fill-rule:nonzero;"/>
    </g>
</svg>
