<?xml version="1.0" encoding="UTF-8" standalone="no"?>
<!DOCTYPE svg PUBLIC "-//W3C//DTD SVG 1.1//EN" "http://www.w3.org/Graphics/SVG/1.1/DTD/svg11.dtd">
<svg width="100%" height="100%" viewBox="0 0 1024 1024" version="1.1" xmlns="http://www.w3.org/2000/svg" xmlns:xlink="http://www.w3.org/1999/xlink" xml:space="preserve" xmlns:serif="http://www.serif.com/" style="fill-rule:evenodd;clip-rule:evenodd;stroke-linejoin:round;stroke-miterlimit:2;">
    <path id="z52d1" d="M641 710L666 708C686 708 705 709 723 710C741 710 753 711 759 711C767 711 771 707 771 698C771 688 768 679 761 668C755 658 748 653 739 653C732 653 721 654 707 656C692 657 678 658 665 659L641 660L585 663L321 674C350 634 379 589 410 541C440 493 470 446 499 400C527 354 552 314 573 279L610 223C611 219 612 216 612 212C612 201 607 190 597 179C587 167 578 161 571 161C567 161 564 164 561 168C557 180 551 193 545 206C539 219 531 236 520 257C509 277 494 303 476 333C457 365 433 403 404 450C374 497 338 554 296 621C291 628 285 635 279 643C273 650 267 659 260 667C256 674 253 680 253 687C253 698 258 708 268 718C278 727 288 732 298 732C300 732 302 732 304 731C311 729 318 728 325 726C332 725 337 725 341 725L585 713L641 710Z" style="fill-rule:nonzero;"/>
    <path id="z52d2" d="M641 768L641 424C642 412 643 401 643 390C643 379 644 370 644 365C644 356 639 350 628 345C617 339 608 337 599 337C587 337 581 340 581 347C581 354 582 365 583 380C583 394 584 408 584 423C585 437 585 447 585 454L585 767C585 772 585 780 584 792C584 804 583 816 583 828L583 856C583 864 588 871 599 876C609 880 619 883 628 883C639 883 645 879 645 873C645 861 645 847 644 828C643 810 642 790 641 768Z" style="fill-rule:nonzero;"/>
    <clipPath id="_clip1">
        <path d="M664 729L693 727C717 727 739 728 760 729C781 729 796 731 803 731C812 731 817 726 817 715C817 704 813 693 805 680C798 668 790 662 779 662C771 662 758 664 741 666C724 667 707 668 692 669L664 671L664 393C665 379 666 366 666 353C666 340 667 329 667 324C667 313 661 306 648 300C636 293 625 291 614 291C600 291 593 294 593 302C593 311 594 324 596 341C596 358 597 374 597 392C598 408 598 420 598 428L598 674L287 687C321 640 356 587 392 531C427 474 463 419 497 365C530 311 559 264 584 222L627 156C628 152 630 148 630 144C630 131 624 118 612 105C600 91 590 84 581 84C577 84 573 87 570 92C565 106 558 121 551 136C544 152 534 172 521 196C508 220 491 251 470 286C447 324 419 368 385 424C350 479 307 546 258 625C252 633 245 641 238 651C231 659 224 669 216 679C211 687 207 694 207 702C207 715 213 727 225 739C237 749 248 755 260 755C263 755 265 755 267 754C276 752 284 751 292 748C300 747 306 747 311 747L598 733L598 796C598 802 598 812 597 826C597 840 596 854 596 868L596 901C596 911 601 919 614 925C626 929 638 933 648 933C661 933 668 928 668 921C668 907 668 891 667 868C666 847 665 824 664 798L664 729Z"/>
    </clipPath>
    <g clip-path="url(#_clip1)">
        <path d="M613 112L399 472L232 707L496 707L800 693" style="fill-rule:nonzero;"/>
    </g>
    <clipPath id="_clip2">
        <path d="M664 729L693 727C717 727 739 728 760 729C781 729 796 731 803 731C812 731 817 726 817 715C817 704 813 693 805 680C798 668 790 662 779 662C771 662 758 664 741 666C724 667 707 668 692 669L664 671L664 393C665 379 666 366 666 353C666 340 667 329 667 324C667 313 661 306 648 300C636 293 625 291 614 291C600 291 593 294 593 302C593 311 594 324 596 341C596 358 597 374 597 392C598 408 598 420 598 428L598 674L287 687C321 640 356 587 392 531C427 474 463 419 497 365C530 311 559 264 584 222L627 156C628 152 630 148 630 144C630 131 624 118 612 105C600 91 590 84 581 84C577 84 573 87 570 92C565 106 558 121 551 136C544 152 534 172 521 196C508 220 491 251 470 286C447 324 419 368 385 424C350 479 307 546 258 625C252 633 245 641 238 651C231 659 224 669 216 679C211 687 207 694 207 702C207 715 213 727 225 739C237 749 248 755 260 755C263 755 265 755 267 754C276 752 284 751 292 748C300 747 306 747 311 747L598 733L598 796C598 802 598 812 597 826C597 840 596 854 596 868L596 901C596 911 601 919 614 925C626 929 638 933 648 933C661 933 668 928 668 921C668 907 668 891 667 868C666 847 665 824 664 798L664 729Z"/>
    </clipPath>
    <g clip-path="url(#_clip2)">
        <path d="M634 98L634 914" style="fill:none;fill-rule:nonzero;"/>
    </g>
</svg>
