<?xml version="1.0" encoding="UTF-8" standalone="no"?>
<!DOCTYPE svg PUBLIC "-//W3C//DTD SVG 1.1//EN" "http://www.w3.org/Graphics/SVG/1.1/DTD/svg11.dtd">
<svg width="100%" height="100%" viewBox="0 0 1024 1024" version="1.1" xmlns="http://www.w3.org/2000/svg" xmlns:xlink="http://www.w3.org/1999/xlink" xml:space="preserve" xmlns:serif="http://www.serif.com/" style="fill-rule:evenodd;clip-rule:evenodd;stroke-linejoin:round;stroke-miterlimit:2;">
    <path id="z53d1" d="M422,293L609,279C621.667,277.667 634.333,277 647,277C659,277 668.667,276.667 676,276C683.333,276 687,272 687,264C687,257.333 684.333,249.667 679,241C673.667,233 667.667,229 661,229L659,229C651.667,230.333 642.667,231.333 632,232C620.667,232.667 611,233.333 603,234L425,247C410.876,245.311 389.742,248.36 396.253,266.498C400.665,278.786 401.852,292.079 422,293Z" style="fill-rule:nonzero;"/>
    <path id="z53d2" d="M495,792L493,792C460.333,791.333 431.667,782.667 407,766C382.333,749.333 362.667,730 348,708C345.333,704 342,702 338,702C332.667,702 327,706.333 321,715C315.667,724.333 313,733.667 313,743C313,750.333 315,756 319,760C339.667,782 364.667,800.667 394,816C423.333,830.667 456.333,838 493,838C544.333,838 586,828.667 618,810C650,790.667 673.667,765.333 689,734C703.667,702.667 711,669.333 711,634C711,595.333 702.333,562.333 685,535C667.667,508.333 645.333,487.667 618,473C590.667,459 561.333,451.667 530,451L523,451C495.667,451 471,455.333 449,464C427,472.667 407,484 389,498L422,293C422,293 436,253.333 425,247C412.333,240.333 401.333,237 392,237C383.333,237 379,240.333 379,247L379,264C379,270.667 378.333,277 377,283L345,490L336,520L336,528C336,538 339,546.333 345,553C351.667,559.667 358.333,563 365,563C368.333,563 371,562 373,560C385.667,549.333 398.667,539 412,529C425.333,519 440.667,510.667 458,504C475.333,498 497,495 523,495C563,495.667 596,508 622,532C648,556.667 661,590.667 661,634C661,661.333 655,687 643,711C631,735.667 613,755.333 589,770C564.333,784.667 533,792 495,792Z" style="fill-rule:nonzero;"/>
    <clipPath id="_clip1">
        <path d="M495,792L493,792C460.333,791.333 431.667,782.667 407,766C382.333,749.333 362.667,730 348,708C345.333,704 342,702 338,702C332.667,702 327,706.333 321,715C315.667,724.333 313,733.667 313,743C313,750.333 315,756 319,760C339.667,782 364.667,800.667 394,816C423.333,830.667 456.333,838 493,838C544.333,838 586,828.667 618,810C650,790.667 673.667,765.333 689,734C703.667,702.667 711,669.333 711,634C711,595.333 702.333,562.333 685,535C667.667,508.333 645.333,487.667 618,473C590.667,459 561.333,451.667 530,451L523,451C495.667,451 471,455.333 449,464C427,472.667 407,484 389,498L422,293L609,279C621.667,277.667 634.333,277 647,277C659,277 668.667,276.667 676,276C683.333,276 687,272 687,264C687,257.333 684.333,249.667 679,241C673.667,233 667.667,229 661,229L659,229C651.667,230.333 642.667,231.333 632,232C620.667,232.667 611,233.333 603,234L425,247C412.333,240.333 401.333,237 392,237C383.333,237 379,240.333 379,247L379,264C379,270.667 378.333,277 377,283L345,490L336,520L336,528C336,538 339,546.333 345,553C351.667,559.667 358.333,563 365,563C368.333,563 371,562 373,560C385.667,549.333 398.667,539 412,529C425.333,519 440.667,510.667 458,504C475.333,498 497,495 523,495C563,495.667 596,508 622,532C648,556.667 661,590.667 661,634C661,661.333 655,687 643,711C631,735.667 613,755.333 589,770C564.333,784.667 533,792 495,792Z"/>
    </clipPath>
    <g clip-path="url(#_clip1)">
        <path d="M670,260L400,260" style="fill-rule:nonzero;"/>
    </g>
    <clipPath id="_clip2">
        <path d="M495,792L493,792C460.333,791.333 431.667,782.667 407,766C382.333,749.333 362.667,730 348,708C345.333,704 342,702 338,702C332.667,702 327,706.333 321,715C315.667,724.333 313,733.667 313,743C313,750.333 315,756 319,760C339.667,782 364.667,800.667 394,816C423.333,830.667 456.333,838 493,838C544.333,838 586,828.667 618,810C650,790.667 673.667,765.333 689,734C703.667,702.667 711,669.333 711,634C711,595.333 702.333,562.333 685,535C667.667,508.333 645.333,487.667 618,473C590.667,459 561.333,451.667 530,451L523,451C495.667,451 471,455.333 449,464C427,472.667 407,484 389,498L422,293L609,279C621.667,277.667 634.333,277 647,277C659,277 668.667,276.667 676,276C683.333,276 687,272 687,264C687,257.333 684.333,249.667 679,241C673.667,233 667.667,229 661,229L659,229C651.667,230.333 642.667,231.333 632,232C620.667,232.667 611,233.333 603,234L425,247C412.333,240.333 401.333,237 392,237C383.333,237 379,240.333 379,247L379,264C379,270.667 378.333,277 377,283L345,490L336,520L336,528C336,538 339,546.333 345,553C351.667,559.667 358.333,563 365,563C368.333,563 371,562 373,560C385.667,549.333 398.667,539 412,529C425.333,519 440.667,510.667 458,504C475.333,498 497,495 523,495C563,495.667 596,508 622,532C648,556.667 661,590.667 661,634C661,661.333 655,687 643,711C631,735.667 613,755.333 589,770C564.333,784.667 533,792 495,792Z"/>
    </clipPath>
    <g clip-path="url(#_clip2)">
        <path d="M400,260L380,420L400,500L490,480L560,490L620,520L660,580L660,670L620,740L550,790L460,800L380,770" style="fill-rule:nonzero;"/>
    </g>
</svg>
