<?xml version="1.0" encoding="UTF-8" standalone="no"?>
<!DOCTYPE svg PUBLIC "-//W3C//DTD SVG 1.1//EN" "http://www.w3.org/Graphics/SVG/1.1/DTD/svg11.dtd">
<svg width="100%" height="100%" viewBox="0 0 1024 1024" version="1.1" xmlns="http://www.w3.org/2000/svg" xmlns:xlink="http://www.w3.org/1999/xlink" xml:space="preserve" xmlns:serif="http://www.serif.com/" style="fill-rule:evenodd;clip-rule:evenodd;stroke-linejoin:round;stroke-miterlimit:2;">
    <path id="z53d1" d="M406 247L626 231C641 229 656 228 671 228C685 228 696 228 705 227C714 227 718 223 718 213C718 205 715 196 708 186C702 177 695 172 687 172L685 172C676 174 666 175 653 176C640 176 628 177 619 178L410 193C393 191 368 195 376 216C381 231 382 246 406 247Z" style="fill-rule:nonzero;"/>
    <path id="z53d2" d="M492 834L490 834C451 834 417 823 388 804C359 784 336 761 319 736C316 731 312 728 307 728C301 728 294 734 287 744C281 755 278 766 278 777C278 785 280 792 285 797C309 823 339 845 373 863C408 880 447 888 490 888C550 888 599 877 637 856C674 833 702 803 720 766C737 729 746 690 746 648C746 603 736 564 716 532C695 501 669 476 637 459C605 443 570 434 533 433L525 433C493 433 464 438 438 448C412 459 388 472 367 488L406 247C406 247 423 201 410 193C395 185 382 181 371 181C361 181 356 185 356 193L356 213C356 221 355 228 353 236L316 479L305 514L305 524C305 536 308 545 316 553C323 561 331 565 339 565C343 565 346 564 348 561C363 549 379 537 394 525C410 513 428 503 448 496C469 488 494 485 525 485C572 486 611 500 641 528C672 557 687 597 687 648C687 681 680 711 666 739C652 768 631 791 603 808C574 826 537 834 492 834Z" style="fill-rule:nonzero;"/>
    <clipPath id="_clip1">
        <path d="M488 875L486 875C440 875 400 862 366 840C332 816 305 789 285 760C281 754 277 751 271 751C264 751 256 758 247 769C240 782 237 795 237 808C237 818 239 826 245 832C273 862 308 888 348 909C390 929 436 939 486 939C557 939 614 926 659 901C703 874 736 839 757 795C777 752 787 706 787 656C787 604 776 558 752 520C727 484 697 454 659 434C621 415 580 405 537 404L527 404C490 404 456 409 425 421C394 434 366 449 341 468L387 185L646 166C664 164 681 162 699 162C716 162 728 162 739 161C750 161 754 156 754 145C754 135 751 125 743 113C736 102 727 96 718 96L716 96C705 99 693 100 678 101C663 101 648 102 638 104L392 121C374 112 359 107 346 107C334 107 328 112 328 121L328 145C328 154 327 162 325 172L281 458L268 499L268 511C268 525 272 535 281 545C290 554 299 559 308 559C313 559 317 558 319 554C337 540 356 526 373 512C392 498 413 486 437 478C461 468 491 465 527 465C583 466 628 482 664 515C700 549 718 596 718 656C718 695 710 731 693 764C677 798 652 825 619 845C585 866 541 875 488 875Z"/>
    </clipPath>
    <g clip-path="url(#_clip1)">
        <path d="M731 139L357 139" style="fill-rule:nonzero;"/>
    </g>
    <clipPath id="_clip2">
        <path d="M488 875L486 875C440 875 400 862 366 840C332 816 305 789 285 760C281 754 277 751 271 751C264 751 256 758 247 769C240 782 237 795 237 808C237 818 239 826 245 832C273 862 308 888 348 909C390 929 436 939 486 939C557 939 614 926 659 901C703 874 736 839 757 795C777 752 787 706 787 656C787 604 776 558 752 520C727 484 697 454 659 434C621 415 580 405 537 404L527 404C490 404 456 409 425 421C394 434 366 449 341 468L387 185L646 166C664 164 681 162 699 162C716 162 728 162 739 161C750 161 754 156 754 145C754 135 751 125 743 113C736 102 727 96 718 96L716 96C705 99 693 100 678 101C663 101 648 102 638 104L392 121C374 112 359 107 346 107C334 107 328 112 328 121L328 145C328 154 327 162 325 172L281 458L268 499L268 511C268 525 272 535 281 545C290 554 299 559 308 559C313 559 317 558 319 554C337 540 356 526 373 512C392 498 413 486 437 478C461 468 491 465 527 465C583 466 628 482 664 515C700 549 718 596 718 656C718 695 710 731 693 764C677 798 652 825 619 845C585 866 541 875 488 875Z"/>
    </clipPath>
    <g clip-path="url(#_clip2)">
        <path d="M357 139L330 361L357 472L481 444L578 458L661 499L717 582L717 707L661 804L565 873L440 887L330 845" style="fill-rule:nonzero;"/>
    </g>
</svg>
