<?xml version="1.0" encoding="UTF-8" standalone="no"?>
<!DOCTYPE svg PUBLIC "-//W3C//DTD SVG 1.1//EN" "http://www.w3.org/Graphics/SVG/1.1/DTD/svg11.dtd">
<svg width="100%" height="100%" viewBox="0 0 1024 1024" version="1.1" xmlns="http://www.w3.org/2000/svg" xmlns:xlink="http://www.w3.org/1999/xlink" xml:space="preserve" xmlns:serif="http://www.serif.com/" style="fill-rule:evenodd;clip-rule:evenodd;stroke-linejoin:round;stroke-miterlimit:2;">
    <path id="z54d1b" d="M385.518,526.458C401.291,505.986 420.786,489.5 444,477C469.333,463.667 497,457 527,457C561,457 592,464.333 620,479C648,494.333 670.667,515 688,541C704.667,567 713,597 713,631C713,667.667 705.667,701.667 691,733C676.333,764.333 654,789.333 624,808C596.323,825.836 562.122,835.445 521.395,836.826C522.785,835.203 523.68,833.668 523.718,832.383C524.322,811.966 518.283,812.704 510.527,807.541C506.863,805.102 503.952,800.027 497.673,792.651C502.017,792.884 506.459,793 511,793C544.333,793 572.333,786 595,772C617,758 634,738.667 646,714C657.333,690 663,663.333 663,634C663,610.667 657,588.667 645,568C633.667,548 617.333,531.333 596,518C575.333,505.333 551.667,499 525,499C491.667,499 462.667,506.333 438,521C414,535.667 395,554.667 381,578C368.493,600.513 361.852,625.079 361.077,651.698C350.091,649.292 338.04,638.817 343.368,602.135C345.589,586.845 360.842,558.483 385.518,526.458Z"/>
    <path id="z54d1a" d="M521.395,836.826C517.976,836.942 514.511,837 511,837C471,837 436,829 406,813C376,796.333 352.667,774.667 336,748C319.333,721.333 311,691.333 311,658C311,616 319.333,573.333 336,530C353.333,486 376.333,440.667 405,394C433,347.333 464,298.333 498,247C505.333,237 511,229.667 515,225C519.667,221 526,219 534,219C540,219 547.667,220.333 557,223C566.333,225 571,230 571,238C571,240.667 569.667,243.333 567,246C565,249.333 562.667,252.333 560,255C518,303.667 483.333,350 456,394C428.667,438.667 403.333,485.333 380,534C381.786,531.429 378.107,536.457 380,534C366.688,571.464 362.824,615.045 361.077,651.698C360.993,653.455 361,655.224 361,657C361,695 374,727.333 400,754C423.54,777.54 456.098,790.424 497.673,792.651C519.104,793.799 522.863,804.102 526.527,806.541C534.283,811.704 537.322,825.966 527.718,832.383C526.649,833.098 522.785,835.203 521.395,836.826Z"/>
    <clipPath id="_clip1">
        <path d="M380,534C403.333,485.333 428.667,438.667 456,394C483.333,350 518,303.667 560,255C562.667,252.333 565,249.333 567,246C569.667,243.333 571,240.667 571,238C571,230 566.333,225 557,223C547.667,220.333 540,219 534,219C526,219 519.667,221 515,225C511,229.667 505.333,237 498,247C464,298.333 433,347.333 405,394C376.333,440.667 353.333,486 336,530C319.333,573.333 311,616 311,658C311,691.333 319.333,721.333 336,748C352.667,774.667 376,796.333 406,813C436,829 471,837 511,837C556.333,837 594,827.333 624,808C654,789.333 676.333,764.333 691,733C705.667,701.667 713,667.667 713,631C713,597 704.667,567 688,541C670.667,515 648,494.333 620,479C592,464.333 561,457 527,457C497,457 469.333,463.667 444,477C418,491 396.667,510 380,534ZM511,793C463,793 426,780 400,754C374,727.333 361,695 361,657C361,628.333 367.667,602 381,578C395,554.667 414,535.667 438,521C462.667,506.333 491.667,499 525,499C551.667,499 575.333,505.333 596,518C617.333,531.333 633.667,548 645,568C657,588.667 663,610.667 663,634C663,663.333 657.333,690 646,714C634,738.667 617,758 595,772C572.333,786 544.333,793 511,793Z"/>
    </clipPath>
    <g clip-path="url(#_clip1)">
        <path d="M560,240L490,320L430,420L380,520L340,610L320,680L350,750L410,800L490,820L570,800L640,760L680,680L680,610L640,530L570,480L490,470L410,490L370,520" style="fill-rule:nonzero;"/>
    </g>
</svg>
