<?xml version="1.0" encoding="UTF-8" standalone="no"?>
<!DOCTYPE svg PUBLIC "-//W3C//DTD SVG 1.1//EN" "http://www.w3.org/Graphics/SVG/1.1/DTD/svg11.dtd">
<svg width="100%" height="100%" viewBox="0 0 1024 1024" version="1.1" xmlns="http://www.w3.org/2000/svg" xmlns:xlink="http://www.w3.org/1999/xlink" xml:space="preserve" xmlns:serif="http://www.serif.com/" style="fill-rule:evenodd;clip-rule:evenodd;stroke-linejoin:round;stroke-miterlimit:2;">
    <path id="z54d1b" d="M363 522C382 498 405 478 432 464C462 448 494 440 530 440C570 440 606 449 639 466C672 484 699 508 719 539C739 570 748 605 748 645C748 688 740 728 723 765C705 802 679 831 644 853C611 874 571 885 523 887C525 885 526 883 526 882C526 858 519 859 510 853C506 850 503 844 495 835C500 835 505 836 511 836C550 836 583 827 610 811C636 794 656 772 670 743C683 714 690 683 690 648C690 621 683 595 668 571C655 547 636 528 611 512C587 497 559 490 527 490C488 490 454 498 425 516C397 533 374 555 358 583C343 609 335 638 334 669C322 666 307 654 314 611C316 593 334 560 363 522Z"/>
    <path id="z54d1a" d="M523 887C519 887 515 887 511 887C464 887 423 878 387 859C352 839 325 814 305 783C285 751 276 716 276 677C276 627 285 577 305 526C325 474 352 421 386 366C419 311 456 254 496 193C504 181 511 173 516 167C521 163 528 160 538 160C545 160 554 162 565 165C576 167 581 173 581 183C581 186 580 189 577 192C574 196 572 199 568 203C519 260 478 314 446 366C414 419 384 474 357 531C359 528 354 534 357 531C341 575 336 626 334 669C334 671 334 673 334 676C334 720 350 758 380 790C408 817 446 832 495 835C520 836 525 849 529 851C538 858 542 874 530 882C529 883 525 885 523 887Z"/>
    <clipPath id="_clip1">
        <path d="M330 519C361 452 397 387 434 325C472 264 520 200 578 133C583 128 585 125 588 120C592 116 593 113 593 109C593 98 587 91 574 88C561 85 551 82 543 82C531 82 523 86 517 91C511 98 503 107 493 121C446 193 403 260 364 325C324 389 292 452 268 513C245 573 234 632 234 691C234 736 245 778 268 815C292 852 324 881 365 905C407 927 456 938 511 938C573 938 625 925 667 898C708 872 739 838 760 794C780 751 790 704 790 653C790 606 779 565 756 528C732 492 700 464 661 442C623 422 580 412 533 412C491 412 453 421 418 440C381 459 352 486 330 519ZM511 878C444 878 393 859 357 824C321 786 303 741 303 689C303 649 312 613 331 580C350 547 377 521 410 501C444 480 484 471 530 471C567 471 600 479 628 496C658 515 680 538 696 566C713 594 721 625 721 656C721 698 713 734 698 768C681 802 658 828 627 848C596 867 557 878 511 878Z"/>
    </clipPath>
    <g clip-path="url(#_clip1)">
        <path d="M578 112L481 222L399 361L330 499L274 624L246 721L287 818L371 887L481 914L592 887L690 832L745 721L745 624L690 513L592 444L481 431L371 458L316 499" style="fill-rule:nonzero;"/>
    </g>
</svg>
