<?xml version="1.0" encoding="UTF-8" standalone="no"?>
<!DOCTYPE svg PUBLIC "-//W3C//DTD SVG 1.1//EN" "http://www.w3.org/Graphics/SVG/1.1/DTD/svg11.dtd">
<svg width="100%" height="100%" viewBox="0 0 1024 1024" version="1.1" xmlns="http://www.w3.org/2000/svg" xmlns:xlink="http://www.w3.org/1999/xlink" xml:space="preserve" xmlns:serif="http://www.serif.com/" style="fill-rule:evenodd;clip-rule:evenodd;stroke-linejoin:round;stroke-miterlimit:2;">
    <path id="z55d1" d="M343 281C343 281 344 263 344 252C345 241 344 237 344 232C344 223 341 214 331 210C320 204 314 201 305 201C293 201 287 203 287 210C287 217 288 228 288 243C289 257 291 280 291 280C291 285 292 293 291 305C291 317 290 329 290 341L290 368C290 377 294 384 305 388C315 393 320 396 330 396C341 396 346 392 346 386C346 374 346 359 345 341C344 323 343 303 343 281Z" style="fill-rule:nonzero;"/>
    <path id="z55d2" d="M366 254L663 228C636 282 610 337 584 394C557 452 532 507 510 560C487 614 467 663 450 707C432 751 419 787 408 814C399 842 394 857 394 861C394 871 399 877 410 879C420 881 428 881 436 881C450 881 459 877 461 867C466 850 470 834 474 820C478 805 482 793 486 783C507 726 529 668 553 608C577 549 602 490 628 431C655 372 683 316 711 264C714 258 719 251 725 241C730 233 734 225 736 218C736 217 736 216 737 216L737 214C737 205 732 196 721 186C711 177 702 173 694 172L691 172C685 172 678 173 672 176C665 177 657 178 648 179L345 201L308 201C303 201 297 200 292 200C289 200 287 202 287 206C287 210 289 216 293 224C297 232 303 239 311 246C318 253 327 257 337 257C341 257 347 256 352 256C357 256 361 255 366 254Z" style="fill-rule:nonzero;"/>
    <clipPath id="_clip1">
        <path d="M340 193L690 162C658 226 627 291 597 358C565 426 536 491 510 553C483 616 459 674 439 726C418 778 403 820 390 852C379 885 373 902 373 907C373 919 379 926 392 928C404 931 413 931 423 931C439 931 450 926 452 914C458 894 463 875 467 859C472 841 477 827 481 815C506 748 532 680 560 609C588 540 618 471 648 401C680 332 713 266 746 205C750 198 756 189 763 178C768 168 773 159 776 151C776 149 776 148 777 148L777 146C777 135 771 125 758 113C746 102 736 98 726 96L723 96C716 96 707 98 700 101C692 102 683 104 672 105L316 131L272 131C266 131 259 129 253 129C250 129 247 132 247 136C247 141 250 148 254 158C259 167 266 175 276 184C284 192 294 196 306 196C311 196 318 195 324 195C330 195 334 194 340 193Z"/>
    </clipPath>
    <g clip-path="url(#_clip1)">
        <path d="M287 195L496 174L717 153L606 402L496 638L385 914" style="fill-rule:nonzero;"/>
    </g>
</svg>
