<?xml version="1.0" encoding="UTF-8" standalone="no"?>
<!DOCTYPE svg PUBLIC "-//W3C//DTD SVG 1.1//EN" "http://www.w3.org/Graphics/SVG/1.1/DTD/svg11.dtd">
<svg width="100%" height="100%" viewBox="0 0 1024 1024" version="1.1" xmlns="http://www.w3.org/2000/svg" xmlns:xlink="http://www.w3.org/1999/xlink" xml:space="preserve" xmlns:serif="http://www.serif.com/" style="fill-rule:evenodd;clip-rule:evenodd;stroke-linejoin:round;stroke-miterlimit:2;">
    <path id="z55d1" d="M368,322C368,322 369,306.333 369,297C369.667,287.667 369,284.667 369,280C369,272.667 366.667,265 358,261C348.667,256.333 343.333,254 336,254C326,254 321,255 321,261C321,267 321.333,276.333 322,289C322.667,301 324,321 324,321C324,325 324.667,332 324,342C324,352 323.667,362.333 323,373L323,396C323,403.333 326.667,409 336,413C344.667,417 349,419 357,419C366.333,419 371,416.333 371,411C371,401 370.667,388.333 370,373C369.333,357 368.667,340 368,322Z" style="fill-rule:nonzero;"/>
    <path id="z55d2" d="M388,299L640,277C617.333,322.333 595,369.333 573,418C550.333,466.667 529.333,513.667 510,559C490.667,605 473.667,646.667 459,684C444.333,721.333 432.667,751.667 424,775C416,798.333 412,811.667 412,815C412,823 416.333,828 425,830C433.667,831.333 441,832 447,832C459.667,832 467,828 469,820C473,805.333 476.667,792 480,780C483.333,767.333 486.667,756.667 490,748C507.333,700 526.333,650.667 547,600C567,549.333 588.333,499 611,449C633.667,399 657,351.667 681,307C683.667,302.333 687.667,296 693,288C697.667,280.667 700.667,274 702,268C702,267.333 702.333,266.667 703,266L703,265C703,257 698.667,249 690,241C681.333,233.667 673.667,229.667 667,229L664,229C658.667,229 653.333,230 648,232C642,233.333 635.333,234.333 628,235L370,254L339,254C334.333,253.333 329.667,253 325,253C322.333,253 321,254.667 321,258C321,261.333 322.667,266.333 326,273C329.333,279.667 334.333,286 341,292C347,298 354.333,301 363,301C367,301 371.333,300.667 376,300C380,300 384,299.667 388,299Z" style="fill-rule:nonzero;"/>
    <clipPath id="_clip1">
        <path d="M388,299L640,277C617.333,322.333 595,369.333 573,418C550.333,466.667 529.333,513.667 510,559C490.667,605 473.667,646.667 459,684C444.333,721.333 432.667,751.667 424,775C416,798.333 412,811.667 412,815C412,823 416.333,828 425,830C433.667,831.333 441,832 447,832C459.667,832 467,828 469,820C473,805.333 476.667,792 480,780C483.333,767.333 486.667,756.667 490,748C507.333,700 526.333,650.667 547,600C567,549.333 588.333,499 611,449C633.667,399 657,351.667 681,307C683.667,302.333 687.667,296 693,288C697.667,280.667 700.667,274 702,268C702,267.333 702.333,266.667 703,266L703,265C703,257 698.667,249 690,241C681.333,233.667 673.667,229.667 667,229L664,229C658.667,229 653.333,230 648,232C642,233.333 635.333,234.333 628,235L370,254L339,254C334.333,253.333 329.667,253 325,253C322.333,253 321,254.667 321,258C321,261.333 322.667,266.333 326,273C329.333,279.667 334.333,286 341,292C347,298 354.333,301 363,301C367,301 371.333,300.667 376,300C380,300 384,299.667 388,299Z"/>
    </clipPath>
    <g clip-path="url(#_clip1)">
        <path d="M350,300L500,285L660,270L580,450L500,620L420,820" style="fill-rule:nonzero;"/>
    </g>
</svg>
