<?xml version="1.0" encoding="UTF-8" standalone="no"?>
<!DOCTYPE svg PUBLIC "-//W3C//DTD SVG 1.1//EN" "http://www.w3.org/Graphics/SVG/1.1/DTD/svg11.dtd">
<svg width="100%" height="100%" viewBox="0 0 1024 1024" version="1.1" xmlns="http://www.w3.org/2000/svg" xmlns:xlink="http://www.w3.org/1999/xlink" xml:space="preserve" xmlns:serif="http://www.serif.com/" style="fill-rule:evenodd;clip-rule:evenodd;stroke-linejoin:round;stroke-miterlimit:2;">
    <path id="z57d1c" d="M638 493C638 493 668 343 668 343L681 295C682 293 688 248 688 248C688 248 688 248 688 248C692 234 695 221 696 208C696 197 700 191 710 191L712 191C720 192 729 196 739 203C749 210 754 217 754 224C754 225 754 225 753 226L753 228C748 240 743 261 736 291C728 321 719 356 711 397C702 437 694 481 685 526C676 572 668 616 660 659C652 703 646 743 640 779C635 814 631 842 628 863C628 875 616 882 590 883L586 883C578 883 573 881 570 878C567 875 566 871 566 866C566 863 567 859 567 856C568 851 569 847 570 843C574 822 579 798 585 770C590 741 596 712 601 680C608 650 614 621 619 593C625 567 629 544 632 525C635 507 637 496 638 493Z"/>
    <path id="z57d1b" d="M680 294C681 294 688 248 688 248C692 234 695 221 696 208C696 197 700 191 710 191L712 191C720 192 729 196 739 203C749 210 754 217 754 224C754 225 754 225 753 226L753 228C751 244 739 287 727 322C709 371 691 414 638 493C637 495 637 495 637 494C614 530 585 558 548 579C511 599 474 610 437 610C414 610 393 606 373 598C367 590 361 580 362 570C363 554 383 551 399 550C410 554 422 556 436 556C473 556 507 545 538 525C568 505 595 479 618 446C640 414 657 379 668 343L680 294Z"/>
    <path id="z57d1a" d="M373 598C366 595 360 592 353 588C328 574 308 554 292 527C277 501 270 468 270 430C270 397 276 364 290 332C302 300 320 271 344 245C367 220 394 200 425 185C455 169 487 161 521 161C554 161 583 167 606 178C630 189 648 201 661 214C675 228 684 240 688 248L689 248C690 253 691 260 691 267C691 275 685 287 680 295L680 294C675 300 670 303 665 303C659 303 654 298 650 290C646 280 639 270 628 258C618 246 605 236 588 227C571 219 551 214 527 214C497 214 469 221 445 234C421 248 399 265 381 286C364 307 351 330 341 356C332 380 327 404 327 427C327 470 337 501 357 523C374 541 396 552 422 555C432 562 425 576 420 580C399 597 383 599 373 598Z"/>
    <clipPath id="_clip1">
        <path d="M599 933L604 933C634 932 648 924 648 909C652 885 657 852 663 811C670 768 677 721 686 669C696 619 705 567 716 513C726 460 736 408 746 361C756 313 766 272 776 236C784 201 790 176 796 162L796 160C797 159 797 159 797 158C797 149 791 141 779 133C767 125 757 120 747 119L745 119C733 119 728 126 728 139C727 154 724 169 719 186C714 176 704 162 687 146C672 131 651 116 623 104C596 91 561 84 523 84C483 84 445 93 410 112C373 129 341 153 314 182C286 213 265 247 251 285C234 322 227 361 227 400C227 445 236 484 253 514C272 546 296 569 325 586C354 604 387 612 424 612C467 612 511 599 554 575C598 551 633 516 660 474C659 478 657 491 653 512C650 534 645 561 638 592C632 625 625 659 617 694C611 732 604 766 598 800C591 833 585 861 580 886C579 891 578 895 577 901C577 905 576 909 576 913C576 919 577 924 580 927C584 931 590 933 599 933ZM710 240L696 298C683 340 663 381 637 419C610 458 578 488 543 512C506 535 466 548 423 548C384 548 353 535 330 509C306 484 294 447 294 396C294 369 300 341 311 313C323 282 338 255 358 231C379 206 405 186 433 169C461 154 494 146 530 146C558 146 581 152 601 161C621 172 637 184 648 198C661 212 670 224 674 235C679 245 685 251 692 251C698 251 704 247 710 240Z"/>
    </clipPath>
    <g clip-path="url(#_clip1)">
        <path d="M703 333L676 222L606 139L510 112L412 139L330 222L287 333L316 458L399 527L510 541L606 499L676 431L703 361L690 486L661 638L606 914" style="fill-rule:nonzero;"/>
    </g>
</svg>
