<?xml version="1.0" encoding="UTF-8" standalone="no"?>
<!DOCTYPE svg PUBLIC "-//W3C//DTD SVG 1.1//EN" "http://www.w3.org/Graphics/SVG/1.1/DTD/svg11.dtd">
<svg width="100%" height="100%" viewBox="0 0 1024 1024" version="1.1" xmlns="http://www.w3.org/2000/svg" xmlns:xlink="http://www.w3.org/1999/xlink" xml:space="preserve" xmlns:serif="http://www.serif.com/" style="fill-rule:evenodd;clip-rule:evenodd;stroke-linejoin:round;stroke-miterlimit:2;">
    <path id="z57d1c" d="M619,502C619,502 645,374.333 645,374L655.576,333.74C656.809,332.052 661.782,293.604 661.782,293.604C661.856,293.737 661.928,293.869 662,294C665.333,282 667.333,270.667 668,260C668,250 672,245 680,245L682,245C688.667,245.667 696.333,249 705,255C713.667,261 718,267 718,273C718,273.667 717.667,274.333 717,275L717,277C713,287 708,304.667 702,330C695.333,355.333 688.333,385.333 681,420C673.667,454.667 666.333,491.333 659,530C651.667,568.667 644.667,606.333 638,643C631.333,680.333 625.667,714.333 621,745C616.333,775 613,798.667 611,816C611,826.667 600,832.333 578,833L575,833C568.333,833 563.667,831.667 561,829C559,826.333 558,823 558,819C558,816.333 558.333,813.333 559,810C559.667,806 560.333,802.333 561,799C564.333,781.667 568.667,761 574,737C578.667,713 583.333,687.667 588,661C593.333,635 598.333,610.333 603,587C607.667,564.333 611.333,545 614,529C616.667,513.667 618.333,504.667 619,502Z"/>
    <path id="z57d1b" d="M655,333C655.333,332.667 662,294 662,294C665.333,282 667.333,270.667 668,260C668,250 672,245 680,245L682,245C688.667,245.667 696.333,249 705,255C713.667,261 718,267 718,273C718,273.667 717.667,274.333 717,275L717,277C715,290 705.242,326.432 694.33,356.592C679.403,397.848 664.449,434.531 619,502C618,503.485 617.897,503.41 618,503C598.667,533.667 574.333,557 543,575C511,592.333 479.333,601 448,601C428.786,601 410.846,597.723 394.181,591.17C388.646,584.457 383.899,575.564 384.351,567.076C385.056,553.843 402.451,550.842 416.162,550.378C425.616,553.459 435.895,555 447,555C479,555 508,546.333 534,529C560,512.333 582.667,490 602,462C620.667,434.667 635,405.333 645,374L655,333Z"/>
    <path id="z57d1a" d="M393.985,591.093C388.168,588.795 382.506,586.097 377,583C355.667,571 338.333,553.667 325,531C312.333,508.333 306,480.667 306,448C306,420 311.667,392.333 323,365C333.667,337.667 349,313 369,291C389,269.667 412,252.667 438,240C463.333,226.667 490.667,220 520,220C548,220 572,224.667 592,234C612,243.333 627.667,253.667 639,265C650.333,277 658,286.667 662,294L662.04,293.854C663.187,298.092 664.264,303.821 664.125,310.15C663.989,316.317 659.172,326.886 654.813,333.768L655,333C650.333,337.667 646,340 642,340C636.667,340 632.333,336.333 629,329C625.667,321 619.667,312 611,302C602.333,292 591,283.333 577,276C562.333,268.667 545,265 525,265C499,265 475.667,270.667 455,282C434.333,293.333 416.333,308 401,326C386.333,344 375,363.667 367,385C359,405.667 355,426 355,446C355,482 363.333,509 380,527C394.859,543.002 413.392,552.145 435.599,554.429C444.055,560.637 438.012,572.34 433.922,575.689C416.192,590.207 402.506,591.743 393.985,591.093Z"/>
    <clipPath id="_clip1">
        <path d="M575,833L578,833C600,832.333 611,826.667 611,816C613,798.667 616.333,775 621,745C625.667,714.333 631.333,680.333 638,643C644.667,606.333 651.667,568.667 659,530C666.333,491.333 673.667,454.667 681,420C688.333,385.333 695.333,355.333 702,330C708,304.667 713,287 717,277L717,275C717.667,274.333 718,273.667 718,273C718,267 713.667,261 705,255C696.333,249 688.667,245.667 682,245L680,245C672,245 668,250 668,260C667.333,270.667 665.333,282 662,294C658,286.667 650.333,277 639,265C627.667,253.667 612,243.333 592,234C572,224.667 548,220 520,220C490.667,220 463.333,226.667 438,240C412,252.667 389,269.667 369,291C349,313 333.667,337.667 323,365C311.667,392.333 306,420 306,448C306,480.667 312.333,508.333 325,531C338.333,553.667 355.667,571 377,583C398.333,595 422,601 448,601C479.333,601 511,592.333 543,575C574.333,557 599.667,532.667 619,502C618.333,504.667 616.667,513.667 614,529C611.333,545 607.667,564.333 603,587C598.333,610.333 593.333,635 588,661C583.333,687.667 578.667,713 574,737C568.667,761 564.333,781.667 561,799C560.333,802.333 559.667,806 559,810C558.333,813.333 558,816.333 558,819C558,823 559,826.333 561,829C563.667,831.667 568.333,833 575,833ZM655,333L645,374C635,405.333 620.667,434.667 602,462C582.667,490 560,512.333 534,529C508,546.333 479,555 447,555C419.667,555 397.333,545.667 380,527C363.333,509 355,482 355,446C355,426 359,405.667 367,385C375,363.667 386.333,344 401,326C416.333,308 434.333,293.333 455,282C475.667,270.667 499,265 525,265C545,265 562.333,268.667 577,276C591,283.333 602.333,292 611,302C619.667,312 625.667,321 629,329C632.333,336.333 636.667,340 642,340C646,340 650.333,337.667 655,333Z"/>
    </clipPath>
    <g clip-path="url(#_clip1)">
        <path d="M650,400L630,320L580,260L510,240L440,260L380,320L350,400L370,490L430,540L510,550L580,520L630,470L650,420L640,510L620,620L580,820" style="fill-rule:nonzero;"/>
    </g>
</svg>
