<?xml version="1.0" encoding="UTF-8" standalone="no"?>
<!DOCTYPE svg PUBLIC "-//W3C//DTD SVG 1.1//EN" "http://www.w3.org/Graphics/SVG/1.1/DTD/svg11.dtd">
<svg width="100%" height="100%" viewBox="0 0 1024 1024" version="1.1" xmlns="http://www.w3.org/2000/svg" xmlns:xlink="http://www.w3.org/1999/xlink" xml:space="preserve" xmlns:serif="http://www.serif.com/" style="fill-rule:evenodd;clip-rule:evenodd;stroke-linejoin:round;stroke-miterlimit:2;">
    <path id="z65299d1a" d="M563,489C501.487,501.776 481.674,523.769 468.645,527.926C465.183,529.031 462.547,529.642 455,532C453.667,532.667 451.667,533 449,533C441,533 434,529 428,521C422.667,513.667 420,506 420,498C420,490.667 423.333,486.667 430,486L460,481C476,479 495,475.333 517,470C539,464 560.333,456.333 581,447C602.333,437 620,424.667 634,410C647.333,394.667 654,376.667 654,356C654,294.667 612.667,264 530,264C495.333,264 466.333,269.333 443,280C419.667,290.667 395.333,308.667 370,334C368,335.333 365.333,338 362,342C358.667,345.333 354.667,347 350,347C348,347 343.667,345 337,341C331,336.333 326.667,329 324,319L324,315C324,310.333 324.667,306.333 326,303L332,295C358.667,271 387.333,252.333 418,239C448.667,226.333 485.667,220 529,220C585,220 628,231 658,253C688.667,275.667 704,308 704,350C704,386 691,416.333 665,441C639,465 605,481 563,489Z"/>
    <path id="z65299d1b" d="M481.645,525.926C469.725,527.899 436.487,499.636 563,487.86L563,492L574,492C601.333,492 627.333,497.667 652,509C676,520.333 695.667,537 711,559C725.667,581 733,608.333 733,641C733,677.667 724.667,711 708,741C691.333,771 665,794.667 629,812C592.333,829.333 545.333,838 488,838C442.667,838 405.333,831 376,817C346,803.667 319.333,784.333 296,759C292.667,755 291,749.667 291,743C291,734.333 293.667,725.333 299,716C305,706.667 310.667,702 316,702C320,702 323.667,704.333 327,709C343.667,735.667 365,756.333 391,771C417.667,785.667 450,793 488,793C532,793 568.333,786 597,772C626.333,758.667 648,740.667 662,718C676,695.333 683,670 683,642C683,603.333 669,573.667 641,553C613,531.667 577.667,521 535,521C524.333,521 511,522 495,524C490.32,524.585 485.869,525.227 481.645,525.926Z"/>
    <clipPath id="_clip1">
        <path d="M574,492L563,492L563,489C605,481 639,465 665,441C691,416.333 704,386 704,350C704,308 688.667,275.667 658,253C628,231 585,220 529,220C485.667,220 448.667,226.333 418,239C387.333,252.333 358.667,271 332,295C330,297.667 328,300.333 326,303C324.667,306.333 324,310.333 324,315L324,319C326.667,329 331,336.333 337,341C343.667,345 348,347 350,347C354.667,347 358.667,345.333 362,342C365.333,338 368,335.333 370,334C395.333,308.667 419.667,290.667 443,280C466.333,269.333 495.333,264 530,264C612.667,264 654,294.667 654,356C654,376.667 647.333,394.667 634,410C620,424.667 602.333,437 581,447C560.333,456.333 539,464 517,470C495,475.333 476,479 460,481C444,483.667 434,485.333 430,486C423.333,486.667 420,490.667 420,498C420,506 422.667,513.667 428,521C434,529 441,533 449,533C451.667,533 453.667,532.667 455,532C465.667,528.667 479,526 495,524C511,522 524.333,521 535,521C577.667,521 613,531.667 641,553C669,573.667 683,603.333 683,642C683,670 676,695.333 662,718C648,740.667 626.333,758.667 597,772C568.333,786 532,793 488,793C450,793 417.667,785.667 391,771C365,756.333 343.667,735.667 327,709C323.667,704.333 320,702 316,702C310.667,702 305,706.667 299,716C293.667,725.333 291,734.333 291,743C291,749.667 292.667,755 296,759C319.333,784.333 346,803.667 376,817C405.333,831 442.667,838 488,838C545.333,838 592.333,829.333 629,812C665,794.667 691.333,771 708,741C724.667,711 733,677.667 733,641C733,608.333 725.667,581 711,559C695.667,537 676,520.333 652,509C627.333,497.667 601.333,492 574,492Z"/>
    </clipPath>
    <g clip-path="url(#_clip1)">
        <path d="M345,300L411,250L499,230L565,240L631,280L664,340L653,420L587,480L510,500L477,505L543,510L620,540L664,600L664,670L631,750L565,790L488,810L411,800L356,760L312,720" style="fill-rule:nonzero;"/>
    </g>
</svg>
