<?xml version="1.0" encoding="UTF-8" standalone="no"?>
<!DOCTYPE svg PUBLIC "-//W3C//DTD SVG 1.1//EN" "http://www.w3.org/Graphics/SVG/1.1/DTD/svg11.dtd">
<svg width="100%" height="100%" viewBox="0 0 1024 1024" version="1.1" xmlns="http://www.w3.org/2000/svg" xmlns:xlink="http://www.w3.org/1999/xlink" xml:space="preserve" xmlns:serif="http://www.serif.com/" style="fill-rule:evenodd;clip-rule:evenodd;stroke-linejoin:round;stroke-miterlimit:2;">
    <path id="z65296d1a" d="M518.928,837.909C516.638,837.97 514.328,838 512,838C458.667,838 416,824.667 384,798C352,772 329.333,736.333 316,691C302.667,645.667 296,594.667 296,538C296,500 299.667,465 307,433C315,400.333 324.333,371.333 335,346C346.333,320.667 357.333,301 368,287C378.667,273 387,266 393,266C400.333,266 405.667,268.667 409,274C411.348,277.757 410.923,286.967 408.789,296.026C406.735,304.741 403.779,308.192 401.361,322.77C398.679,338.94 395.159,346.412 384.982,365.881C377.114,380.935 370.119,397.642 364,416C352.667,450 347,490 347,536C347,585.333 351.667,629.333 361,668C371,706.667 387.667,737 411,759C430.793,778.227 457.301,789.3 490.525,792.217C515.108,799.78 541.868,837.299 518.928,837.909Z"/>
    <path id="z65296d1b" d="M413.53,268.989C425.911,255.815 440.401,244.485 457,235C475,225 497.333,220 524,220C570,220 608,232.333 638,257C668,282.333 690.667,317.667 706,363C720.667,408.333 728,461.667 728,523C728,583.667 720.333,637.667 705,685C689.667,732.333 666,769.667 634,797C603.51,823.043 565.153,836.679 518.928,837.909C492.345,835.457 476.108,810.78 490.525,792.217C496.469,792.739 502.627,793 509,793C547.667,793 579.333,781.333 604,758C628.667,735.333 647,703.333 659,662C671,620.667 677,572.667 677,518C677,472 672,429.667 662,391C651.333,353 634.667,322.333 612,299C589.333,276.333 559,265 521,265C503.667,265 484.667,270.333 464,281C443.333,292.333 424.333,309 407,331C399.026,341.428 391.687,353.055 384.982,365.881C377.298,361.996 375.679,353.94 378.361,337.77C383.597,306.197 392.253,291.63 413.53,268.989Z"/>
    <clipPath id="_clip1">
        <path d="M409,274C405.667,268.667 400.333,266 393,266C387,266 378.667,273 368,287C357.333,301 346.333,320.667 335,346C324.333,371.333 315,400.333 307,433C299.667,465 296,500 296,538C296,594.667 302.667,645.667 316,691C329.333,736.333 352,772 384,798C416,824.667 458.667,838 512,838C561.333,838 602,824.333 634,797C666,769.667 689.667,732.333 705,685C720.333,637.667 728,583.667 728,523C728,461.667 720.667,408.333 706,363C690.667,317.667 668,282.333 638,257C608,232.333 570,220 524,220C497.333,220 475,225 457,235C438.333,245.667 422.333,258.667 409,274ZM509,793C467,793 434.333,781.667 411,759C387.667,737 371,706.667 361,668C351.667,629.333 347,585.333 347,536C347,490 352.667,450 364,416C375.333,382 389.667,353.667 407,331C424.333,309 443.333,292.333 464,281C484.667,270.333 503.667,265 521,265C559,265 589.333,276.333 612,299C634.667,322.333 651.333,353 662,391C672,429.667 677,472 677,518C677,572.667 671,620.667 659,662C647,703.333 628.667,735.333 604,758C579.333,781.333 547.667,793 509,793Z"/>
    </clipPath>
    <g clip-path="url(#_clip1)">
        <path d="M611,240L512,220L431,240L374,300L340,390L329,520L340,650L374,730L431,790L512,820L589,790L634,730L668,640L679,520L668,390L634,300L611,240" style="fill-rule:nonzero;"/>
    </g>
</svg>
