<?xml version="1.0" encoding="UTF-8" standalone="no"?>
<!DOCTYPE svg PUBLIC "-//W3C//DTD SVG 1.1//EN" "http://www.w3.org/Graphics/SVG/1.1/DTD/svg11.dtd">
<svg width="100%" height="100%" viewBox="0 0 1024 1024" version="1.1" xmlns="http://www.w3.org/2000/svg" xmlns:xlink="http://www.w3.org/1999/xlink" xml:space="preserve" xmlns:serif="http://www.serif.com/" style="fill-rule:evenodd;clip-rule:evenodd;stroke-linejoin:round;stroke-miterlimit:2;">
    <path id="z65297d1" d="M488.963,300L488.963,735C488.963,740.333 488.63,748.333 487.963,759L487.963,788C487.296,798 486.963,805.333 486.963,810C486.963,817.333 491.63,823 500.963,827C510.296,831 518.963,833 526.963,833C536.296,833 540.963,830.333 540.963,825C540.963,817 540.63,807 539.963,795C539.963,783 539.63,771 538.963,759L538.963,314C538.963,301.333 540.035,283.198 539.963,273C539.854,257.543 540.963,256.667 540.963,250C540.963,242 540.296,238.667 532.963,232C525.63,225.333 519.963,224 512.963,222C509.117,220.901 487.963,216.333 483.963,221C479.963,225.667 490.296,240.333 488.963,300Z" style="fill-rule:nonzero;"/>
    <clipPath id="_clip1">
        <path d="M555,300L555,758C554.333,768 554,777.667 554,787L554,809C554,816.333 558.667,822 568,826C577.333,830 586,832 594,832C602.667,832 607,829.333 607,824L607,794C606.333,782 606,770 606,758L606,314C606,301.333 606.667,290 608,280C610,269.333 611,260.667 611,254C611,246 607.333,238.667 600,232C592,225.333 585,222 579,222C575,222 570.667,224.333 566,229C561.333,233 556.667,237.333 552,242C548,246.667 545,250 543,252C529,262.667 511,274.333 489,287C466.333,299.667 444.333,309.667 423,317C416.333,319.667 413,322.667 413,326C413,330.667 417,335 425,339C433,343 441,345 449,345C455,345 464.667,342.333 478,337C491.333,332.333 505.333,326.667 520,320C534,312.667 545.667,306 555,300Z"/>
    </clipPath>
    <g clip-path="url(#_clip1)">
        <path d="M433,320L499,270L575,230L575,820" style="fill-rule:nonzero;"/>
    </g>
</svg>
