<?xml version="1.0" encoding="UTF-8" standalone="no"?>
<!DOCTYPE svg PUBLIC "-//W3C//DTD SVG 1.1//EN" "http://www.w3.org/Graphics/SVG/1.1/DTD/svg11.dtd">
<svg width="100%" height="100%" viewBox="0 0 1024 1024" version="1.1" xmlns="http://www.w3.org/2000/svg" xmlns:xlink="http://www.w3.org/1999/xlink" xml:space="preserve" xmlns:serif="http://www.serif.com/" style="fill-rule:evenodd;clip-rule:evenodd;stroke-linejoin:round;stroke-miterlimit:2;">
    <path id="z65297d1" d="M485 256L485 767C485 774 485 783 484 796L484 830C483 841 483 850 483 856C483 864 488 871 499 876C510 880 520 883 530 883C541 883 546 879 546 873C546 864 546 852 545 838C545 824 545 810 544 796L544 272C544 257 545 236 545 224C545 206 546 205 546 197C546 187 545 183 537 176C528 168 521 166 513 164C509 162 484 157 479 163C474 168 486 185 485 256Z" style="fill-rule:nonzero;"/>
    <clipPath id="_clip1">
        <path d="M572 195L572 828C571 842 570 855 570 868L570 899C570 909 577 918 590 922C603 928 614 931 625 931C638 931 644 927 644 920L644 879C643 862 643 845 643 828L643 214C643 196 643 181 645 167C647 152 648 140 648 131C648 120 644 109 634 101C623 92 613 87 605 87C599 87 593 91 587 96C580 102 574 108 567 114C561 121 558 126 554 128C536 144 511 159 480 176C448 194 418 208 388 219C379 222 376 226 376 231C376 238 380 244 392 248C403 254 413 256 425 256C433 256 446 253 465 246C484 240 503 232 523 222C543 212 559 204 572 195Z"/>
    </clipPath>
    <g clip-path="url(#_clip1)">
        <path d="M403 222L494 153L599 98L599 914" style="fill-rule:nonzero;"/>
    </g>
</svg>
