<?xml version="1.0" encoding="UTF-8" standalone="no"?>
<!DOCTYPE svg PUBLIC "-//W3C//DTD SVG 1.1//EN" "http://www.w3.org/Graphics/SVG/1.1/DTD/svg11.dtd">
<svg width="100%" height="100%" viewBox="0 0 1024 1024" version="1.1" xmlns="http://www.w3.org/2000/svg" xmlns:xlink="http://www.w3.org/1999/xlink" xml:space="preserve" xmlns:serif="http://www.serif.com/" style="fill-rule:evenodd;clip-rule:evenodd;stroke-linejoin:round;stroke-miterlimit:2;">
    <path id="z65296d1a" d="M520 888C517 888 515 888 512 888C449 888 399 873 361 841C324 811 297 769 281 716C266 662 258 602 258 536C258 491 262 450 271 412C280 374 291 339 304 310C317 280 330 257 343 240C355 224 365 216 372 216C381 216 387 219 391 225C394 229 393 240 391 251C388 261 385 265 382 282C379 301 375 310 363 333C353 351 345 370 338 392C325 432 318 479 318 533C318 591 323 643 334 688C346 734 366 770 393 796C416 818 448 831 487 835C516 844 547 888 520 888Z"/>
    <path id="z65296d1b" d="M396 219C411 204 428 190 447 179C468 167 495 161 526 161C580 161 625 176 660 205C696 235 722 276 740 330C757 383 766 446 766 518C766 589 757 653 739 708C721 764 693 808 656 840C620 871 575 887 520 888C489 885 470 856 487 835C494 835 501 836 508 836C554 836 591 822 620 794C649 768 671 730 685 681C699 633 706 576 706 512C706 458 700 408 688 363C676 318 656 282 630 254C603 228 567 214 523 214C502 214 480 221 456 233C431 247 409 266 388 292C379 304 370 318 363 333C354 328 352 319 355 300C361 263 371 246 396 219Z"/>
    <clipPath id="_clip1">
        <path d="M370 159C365 152 358 148 347 148C339 148 327 158 313 176C298 196 283 224 267 259C252 293 239 334 228 379C218 424 213 472 213 525C213 602 223 673 240 736C259 799 291 848 334 884C379 921 438 939 512 939C580 939 637 920 681 882C725 845 758 793 779 727C800 662 811 587 811 504C811 419 800 345 780 282C759 219 728 171 686 135C645 101 592 84 528 84C492 84 460 91 436 105C410 120 388 138 370 159ZM507 878C450 878 405 861 372 831C340 800 317 758 303 704C290 651 284 589 284 521C284 458 292 402 307 355C323 308 343 269 366 238C391 207 417 185 446 168C474 154 500 146 525 146C577 146 619 162 651 193C681 226 705 268 719 321C733 374 740 433 740 496C740 572 732 639 716 695C699 753 673 798 639 828C605 861 561 878 507 878Z"/>
    </clipPath>
    <g clip-path="url(#_clip1)">
        <path d="M648 112L512 84L400 112L321 195L274 319L259 499L274 679L321 789L400 873L512 914L619 873L681 789L728 666L743 499L728 319L681 195L648 112" style="fill-rule:nonzero;"/>
    </g>
</svg>
