<?xml version="1.0" encoding="UTF-8" standalone="no"?>
<!DOCTYPE svg PUBLIC "-//W3C//DTD SVG 1.1//EN" "http://www.w3.org/Graphics/SVG/1.1/DTD/svg11.dtd">
<svg width="100%" height="100%" viewBox="0 0 1024 1024" version="1.1" xmlns="http://www.w3.org/2000/svg" xmlns:xlink="http://www.w3.org/1999/xlink" xml:space="preserve" xmlns:serif="http://www.serif.com/" style="fill-rule:evenodd;clip-rule:evenodd;stroke-linejoin:round;stroke-miterlimit:2;">
    <path id="z65299d1a" d="M572 478C500 493 476 519 461 524C457 525 454 526 445 528C443 529 441 530 438 530C428 530 420 525 413 516C407 507 404 498 404 488C404 480 408 475 416 474L451 468C470 466 492 462 518 456C544 448 569 439 593 428C618 417 639 402 656 385C671 367 679 346 679 321C679 249 630 213 533 213C492 213 458 219 431 232C403 245 375 266 345 296C343 297 339 300 336 305C332 309 327 311 321 311C319 311 314 308 306 304C299 298 294 290 291 278L291 273C291 268 292 263 293 259L300 250C332 221 365 199 401 184C437 169 481 161 532 161C598 161 648 174 684 200C720 227 738 265 738 314C738 357 723 392 692 421C661 450 621 468 572 478Z"/>
    <path id="z65299d1b" d="M476 521C468 523 417 539 406 500C403 488 514 482 572 477L572 481L585 481C617 481 648 488 677 501C705 515 728 534 746 560C763 586 772 618 772 657C772 700 762 739 743 774C723 810 692 837 650 858C607 878 551 888 484 888C430 888 387 880 352 864C317 848 285 825 258 796C254 791 252 785 252 777C252 767 255 756 261 745C268 734 275 728 281 728C286 728 290 731 294 737C314 768 339 792 370 810C401 827 439 836 484 836C536 836 578 827 612 811C647 795 672 774 688 747C705 721 713 691 713 658C713 612 697 577 664 553C631 528 589 516 539 516C527 516 511 517 492 519C486 520 481 521 476 521Z"/>
    <clipPath id="_clip1">
        <path d="M598 460L583 460L583 456C640 445 687 424 724 389C760 355 778 314 778 264C778 206 757 161 714 129C672 99 613 84 536 84C476 84 424 93 381 111C339 128 300 154 263 188C260 192 258 195 254 199C253 204 252 209 252 215L252 221C256 235 261 245 270 252C279 256 285 260 287 260C294 260 300 258 305 253C308 247 313 244 316 242C351 207 384 182 417 167C448 152 488 145 537 145C651 145 708 187 708 272C708 301 699 326 681 347C661 367 637 385 607 398C579 411 550 421 519 431C488 438 463 442 440 445C418 449 404 452 399 452C390 453 385 459 385 468C385 480 388 491 396 501C404 512 413 518 425 518C428 518 431 516 433 515C447 512 466 507 488 505C511 502 530 501 544 501C603 501 652 515 691 545C730 573 748 614 748 668C748 707 739 742 719 773C700 805 671 829 630 848C590 867 540 878 479 878C426 878 381 867 345 847C308 826 279 798 256 761C251 754 246 751 240 751C233 751 225 758 217 771C210 784 206 796 206 808C206 818 208 825 213 831C245 865 283 892 324 911C365 929 416 939 479 939C558 939 624 927 674 904C724 879 760 847 784 805C806 764 818 718 818 667C818 621 807 584 787 553C766 522 739 500 706 484C672 468 636 460 598 460Z"/>
    </clipPath>
    <g clip-path="url(#_clip1)">
        <path d="M281 195L372 126L494 98L585 112L677 167L723 251L707 361L616 444L510 472L464 479L554 486L661 527L723 609L723 707L677 818L585 873L479 901L372 887L296 832L236 776" style="fill-rule:nonzero;"/>
    </g>
</svg>
