<?xml version="1.0" encoding="UTF-8" standalone="no"?>
<!DOCTYPE svg PUBLIC "-//W3C//DTD SVG 1.1//EN" "http://www.w3.org/Graphics/SVG/1.1/DTD/svg11.dtd">
<svg width="100%" height="100%" viewBox="0 0 1024 1024" version="1.1" xmlns="http://www.w3.org/2000/svg" xmlns:xlink="http://www.w3.org/1999/xlink" xml:space="preserve" xmlns:serif="http://www.serif.com/" style="fill-rule:evenodd;clip-rule:evenodd;stroke-linejoin:round;stroke-miterlimit:2;">
    <path id="z65303d1" d="M378,300L661,276C617.667,348.667 578,422.667 542,498C506,573.333 471,651.333 437,732C427,755.333 419.667,772.333 415,783C409.667,793.667 406.667,801 406,805C404.667,809 404,812.333 404,815C404,823 408.667,828 418,830C427.333,831.333 435,832 441,832C455.667,832 463.667,828 465,820C469,805.333 473,792 477,780C480.333,767.333 483.667,756.667 487,748C506.333,700 527.667,650.667 551,600C573.667,548.667 597.667,498 623,448C648.333,398.667 673.667,351.333 699,306C701.667,302 706,296 712,288C717.333,280.667 721,274 723,268L723,266C723.667,266 724,265.667 724,265C724,257.667 719.333,250 710,242C701.333,234 692,229.667 682,229L679,229C675,229 671,229.667 667,231C663.667,232.333 655.667,233.667 643,235L358,254C355.333,254 352.667,254.333 350,255L342,255C334.667,255 328,254.667 322,254L305,254C301.667,254 300,255.667 300,259C300,260.333 301.667,264.667 305,272C309,279.333 314.333,286.333 321,293C328.333,299.667 337,303 347,303C352.333,303 357.333,302.667 362,302C367.333,300.667 372.667,300 378,300Z" style="fill-rule:nonzero;"/>
    <path id="z65303d2" d="M345,322C345,322 346,306.333 346,297C346.667,287.667 346,284.667 346,280C346,272.667 343.667,265 335,261C325.667,256.333 320.333,254 313,254C303,254 298,255 298,261C298,267 298.333,276.333 299,289C299.667,301 301,321 301,321C301,325 301.667,332 301,342C301,352 300.667,362.333 300,373L300,396C300,403.333 303.667,409 313,413C321.667,417 326,419 334,419C343.333,419 348,416.333 348,411C348,401 347.667,388.333 347,373C346.333,357 345.667,340 345,322Z" style="fill-rule:nonzero;"/>
    <clipPath id="_clip1">
        <path d="M378,300L661,276C617.667,348.667 578,422.667 542,498C506,573.333 471,651.333 437,732C427,755.333 419.667,772.333 415,783C409.667,793.667 406.667,801 406,805C404.667,809 404,812.333 404,815C404,823 408.667,828 418,830C427.333,831.333 435,832 441,832C455.667,832 463.667,828 465,820C469,805.333 473,792 477,780C480.333,767.333 483.667,756.667 487,748C506.333,700 527.667,650.667 551,600C573.667,548.667 597.667,498 623,448C648.333,398.667 673.667,351.333 699,306C701.667,302 706,296 712,288C717.333,280.667 721,274 723,268L723,266C723.667,266 724,265.667 724,265C724,257.667 719.333,250 710,242C701.333,234 692,229.667 682,229L679,229C675,229 671,229.667 667,231C663.667,232.333 655.667,233.667 643,235L358,254C355.333,254 352.667,254.333 350,255L342,255C334.667,255 328,254.667 322,254L305,254C301.667,254 300,255.667 300,259C300,260.333 301.667,264.667 305,272C309,279.333 314.333,286.333 321,293C328.333,299.667 337,303 347,303C352.333,303 357.333,302.667 362,302C367.333,300.667 372.667,300 378,300Z"/>
    </clipPath>
    <g clip-path="url(#_clip1)">
        <path d="M317,255L329,340L340,420" style="fill-rule:nonzero;"/>
    </g>
    <clipPath id="_clip2">
        <path d="M378,300L661,276C617.667,348.667 578,422.667 542,498C506,573.333 471,651.333 437,732C427,755.333 419.667,772.333 415,783C409.667,793.667 406.667,801 406,805C404.667,809 404,812.333 404,815C404,823 408.667,828 418,830C427.333,831.333 435,832 441,832C455.667,832 463.667,828 465,820C469,805.333 473,792 477,780C480.333,767.333 483.667,756.667 487,748C506.333,700 527.667,650.667 551,600C573.667,548.667 597.667,498 623,448C648.333,398.667 673.667,351.333 699,306C701.667,302 706,296 712,288C717.333,280.667 721,274 723,268L723,266C723.667,266 724,265.667 724,265C724,257.667 719.333,250 710,242C701.333,234 692,229.667 682,229L679,229C675,229 671,229.667 667,231C663.667,232.333 655.667,233.667 643,235L358,254C355.333,254 352.667,254.333 350,255L342,255C334.667,255 328,254.667 322,254L305,254C301.667,254 300,255.667 300,259C300,260.333 301.667,264.667 305,272C309,279.333 314.333,286.333 321,293C328.333,299.667 337,303 347,303C352.333,303 357.333,302.667 362,302C367.333,300.667 372.667,300 378,300Z"/>
    </clipPath>
    <g clip-path="url(#_clip2)">
        <path d="M383,285L521,275L676,275L587,450L499,620L432,770L410,820" style="fill-rule:nonzero;"/>
    </g>
</svg>
