<?xml version="1.0" encoding="UTF-8" standalone="no"?>
<!DOCTYPE svg PUBLIC "-//W3C//DTD SVG 1.1//EN" "http://www.w3.org/Graphics/SVG/1.1/DTD/svg11.dtd">
<svg width="100%" height="100%" viewBox="0 0 1024 1024" version="1.1" xmlns="http://www.w3.org/2000/svg" xmlns:xlink="http://www.w3.org/1999/xlink" xml:space="preserve" xmlns:serif="http://www.serif.com/" style="fill-rule:evenodd;clip-rule:evenodd;stroke-linejoin:round;stroke-miterlimit:2;">
    <path id="z65303d2" d="M354 256L687 227C636 313 590 400 547 488C505 577 464 669 424 764C412 791 403 811 398 824C392 836 388 845 387 850C386 854 385 858 385 861C385 871 390 877 401 879C412 881 421 881 428 881C446 881 455 877 457 867C461 850 466 834 471 820C475 805 479 793 483 783C505 726 530 668 558 608C585 548 613 488 643 430C672 372 702 316 732 263C735 258 740 251 747 241C754 233 758 225 760 218L760 216C761 216 761 215 761 214C761 206 756 197 745 187C735 178 724 173 712 172L708 172C704 172 699 173 694 174C690 176 681 177 666 179L331 201C328 201 325 202 321 203L312 203C303 203 296 202 288 201L268 201C265 201 263 203 263 207C263 209 265 214 268 223C273 231 279 239 287 247C296 255 306 259 318 259C324 259 330 259 336 258C342 256 348 256 354 256Z" style="fill-rule:nonzero;"/>
    <path id="z65303d1" d="M316 281C316 281 317 263 317 252C317 241 317 237 317 232C317 223 314 214 304 210C293 204 287 201 278 201C266 201 260 203 260 210C260 217 261 228 261 243C262 257 264 280 264 280C264 285 265 293 264 305C264 317 263 329 263 341L263 368C263 377 267 384 278 388C288 393 293 396 303 396C314 396 319 392 319 386C319 374 319 359 318 341C317 323 316 303 316 281Z" style="fill-rule:nonzero;"/>
    <clipPath id="_clip1">
        <path d="M326 195L718 161C658 262 604 365 553 468C504 573 456 681 408 793C394 825 384 848 378 864C371 878 366 888 365 894C364 899 363 904 363 907C363 919 368 926 381 928C394 931 405 931 413 931C434 931 445 926 447 914C452 894 458 875 464 859C468 841 473 827 478 815C504 748 533 680 566 609C598 539 631 468 666 400C700 332 736 266 771 204C774 198 780 189 788 178C797 168 801 159 804 151L804 148C805 148 805 147 805 146C805 136 799 126 786 114C774 104 761 98 747 96L743 96C738 96 732 98 726 99C721 101 711 102 693 105L299 131C296 131 292 132 287 133L277 133C266 133 258 132 248 131L225 131C221 131 219 133 219 138C219 140 221 146 225 156C231 166 238 175 247 185C258 194 270 199 284 199C291 199 298 199 305 198C312 195 319 195 326 195Z"/>
    </clipPath>
    <g clip-path="url(#_clip1)">
        <path d="M243 133L259 251L274 361" style="fill-rule:nonzero;"/>
    </g>
    <clipPath id="_clip2">
        <path d="M326 195L718 161C658 262 604 365 553 468C504 573 456 681 408 793C394 825 384 848 378 864C371 878 366 888 365 894C364 899 363 904 363 907C363 919 368 926 381 928C394 931 405 931 413 931C434 931 445 926 447 914C452 894 458 875 464 859C468 841 473 827 478 815C504 748 533 680 566 609C598 539 631 468 666 400C700 332 736 266 771 204C774 198 780 189 788 178C797 168 801 159 804 151L804 148C805 148 805 147 805 146C805 136 799 126 786 114C774 104 761 98 747 96L743 96C738 96 732 98 726 99C721 101 711 102 693 105L299 131C296 131 292 132 287 133L277 133C266 133 258 132 248 131L225 131C221 131 219 133 219 138C219 140 221 146 225 156C231 166 238 175 247 185C258 194 270 199 284 199C291 199 298 199 305 198C312 195 319 195 326 195Z"/>
    </clipPath>
    <g clip-path="url(#_clip2)">
        <path d="M333 174L525 160L739 160L616 402L494 638L401 845L371 914" style="fill-rule:nonzero;"/>
    </g>
</svg>
