<?xml version="1.0" encoding="UTF-8" standalone="no"?>
<!DOCTYPE svg PUBLIC "-//W3C//DTD SVG 1.1//EN" "http://www.w3.org/Graphics/SVG/1.1/DTD/svg11.dtd">
<svg width="100%" height="100%" viewBox="0 0 1024 1024" version="1.1" xmlns="http://www.w3.org/2000/svg" xmlns:xlink="http://www.w3.org/1999/xlink" xml:space="preserve" xmlns:serif="http://www.serif.com/" style="fill-rule:evenodd;clip-rule:evenodd;stroke-linejoin:round;stroke-miterlimit:2;">
    <path id="z65305d1c" d="M672,330C674.333,319.667 677.409,304.326 679,294C680.896,281.691 684.333,270.667 685,260C685,250 689,245 697,245L699,245C705.667,245.667 713.333,249 722,255C730.667,261 735,267 735,273C735,273.667 734.667,274.333 734,275L734,277C730,287 725,304.667 719,330C712.333,355.333 705.333,385.333 698,420C690.667,454.667 683.333,491.333 676,530C668.667,568.667 661.667,606.333 655,643C648.333,680.333 642.667,714.333 638,745C633.333,775 630,798.667 628,816C628,826.667 617,832.333 595,833L592,833C585.333,833 580.667,831.667 578,829C576,826.333 575,823 575,819C575,816.333 575.333,813.333 576,810C576.667,806 577.333,802.333 578,799C581.333,781.667 585.667,761 591,737C595.667,713 600.667,687.667 606,661C610.667,635 615.333,610.333 620,587C624.667,564.333 628.333,545 631,529C633.667,513.667 635.333,504.667 636,502C642.483,476.068 656.65,405.541 662,374L672,330Z"/>
    <path id="z65305d1b" d="M672,333C671.333,332.667 679,295 679,295C679.219,294.212 679.432,292.426 679.64,291.644C682.59,280.514 684.377,269.966 685,260C685,250 689,245 697,245L699,245C705.667,245.667 713.333,249 722,255C730.667,261 735,267 735,273C735,273.667 734.667,276.333 734,277C730,287 726,296.667 720,322C715.249,340.054 707.329,365.477 698.239,390.271C681.147,422.466 660.772,463.653 648.267,484.844C644.811,490.7 635.75,503.001 636,502C623.333,522 606.667,539.667 586,555C564.667,570.333 542,581.667 518,589C494,597 470.667,601 448,601C446.63,601 445.264,600.986 443.902,600.957C437.226,600.816 429.837,598.392 424.393,589.85C422.55,586.959 415.985,552.319 430.5,554.047C435.841,554.682 441.341,555 447,555C481.667,555 513,547.333 541,532C569,516.667 593.333,495 614,467C634.667,439.667 650.667,408.667 662,374L672,333Z"/>
    <path id="z65305d1a" d="M447.883,601C419.926,600.983 393.632,594.983 369,583C345,571 325.667,553.667 311,531C296.333,508.333 289,480.667 289,448C289,420 295,392.333 307,365C319,337.667 335.333,313 356,291C377.333,269.667 402,252.667 430,240C458,226.667 488,220 520,220C550.667,220 577.333,224.667 600,234C622.667,243.333 640.667,253.667 654,265C667.333,277 675.667,286.667 679,294C680.267,296.788 686.587,308.627 686.855,316.417C687.344,330.592 684.767,332.684 681.618,337.554C678.718,342.038 670,341 666,341C660.667,341 649.02,336.248 646,329C642.667,321 635.667,312 625,302C614.333,292 600.333,283.333 583,276C566.333,268.667 547,265 525,265C496.333,265 470.667,270.667 448,282C424.667,293.333 405,308 389,326C372.333,344 359.667,363.667 351,385C342.333,405.667 338,426 338,446C338,482 348.333,509 369,527C390.333,545.667 416.333,555 447,555C447.814,555 448.626,554.996 449.436,554.987C462.642,554.85 469.59,568.985 469.884,576.594C470.448,591.141 458.839,601.007 447.883,601Z"/>
    <clipPath id="_clip1">
        <path d="M592,833L595,833C617,832.333 628,826.667 628,816C630,798.667 633.333,775 638,745C642.667,714.333 648.333,680.333 655,643C661.667,606.333 668.667,568.667 676,530C683.333,491.333 690.667,454.667 698,420C705.333,385.333 712.333,355.333 719,330C725,304.667 730,287 734,277L734,275C734.667,274.333 735,273.667 735,273C735,267 730.667,261 722,255C713.333,249 705.667,245.667 699,245L697,245C689,245 685,250 685,260C684.333,270.667 682.333,282 679,294C675.667,286.667 667.333,277 654,265C640.667,253.667 622.667,243.333 600,234C577.333,224.667 550.667,220 520,220C488,220 458,226.667 430,240C402,252.667 377.333,269.667 356,291C335.333,313 319,337.667 307,365C295,392.333 289,420 289,448C289,480.667 296.333,508.333 311,531C325.667,553.667 345,571 369,583C393.667,595 420,601 448,601C470.667,601 494,597 518,589C542,581.667 564.667,570.333 586,555C606.667,539.667 623.333,522 636,502C635.333,504.667 633.667,513.667 631,529C628.333,545 624.667,564.333 620,587C615.333,610.333 610.667,635 606,661C600.667,687.667 595.667,713 591,737C585.667,761 581.333,781.667 578,799C577.333,802.333 576.667,806 576,810C575.333,813.333 575,816.333 575,819C575,823 576,826.333 578,829C580.667,831.667 585.333,833 592,833ZM672,333L662,374C650.667,408.667 634.667,439.667 614,467C593.333,495 569,516.667 541,532C513,547.333 481.667,555 447,555C416.333,555 390.333,545.667 369,527C348.333,509 338,482 338,446C338,426 342.333,405.667 351,385C359.667,363.667 372.333,344 389,326C405,308 424.667,293.333 448,282C470.667,270.667 496.333,265 525,265C547,265 566.333,268.667 583,276C600.333,283.333 614.333,292 625,302C635.667,312 642.667,321 646,329C649.333,336.333 653.667,340 659,340C663,340 667.333,337.667 672,333Z"/>
    </clipPath>
    <g clip-path="url(#_clip1)">
        <path d="M661,400L640,320L587,260L512,240L435,260L373,320L340,400L362,490L427,540L512,550L587,520L640,470L661,420L650,510L628,620L584,820" style="fill-rule:nonzero;"/>
    </g>
</svg>
