<?xml version="1.0" encoding="UTF-8" standalone="no"?>
<!DOCTYPE svg PUBLIC "-//W3C//DTD SVG 1.1//EN" "http://www.w3.org/Graphics/SVG/1.1/DTD/svg11.dtd">
<svg width="100%" height="100%" viewBox="0 0 1024 1024" version="1.1" xmlns="http://www.w3.org/2000/svg" xmlns:xlink="http://www.w3.org/1999/xlink" xml:space="preserve" xmlns:serif="http://www.serif.com/" style="fill-rule:evenodd;clip-rule:evenodd;stroke-linejoin:round;stroke-miterlimit:2;">
    <path id="z65304d1b" d="M520.188,837.486C512.641,837.829 504.912,838 497,838C433.667,838 383.333,823 346,793C309.333,763.667 291,725.333 291,678C291,639.333 303.333,604 328,572C353.333,540.667 387.333,512.667 430,488L478,459C494.667,451 514,440.333 536,427C558,414.333 580.333,400.333 603,385C625.667,369.667 646,355.667 664,343L661,343C660.625,343 685.468,324.545 683,328L691,322C697,316.667 702.667,314 708,314C718.667,314 724,319.333 724,330C724,336.667 721,343 715,349C698.333,365 678.333,381.333 655,398C631.667,415.333 608.667,431 586,445C563.333,459 544.667,470.333 530,479L479,508C435,534 401,561 377,589C353,617 341,645.667 341,675C341,695.667 347,715 359,733C370.333,750.333 388,764.667 412,776C435.333,787.333 463.667,793 497,793C504.696,793 512.209,792.787 519.539,792.36C534.87,791.468 540.932,803.582 543.347,814.863C545.325,824.102 533.483,836.881 520.188,837.486Z"/>
    <path id="z65304d1a" d="M479,508L430,488C400,475.333 374.333,459 353,439C332.333,419.667 322,392 322,356C322,318 337.667,285.667 369,259C400.333,233 445.333,220 504,220C534.667,220 561.333,224 584,232C607.333,239.333 626.667,248.667 642,260C657.333,271.333 668.667,282 676,292C684,302 688,308.667 688,312C688,318 686.333,323.333 683,328C683,328 675.697,337.067 668.527,341.749C666.225,343.252 662.781,343.858 664,343L661,343C654.333,343 648.667,339.667 644,333C630.667,311 611.333,293.667 586,281C560,268.333 532.333,262 503,262C462.333,262 430.333,271 407,289C383,307.667 371,330.333 371,357C371,384.333 381.333,405.333 402,420C422,434.667 447.333,447.667 478,459L530,479C554.667,487.667 579,497 603,507C627,516.333 648.667,528 668,542C688,556 704,573 716,593C727.333,613 733,637.667 733,667C733,721.667 712.333,763.667 671,793C630.236,822.117 574.4,837.104 503.492,837.961C487.28,838.157 489.173,824.965 489.211,822.566C489.362,813.03 493.375,793.315 509.596,792.804C540.508,791.832 568.309,787.23 593,779C621,769 643,755 659,737C675,718.333 683,696 683,670C683,646 677,625.667 665,609C653.667,591.667 638,577.333 618,566C598.667,554.667 577,544.333 553,535C529,525.667 504.333,516.667 479,508Z"/>
    <clipPath id="_clip1">
        <path d="M691,322L683,328C686.333,323.333 688,318 688,312C688,308.667 684,302 676,292C668.667,282 657.333,271.333 642,260C626.667,248.667 607.333,239.333 584,232C561.333,224 534.667,220 504,220C445.333,220 400.333,233 369,259C337.667,285.667 322,318 322,356C322,392 332.333,419.667 353,439C374.333,459 400,475.333 430,488C387.333,512.667 353.333,540.667 328,572C303.333,604 291,639.333 291,678C291,725.333 309.333,763.667 346,793C383.333,823 433.667,838 497,838C571,838 629,823 671,793C712.333,763.667 733,721.667 733,667C733,637.667 727.333,613 716,593C704,573 688,556 668,542C648.667,528 627,516.333 603,507C579,497 554.667,487.667 530,479C544.667,470.333 563.333,459 586,445C608.667,431 631.667,415.333 655,398C678.333,381.333 698.333,365 715,349C721,343 724,336.667 724,330C724,319.333 718.667,314 708,314C702.667,314 697,316.667 691,322ZM661,343L664,343C646,355.667 625.667,369.667 603,385C580.333,400.333 558,414.333 536,427C514,440.333 494.667,451 478,459C447.333,447.667 422,434.667 402,420C381.333,405.333 371,384.333 371,357C371,330.333 383,307.667 407,289C430.333,271 462.333,262 503,262C532.333,262 560,268.333 586,281C611.333,293.667 630.667,311 644,333C648.667,339.667 654.333,343 661,343ZM479,508C504.333,516.667 529,525.667 553,535C577,544.333 598.667,554.667 618,566C638,577.333 653.667,591.667 665,609C677,625.667 683,646 683,670C683,696 675,718.333 659,737C643,755 621,769 593,779C565,788.333 533,793 497,793C463.667,793 435.333,787.333 412,776C388,764.667 370.333,750.333 359,733C347,715 341,695.667 341,675C341,645.667 353,617 377,589C401,561 435,534 479,508Z"/>
    </clipPath>
    <g clip-path="url(#_clip1)">
        <path d="M512,240L421,260L355,320L344,390L399,450L488,490L576,530L642,590L675,670L631,750L554,800L488,810L410,800L344,750L322,670L355,580L433,520L609,440L664,380L675,320L631,260L565,240L512,240" style="fill-rule:nonzero;"/>
    </g>
</svg>
