<?xml version="1.0" encoding="UTF-8" standalone="no"?>
<!DOCTYPE svg PUBLIC "-//W3C//DTD SVG 1.1//EN" "http://www.w3.org/Graphics/SVG/1.1/DTD/svg11.dtd">
<svg width="100%" height="100%" viewBox="0 0 1024 1024" version="1.1" xmlns="http://www.w3.org/2000/svg" xmlns:xlink="http://www.w3.org/1999/xlink" xml:space="preserve" xmlns:serif="http://www.serif.com/" style="fill-rule:evenodd;clip-rule:evenodd;stroke-linejoin:round;stroke-miterlimit:2;">
    <path id="z65305d1c" d="M700 291C703 279 707 261 708 248C711 234 715 221 716 208C716 197 720 191 730 191L732 191C740 192 749 196 759 203C769 210 774 217 774 224C774 225 774 225 773 226L773 228C768 240 763 261 756 291C748 321 739 356 731 397C722 437 714 481 705 526C696 572 688 616 680 659C672 703 666 743 660 779C655 814 651 842 648 863C648 875 636 882 610 883L606 883C598 883 593 881 590 878C587 875 586 871 586 866C586 863 587 859 587 856C588 851 589 847 590 843C594 822 599 798 605 770C610 741 616 712 623 680C628 650 634 621 639 593C645 567 649 544 652 525C655 507 657 496 658 493C666 463 682 380 688 343L700 291Z"/>
    <path id="z65305d1b" d="M700 294C699 294 708 250 708 250C709 249 709 247 709 246C713 233 715 220 716 208C716 197 720 191 730 191L732 191C740 192 749 196 759 203C769 210 774 217 774 224C774 225 774 228 773 228C768 240 764 252 757 281C751 303 742 333 731 362C711 400 687 448 672 473C668 480 658 494 658 493C643 517 623 537 599 556C574 574 547 587 519 596C491 605 463 610 437 610C435 610 433 610 432 610C424 609 415 607 409 597C407 593 399 552 416 554C422 555 429 556 436 556C476 556 513 547 546 528C579 510 608 485 632 452C656 420 675 383 688 343L700 294Z"/>
    <path id="z65305d1a" d="M437 610C404 610 373 603 344 588C316 574 293 554 276 527C258 501 250 468 250 430C250 397 257 364 271 332C285 300 304 271 328 245C354 220 383 200 416 185C448 169 484 161 521 161C557 161 589 167 616 178C642 189 663 201 679 214C695 228 705 240 708 248C710 252 717 266 718 275C718 292 715 294 712 300C708 305 698 304 693 304C687 304 673 298 670 290C666 280 657 270 645 258C632 246 616 236 596 227C576 219 553 214 527 214C494 214 463 221 437 234C409 248 386 265 367 286C348 307 333 330 323 356C312 380 307 404 307 427C307 470 319 501 344 523C369 545 399 556 436 556C436 556 437 556 438 556C454 555 462 572 462 581C463 598 449 610 437 610Z"/>
    <clipPath id="_clip1">
        <path d="M623 933L627 933C658 932 672 924 672 909C676 885 680 852 686 811C693 768 700 721 710 669C719 619 728 567 739 513C750 460 759 408 770 361C779 313 790 272 799 236C807 201 813 176 819 162L819 160C820 159 820 159 820 158C820 149 814 141 803 133C791 125 780 120 771 119L768 119C757 119 752 126 752 139C751 154 747 169 743 186C739 176 727 162 708 146C690 131 665 116 634 104C603 91 565 84 523 84C479 84 437 93 399 112C360 129 326 153 296 182C267 213 245 247 228 285C212 322 204 361 204 400C204 445 213 484 234 514C254 546 281 569 314 586C348 604 385 612 424 612C454 612 487 606 520 595C553 585 585 569 614 548C643 526 666 502 684 474C683 478 680 491 677 512C673 534 668 561 661 592C656 625 648 659 643 694C634 732 627 766 621 800C614 833 608 861 604 886C603 891 601 895 600 901C600 905 599 909 599 913C599 919 600 924 604 927C607 931 613 933 623 933ZM733 240L719 298C704 345 681 388 653 426C625 465 591 494 552 515C513 538 470 548 423 548C379 548 344 535 314 509C285 484 271 447 271 396C271 369 277 341 290 313C301 282 319 255 341 231C364 206 391 186 424 169C454 154 491 146 530 146C560 146 587 152 611 161C634 172 653 184 668 198C683 212 693 224 698 235C703 245 708 251 716 251C721 251 727 247 733 240Z"/>
    </clipPath>
    <g clip-path="url(#_clip1)">
        <path d="M718 333L690 222L616 139L512 112L405 139L319 222L274 333L305 458L394 527L512 541L616 499L690 431L718 361L703 486L672 638L612 914" style="fill-rule:nonzero;"/>
    </g>
</svg>
