<?xml version="1.0" encoding="UTF-8" standalone="no"?>
<!DOCTYPE svg PUBLIC "-//W3C//DTD SVG 1.1//EN" "http://www.w3.org/Graphics/SVG/1.1/DTD/svg11.dtd">
<svg width="100%" height="100%" viewBox="0 0 1024 1024" version="1.1" xmlns="http://www.w3.org/2000/svg" xmlns:xlink="http://www.w3.org/1999/xlink" xml:space="preserve" xmlns:serif="http://www.serif.com/" style="fill-rule:evenodd;clip-rule:evenodd;stroke-linejoin:round;stroke-miterlimit:2;">
    <path id="z65301d1" d="M677,227L675,227C666.333,228.333 656.667,229.333 646,230C635.333,231.333 624,232.333 612,233L415,247C408,247.333 402.667,248 396,246C388.667,244 398.679,291.936 409,292C409.85,292.005 620,278 620,278C634.667,277.333 648.667,277 662,277C674.667,277 685.333,276.667 694,276C701.333,276 705,272 705,264C705,256.667 702,248.667 696,240C690,231.333 683.667,227 677,227Z" style="fill-rule:nonzero;"/>
    <path id="z65301d2" d="M409,292C411.507,277.076 425,250.667 415,247C408.835,244.74 402.667,242 396,240C388.667,238 382.667,237 378,237C369.333,237 365,240 365,246L365,263C365,269.667 364.333,276.333 363,283L328,489L318,519C317.333,520.333 317,522.667 317,526C317,536.667 321,545.667 329,553C337,561 344.333,565 351,565C354.333,565 357,563.667 359,561C373,547 386.333,535 399,525C411.667,515 427.667,507.333 447,502C466.333,496.667 492.333,494 525,494C570.333,494 607.667,506 637,530C667,554 682,588.667 682,634C682,680 666.333,717.667 635,747C603.667,776.333 556,791 492,791C456.667,791 426,784.333 400,771C374.667,758.333 351,737 329,707C324.333,700.333 320,697 316,697C309.333,697 303.667,701.333 299,710C294.333,718.667 292,727.333 292,736C292,744.667 294.333,751.333 299,756C329,785.333 358.667,806.333 388,819C417.333,831.667 452,838 492,838C546.667,838 591.667,828.667 627,810C662.333,792 688.667,767.667 706,737C723.333,706.333 732,671.667 732,633C732,592.333 722.667,558.667 704,532C684.667,505.333 660,485 630,471C599.333,457 566.667,450 532,450C494,450 463,453.667 439,461C415,467.667 393,479.667 373,497C373,497 402,333.667 409,292Z" style="fill-rule:nonzero;"/>
    <clipPath id="_clip1">
        <path d="M677,227L675,227C666.333,228.333 656.667,229.333 646,230C635.333,231.333 624,232.333 612,233L415,247C409,244.333 402.667,242 396,240C388.667,238 382.667,237 378,237C369.333,237 365,240 365,246L365,263C365,269.667 364.333,276.333 363,283L328,489L318,519C317.333,520.333 317,522.667 317,526C317,536.667 321,545.667 329,553C337,561 344.333,565 351,565C354.333,565 357,563.667 359,561C373,547 386.333,535 399,525C411.667,515 427.667,507.333 447,502C466.333,496.667 492.333,494 525,494C570.333,494 607.667,506 637,530C667,554 682,588.667 682,634C682,680 666.333,717.667 635,747C603.667,776.333 556,791 492,791C456.667,791 426,784.333 400,771C374.667,758.333 351,737 329,707C324.333,700.333 320,697 316,697C309.333,697 303.667,701.333 299,710C294.333,718.667 292,727.333 292,736C292,744.667 294.333,751.333 299,756C329,785.333 358.667,806.333 388,819C417.333,831.667 452,838 492,838C546.667,838 591.667,828.667 627,810C662.333,792 688.667,767.667 706,737C723.333,706.333 732,671.667 732,633C732,592.333 722.667,558.667 704,532C684.667,505.333 660,485 630,471C599.333,457 566.667,450 532,450C494,450 463,453.667 439,461C415,467.667 393,479.667 373,497L409,292L620,278C634.667,277.333 648.667,277 662,277C674.667,277 685.333,276.667 694,276C701.333,276 705,272 705,264C705,256.667 702,248.667 696,240C690,231.333 683.667,227 677,227Z"/>
    </clipPath>
    <g clip-path="url(#_clip1)">
        <path d="M687,260L388,260" style="fill-rule:nonzero;"/>
    </g>
    <clipPath id="_clip2">
        <path d="M677,227L675,227C666.333,228.333 656.667,229.333 646,230C635.333,231.333 624,232.333 612,233L415,247C409,244.333 402.667,242 396,240C388.667,238 382.667,237 378,237C369.333,237 365,240 365,246L365,263C365,269.667 364.333,276.333 363,283L328,489L318,519C317.333,520.333 317,522.667 317,526C317,536.667 321,545.667 329,553C337,561 344.333,565 351,565C354.333,565 357,563.667 359,561C373,547 386.333,535 399,525C411.667,515 427.667,507.333 447,502C466.333,496.667 492.333,494 525,494C570.333,494 607.667,506 637,530C667,554 682,588.667 682,634C682,680 666.333,717.667 635,747C603.667,776.333 556,791 492,791C456.667,791 426,784.333 400,771C374.667,758.333 351,737 329,707C324.333,700.333 320,697 316,697C309.333,697 303.667,701.333 299,710C294.333,718.667 292,727.333 292,736C292,744.667 294.333,751.333 299,756C329,785.333 358.667,806.333 388,819C417.333,831.667 452,838 492,838C546.667,838 591.667,828.667 627,810C662.333,792 688.667,767.667 706,737C723.333,706.333 732,671.667 732,633C732,592.333 722.667,558.667 704,532C684.667,505.333 660,485 630,471C599.333,457 566.667,450 532,450C494,450 463,453.667 439,461C415,467.667 393,479.667 373,497L409,292L620,278C634.667,277.333 648.667,277 662,277C674.667,277 685.333,276.667 694,276C701.333,276 705,272 705,264C705,256.667 702,248.667 696,240C690,231.333 683.667,227 677,227Z"/>
    </clipPath>
    <g clip-path="url(#_clip2)">
        <path d="M388,260L366,420L388,500L488,480L565,490L631,520L675,580L675,670L631,740L554,790L455,800L366,770" style="fill-rule:nonzero;"/>
    </g>
</svg>
