<?xml version="1.0" encoding="UTF-8" standalone="no"?>
<!DOCTYPE svg PUBLIC "-//W3C//DTD SVG 1.1//EN" "http://www.w3.org/Graphics/SVG/1.1/DTD/svg11.dtd">
<svg width="100%" height="100%" viewBox="0 0 1024 1024" version="1.1" xmlns="http://www.w3.org/2000/svg" xmlns:xlink="http://www.w3.org/1999/xlink" xml:space="preserve" xmlns:serif="http://www.serif.com/" style="fill-rule:evenodd;clip-rule:evenodd;stroke-linejoin:round;stroke-miterlimit:2;">
    <path id="z65300d1" d="M653 710L684 708C705 708 725 709 745 710C764 710 777 711 784 711C792 711 796 707 796 698C796 689 792 679 785 668C779 658 771 653 761 653C754 653 743 654 728 656C714 657 698 658 683 659L668 659C664 660 659 660 653 660L597 663C562 664 527 666 492 667C457 668 425 669 396 671C366 672 342 672 325 673C307 674 298 674 298 674C321 644 345 611 370 576C395 540 419 505 444 470C469 434 492 399 514 367C537 334 557 305 574 279C580 271 585 263 591 253C597 245 605 234 613 223C616 220 617 216 617 211C617 201 612 190 601 179C592 167 583 161 576 161C571 161 568 164 566 168C558 188 545 213 527 243C510 272 490 305 467 339C445 373 422 407 398 443C374 478 351 511 328 541C307 572 288 598 272 620C256 643 244 659 237 667C231 674 228 681 228 688C228 699 234 708 245 718C255 727 265 731 276 731C279 731 282 730 283 730C291 728 299 727 306 725C314 724 320 724 324 724C324 724 332 723 350 723C367 722 388 721 413 720C439 719 465 717 492 717C519 716 542 715 561 714C580 714 592 713 596 713L597 713L653 710Z" style="fill-rule:nonzero;"/>
    <path id="z65300d2" d="M653 710C653 710 653 665 653 660L653 424C654 412 654 401 654 390C655 379 656 370 656 365C656 356 650 350 639 345C629 339 619 337 610 337C599 337 594 340 594 347L594 380C595 394 596 408 596 423C596 437 597 447 597 454L597 663C596 663 597 713 597 713L597 792C596 804 596 816 596 828L596 856C596 864 601 871 611 876C622 880 632 883 640 883C651 883 657 879 657 873C657 861 656 847 656 828C655 810 654 790 653 768L653 710Z" style="fill-rule:nonzero;"/>
    <clipPath id="_clip1">
        <path d="M678 729L714 727C739 727 763 728 786 729C808 729 824 731 832 731C841 731 846 726 846 715C846 705 841 693 833 680C826 668 817 662 805 662C797 662 784 664 766 666C750 667 731 668 713 669L696 669C691 671 685 671 678 671L678 393C679 379 679 366 679 353C680 340 681 329 681 324C681 313 674 306 661 300C650 293 638 291 627 291C614 291 608 294 608 302L608 341C610 358 611 374 611 392C611 408 612 420 612 428L612 674C571 675 530 678 488 679C447 680 410 681 376 684C340 685 312 685 292 686C271 687 260 687 260 687C287 652 316 613 345 572C374 529 403 488 432 447C461 405 488 364 514 326C541 287 565 253 585 222C592 213 598 204 605 192C612 182 621 169 631 156C634 153 636 148 636 142C636 131 630 118 617 105C606 91 596 84 587 84C581 84 578 87 576 92C566 115 551 145 530 180C510 214 486 253 459 293C433 333 406 373 378 415C350 456 323 495 296 531C271 567 248 598 230 624C211 651 197 669 188 679C181 687 178 695 178 704C178 716 185 727 198 739C210 749 221 754 234 754C238 754 241 753 243 753C252 751 261 749 270 747C279 746 286 746 291 746C291 746 300 745 321 745C341 744 366 742 396 741C426 740 457 738 488 738C520 736 547 735 570 734C592 734 606 733 611 733L612 733L612 826C611 840 611 854 611 868L611 901C611 911 617 919 628 925C641 929 653 933 663 933C676 933 683 928 683 921C683 907 681 891 681 868C680 847 679 824 678 798L678 729Z"/>
    </clipPath>
    <g clip-path="url(#_clip1)">
        <path d="M623 112L387 472L206 707L494 707L827 693" style="fill-rule:nonzero;"/>
    </g>
    <clipPath id="_clip2">
        <path d="M678 729L714 727C739 727 763 728 786 729C808 729 824 731 832 731C841 731 846 726 846 715C846 705 841 693 833 680C826 668 817 662 805 662C797 662 784 664 766 666C750 667 731 668 713 669L696 669C691 671 685 671 678 671L678 393C679 379 679 366 679 353C680 340 681 329 681 324C681 313 674 306 661 300C650 293 638 291 627 291C614 291 608 294 608 302L608 341C610 358 611 374 611 392C611 408 612 420 612 428L612 674C571 675 530 678 488 679C447 680 410 681 376 684C340 685 312 685 292 686C271 687 260 687 260 687C287 652 316 613 345 572C374 529 403 488 432 447C461 405 488 364 514 326C541 287 565 253 585 222C592 213 598 204 605 192C612 182 621 169 631 156C634 153 636 148 636 142C636 131 630 118 617 105C606 91 596 84 587 84C581 84 578 87 576 92C566 115 551 145 530 180C510 214 486 253 459 293C433 333 406 373 378 415C350 456 323 495 296 531C271 567 248 598 230 624C211 651 197 669 188 679C181 687 178 695 178 704C178 716 185 727 198 739C210 749 221 754 234 754C238 754 241 753 243 753C252 751 261 749 270 747C279 746 286 746 291 746C291 746 300 745 321 745C341 744 366 742 396 741C426 740 457 738 488 738C520 736 547 735 570 734C592 734 606 733 611 733L612 733L612 826C611 840 611 854 611 868L611 901C611 911 617 919 628 925C641 929 653 933 663 933C676 933 683 928 683 921C683 907 681 891 681 868C680 847 679 824 678 798L678 729Z"/>
    </clipPath>
    <g clip-path="url(#_clip2)">
        <path d="M645 98L645 914" style="fill:none;fill-rule:nonzero;"/>
    </g>
</svg>
