<?xml version="1.0" encoding="UTF-8" standalone="no"?>
<!DOCTYPE svg PUBLIC "-//W3C//DTD SVG 1.1//EN" "http://www.w3.org/Graphics/SVG/1.1/DTD/svg11.dtd">
<svg width="100%" height="100%" viewBox="0 0 1024 1024" version="1.1" xmlns="http://www.w3.org/2000/svg" xmlns:xlink="http://www.w3.org/1999/xlink" xml:space="preserve" xmlns:serif="http://www.serif.com/" style="fill-rule:evenodd;clip-rule:evenodd;stroke-linejoin:round;stroke-miterlimit:2;">
    <path id="z65300d1" d="M632,686L658,685C676,685 693.333,685.333 710,686C726,686.667 737,687 743,687C749.667,687 753,683.333 753,676C753,668.667 750,660.333 744,651C738.667,642.333 732,638 724,638C718,638 708.667,638.667 696,640C683.333,641.333 670.333,642.333 657,643L645,643C641,643.667 636.667,644 632,644L584,646C554.667,647.333 525,648.667 495,650C465,650.667 437.667,651.667 413,653C387.667,653.667 367.667,654.333 353,655C337.667,655.667 330,656 330,656C350,630 370.333,602 391,572C412.333,542 433.333,512 454,482C475.333,451.333 495.333,422.333 514,395C533.333,367 550.333,342 565,320C569.667,313.333 574.333,306 579,298C584.333,290.667 590.667,282 598,272C600,270 601,266.667 601,262C601,253.333 596.667,244.333 588,235C580,225 572.667,220 566,220C562,220 559.333,222 558,226C551.333,242.667 540.333,263.667 525,289C510.333,314.333 493.333,341.667 474,371C455.333,399.667 435.667,429 415,459C395,489 375.333,517 356,543C337.333,569 321.333,591.333 308,610C294,629.333 284,642.667 278,650C273.333,656 271,662 271,668C271,676.667 275.667,685 285,693C293.667,700.333 302.333,704 311,704C314.333,704 316.333,703.667 317,703C324.333,701.667 331,700.333 337,699C343.667,698.333 348.667,698 352,698C352,698 359.333,697.667 374,697C388.667,696.333 406.667,695.667 428,695C450,693.667 472.333,692.667 495,692C517.667,691.333 537.333,690.667 554,690C570,689.333 579.667,689 583,689L584,689L632,686Z" style="fill-rule:nonzero;"/>
    <path id="z65300d2" d="M632,686C632,686 631.667,648 632,644L632,443C632.667,433 633,423.333 633,414C633.667,404.667 634,397.667 634,393C634,385.667 629.333,380 620,376C611.333,371.333 603,369 595,369C586.333,369 582,372 582,378L582,406C582.667,418 583,430 583,442C583.667,454 584,463 584,469L584,646C583.667,646.333 584,689 584,689L584,756C583.333,766 583,776.333 583,787L583,810C583,817.333 587.333,823 596,827C605.333,831 613.667,833 621,833C630.333,833 635,830.333 635,825C635,815 634.667,802.333 634,787C633.333,771 632.667,754 632,736L632,686Z" style="fill-rule:nonzero;"/>
    <clipPath id="_clip1">
        <path d="M632,686L658,685C676,685 693.333,685.333 710,686C726,686.667 737,687 743,687C749.667,687 753,683.333 753,676C753,668.667 750,660.333 744,651C738.667,642.333 732,638 724,638C718,638 708.667,638.667 696,640C683.333,641.333 670.333,642.333 657,643L645,643C641,643.667 636.667,644 632,644L632,443C632.667,433 633,423.333 633,414C633.667,404.667 634,397.667 634,393C634,385.667 629.333,380 620,376C611.333,371.333 603,369 595,369C586.333,369 582,372 582,378L582,406C582.667,418 583,430 583,442C583.667,454 584,463 584,469L584,646C554.667,647.333 525,648.667 495,650C465,650.667 437.667,651.667 413,653C387.667,653.667 367.667,654.333 353,655C337.667,655.667 330,656 330,656C350,630 370.333,602 391,572C412.333,542 433.333,512 454,482C475.333,451.333 495.333,422.333 514,395C533.333,367 550.333,342 565,320C569.667,313.333 574.333,306 579,298C584.333,290.667 590.667,282 598,272C600,270 601,266.667 601,262C601,253.333 596.667,244.333 588,235C580,225 572.667,220 566,220C562,220 559.333,222 558,226C551.333,242.667 540.333,263.667 525,289C510.333,314.333 493.333,341.667 474,371C455.333,399.667 435.667,429 415,459C395,489 375.333,517 356,543C337.333,569 321.333,591.333 308,610C294,629.333 284,642.667 278,650C273.333,656 271,662 271,668C271,676.667 275.667,685 285,693C293.667,700.333 302.333,704 311,704C314.333,704 316.333,703.667 317,703C324.333,701.667 331,700.333 337,699C343.667,698.333 348.667,698 352,698C352,698 359.333,697.667 374,697C388.667,696.333 406.667,695.667 428,695C450,693.667 472.333,692.667 495,692C517.667,691.333 537.333,690.667 554,690C570,689.333 579.667,689 583,689L584,689L584,756C583.333,766 583,776.333 583,787L583,810C583,817.333 587.333,823 596,827C605.333,831 613.667,833 621,833C630.333,833 635,830.333 635,825C635,815 634.667,802.333 634,787C633.333,771 632.667,754 632,736L632,686Z"/>
    </clipPath>
    <g clip-path="url(#_clip1)">
        <path d="M592,240L422,500L291,670L499,670L740,660" style="fill-rule:nonzero;"/>
    </g>
    <clipPath id="_clip2">
        <path d="M632,686L658,685C676,685 693.333,685.333 710,686C726,686.667 737,687 743,687C749.667,687 753,683.333 753,676C753,668.667 750,660.333 744,651C738.667,642.333 732,638 724,638C718,638 708.667,638.667 696,640C683.333,641.333 670.333,642.333 657,643L645,643C641,643.667 636.667,644 632,644L632,443C632.667,433 633,423.333 633,414C633.667,404.667 634,397.667 634,393C634,385.667 629.333,380 620,376C611.333,371.333 603,369 595,369C586.333,369 582,372 582,378L582,406C582.667,418 583,430 583,442C583.667,454 584,463 584,469L584,646C554.667,647.333 525,648.667 495,650C465,650.667 437.667,651.667 413,653C387.667,653.667 367.667,654.333 353,655C337.667,655.667 330,656 330,656C350,630 370.333,602 391,572C412.333,542 433.333,512 454,482C475.333,451.333 495.333,422.333 514,395C533.333,367 550.333,342 565,320C569.667,313.333 574.333,306 579,298C584.333,290.667 590.667,282 598,272C600,270 601,266.667 601,262C601,253.333 596.667,244.333 588,235C580,225 572.667,220 566,220C562,220 559.333,222 558,226C551.333,242.667 540.333,263.667 525,289C510.333,314.333 493.333,341.667 474,371C455.333,399.667 435.667,429 415,459C395,489 375.333,517 356,543C337.333,569 321.333,591.333 308,610C294,629.333 284,642.667 278,650C273.333,656 271,662 271,668C271,676.667 275.667,685 285,693C293.667,700.333 302.333,704 311,704C314.333,704 316.333,703.667 317,703C324.333,701.667 331,700.333 337,699C343.667,698.333 348.667,698 352,698C352,698 359.333,697.667 374,697C388.667,696.333 406.667,695.667 428,695C450,693.667 472.333,692.667 495,692C517.667,691.333 537.333,690.667 554,690C570,689.333 579.667,689 583,689L584,689L584,756C583.333,766 583,776.333 583,787L583,810C583,817.333 587.333,823 596,827C605.333,831 613.667,833 621,833C630.333,833 635,830.333 635,825C635,815 634.667,802.333 634,787C633.333,771 632.667,754 632,736L632,686Z"/>
    </clipPath>
    <g clip-path="url(#_clip2)">
        <path d="M608,230L608,820" style="fill:none;fill-rule:nonzero;"/>
    </g>
</svg>
