<?xml version="1.0" encoding="UTF-8" standalone="no"?>
<!DOCTYPE svg PUBLIC "-//W3C//DTD SVG 1.1//EN" "http://www.w3.org/Graphics/SVG/1.1/DTD/svg11.dtd">
<svg width="100%" height="100%" viewBox="0 0 1024 1024" version="1.1" xmlns="http://www.w3.org/2000/svg" xmlns:xlink="http://www.w3.org/1999/xlink" xml:space="preserve" xmlns:serif="http://www.serif.com/" style="fill-rule:evenodd;clip-rule:evenodd;stroke-linejoin:round;stroke-miterlimit:2;">
    <path id="z65302d1a" d="M494.729,837.669C455.657,836.05 421.747,828.493 393,815C359.667,800.333 334,779.333 316,752C298.667,725.333 290,694.333 290,659C290,617 297,578 311,542C324.333,505.333 343,467.333 367,428C387,395.333 409.333,363.333 434,332C458.667,300.667 480,273 498,249L509,231C511,227 514.333,224.333 519,223C523.667,221 528.667,220 534,220C536,220 540.333,220.667 547,222C553.667,222.667 560,224.333 566,227C572.667,229.667 576,233.333 576,238C576,241.333 574.667,244.667 572,248C569.333,251.333 566.667,254.333 564,257C540,281 517.667,306 497,332C475.667,358 456.667,383.333 440,408C423.333,432.667 409.333,455 398,475C386.667,494.333 378.333,509.667 373,521C373,521 363.685,538.953 354.929,564.87C347.993,585.397 343.939,624.962 342.247,637.7C341.416,643.955 341,650.388 341,657C341,699 355.333,732.333 384,757C406.754,776.579 438.117,788.387 478.091,792.426C489.574,799.198 509.476,810.876 503.964,824.881C500.812,832.89 500.555,834.443 494.729,837.669Z"/>
    <path id="z65302d1b" d="M377.296,516.071C393.385,498.409 413.954,484.385 439,474C466.333,463.333 496.333,458 529,458C567.667,458 602.333,465 633,479C663.667,493.667 688.333,514 707,540C725,566 734,596.667 734,632C734,671.333 726,706.333 710,737C694,768.333 669.667,793 637,811C604.333,829 562.333,838 511,838C505.48,838 500.057,837.89 494.729,837.669C483.131,837.188 472.435,828.155 464.964,823.881C447.476,813.876 445.574,792.198 478.091,792.426C488.479,793.475 499.449,794 511,794C569.667,794 613,779.333 641,750C669,721.333 683,682.667 683,634C683,608.667 676.667,586 664,566C651.333,545.333 633.333,529.333 610,518C586.667,506 558.667,500 526,500C496.667,500 467.667,506.667 439,520C410.333,532.667 387,551 369,575C354.272,593.41 345.354,614.31 342.247,637.7C339.02,641.169 334.919,643.459 332.264,636.872C327.223,624.365 326.77,598.506 335.929,578.87C345.685,557.953 352.955,542.79 377.296,516.071Z"/>
    <clipPath id="_clip1">
        <path d="M509,231L498,249C480,273 458.667,300.667 434,332C409.333,363.333 387,395.333 367,428C343,467.333 324.333,505.333 311,542C297,578 290,617 290,659C290,694.333 298.667,725.333 316,752C334,779.333 359.667,800.333 393,815C425.667,830.333 465,838 511,838C562.333,838 604.333,829 637,811C669.667,793 694,768.333 710,737C726,706.333 734,671.333 734,632C734,596.667 725,566 707,540C688.333,514 663.667,493.667 633,479C602.333,465 567.667,458 529,458C496.333,458 466.333,463.333 439,474C411.667,485.333 389.667,501 373,521C378.333,509.667 386.667,494.333 398,475C409.333,455 423.333,432.667 440,408C456.667,383.333 475.667,358 497,332C517.667,306 540,281 564,257C566.667,254.333 569.333,251.333 572,248C574.667,244.667 576,241.333 576,238C576,233.333 572.667,229.667 566,227C560,224.333 553.667,222.667 547,222C540.333,220.667 536,220 534,220C528.667,220 523.667,221 519,223C514.333,224.333 511,227 509,231ZM683,634C683,682.667 669,721.333 641,750C613,779.333 569.667,794 511,794C455,794 412.667,781.667 384,757C355.333,732.333 341,699 341,657C341,625.667 350.333,598.333 369,575C387,551 410.333,532.667 439,520C467.667,506.667 496.667,500 526,500C558.667,500 586.667,506 610,518C633.333,529.333 651.333,545.333 664,566C676.667,586 683,608.667 683,634Z"/>
    </clipPath>
    <g clip-path="url(#_clip1)">
        <path d="M565,240L488,320L422,420L367,520L323,610L301,680L334,750L400,800L488,820L576,800L653,760L697,680L697,610L653,530L576,480L488,470L400,490L356,520" style="fill-rule:nonzero;"/>
    </g>
</svg>
