<?xml version="1.0" encoding="UTF-8" standalone="no"?>
<!DOCTYPE svg PUBLIC "-//W3C//DTD SVG 1.1//EN" "http://www.w3.org/Graphics/SVG/1.1/DTD/svg11.dtd">
<svg width="100%" height="100%" viewBox="0 0 1024 1024" version="1.1" xmlns="http://www.w3.org/2000/svg" xmlns:xlink="http://www.w3.org/1999/xlink" xml:space="preserve" xmlns:serif="http://www.serif.com/" style="fill-rule:evenodd;clip-rule:evenodd;stroke-linejoin:round;stroke-miterlimit:2;">
    <path id="z65304d1b" d="M522 888C513 888 504 888 494 888C420 888 361 871 317 836C274 801 252 756 252 700C252 655 267 613 296 576C325 539 365 506 416 477L472 443C492 433 514 421 540 405C566 390 592 374 619 356C646 337 670 321 691 306L687 306C687 306 716 284 713 288L723 281C730 275 736 272 743 272C755 272 761 278 761 291C761 299 758 306 751 313C731 332 708 351 680 371C653 391 626 410 599 426C572 443 550 456 533 466L473 500C421 531 381 563 353 596C325 628 311 662 311 697C311 721 318 744 332 765C345 785 366 802 394 816C422 829 455 836 494 836C503 836 512 835 521 835C539 834 546 848 549 861C551 872 537 887 522 888Z"/>
    <path id="z65304d1a" d="M473 500L416 477C380 462 350 443 325 419C301 396 288 364 288 321C288 277 307 239 344 207C381 177 434 161 503 161C539 161 570 166 597 176C624 184 647 195 665 208C683 222 696 234 705 246C714 258 719 266 719 270C719 277 717 283 713 288C713 288 705 299 696 305C693 306 689 307 691 306L687 306C679 306 673 302 667 294C652 268 629 248 599 233C568 218 536 211 501 211C454 211 416 221 388 243C360 265 346 291 346 323C346 355 358 379 383 397C406 414 436 429 472 443L533 466C562 476 591 487 619 499C647 510 673 524 696 540C719 557 738 577 752 600C765 624 772 653 772 687C772 752 748 801 699 836C651 870 585 887 502 888C483 889 485 873 485 870C485 859 490 836 509 835C546 834 578 829 607 819C640 807 666 791 685 770C704 748 713 721 713 691C713 663 706 639 692 619C679 599 660 582 637 568C614 555 588 543 560 532C532 521 503 510 473 500Z"/>
    <clipPath id="_clip1">
        <path d="M760 225L748 233C753 227 756 220 756 212C756 207 750 198 739 184C728 169 713 155 692 139C671 124 644 111 612 101C580 89 544 84 501 84C420 84 358 102 314 138C271 175 248 220 248 272C248 322 264 360 292 387C321 415 357 438 399 455C339 489 292 528 258 572C224 615 206 665 206 718C206 784 232 836 283 878C334 919 404 939 491 939C593 939 674 919 732 878C790 836 818 779 818 702C818 662 810 628 794 600C778 573 756 549 728 529C701 511 671 494 638 481C605 467 571 454 537 442C557 431 583 415 614 395C646 376 678 354 710 331C743 307 770 285 793 262C801 254 805 246 805 236C805 221 798 214 784 214C776 214 768 218 760 225ZM718 254L723 254C698 272 670 291 638 313C606 334 576 353 545 371C514 389 488 404 465 415C423 399 387 381 360 361C331 340 317 312 317 274C317 236 333 206 366 180C399 154 444 142 499 142C540 142 578 151 614 168C650 186 677 209 694 240C701 249 708 254 718 254ZM466 482C501 494 536 507 568 520C601 533 632 547 659 562C686 579 708 599 724 622C740 646 748 674 748 707C748 742 738 774 716 800C693 825 663 844 624 858C585 871 541 878 491 878C445 878 406 869 373 854C340 838 316 818 300 794C284 769 276 742 276 714C276 673 292 633 325 595C358 556 405 519 466 482Z"/>
    </clipPath>
    <g clip-path="url(#_clip1)">
        <path d="M512 112L386 139L294 222L279 319L356 402L479 458L600 513L692 596L738 707L677 818L570 887L479 901L371 887L279 818L248 707L294 582L403 499L646 388L723 306L738 222L677 139L585 112L512 112" style="fill-rule:nonzero;"/>
    </g>
</svg>
