<?xml version="1.0" encoding="UTF-8" standalone="no"?>
<!DOCTYPE svg PUBLIC "-//W3C//DTD SVG 1.1//EN" "http://www.w3.org/Graphics/SVG/1.1/DTD/svg11.dtd">
<svg width="100%" height="100%" viewBox="0 0 1024 1024" version="1.1" xmlns="http://www.w3.org/2000/svg" xmlns:xlink="http://www.w3.org/1999/xlink" xml:space="preserve" xmlns:serif="http://www.serif.com/" style="fill-rule:evenodd;clip-rule:evenodd;stroke-linejoin:round;stroke-miterlimit:2;">
    <path id="z65302d1a" d="M492 888C446 886 406 877 372 861C333 844 303 819 281 787C261 756 251 719 251 678C251 628 259 583 276 540C291 497 313 452 341 406C365 368 391 330 420 293C449 256 474 224 496 196L508 174C511 170 515 167 520 165C526 163 532 161 538 161C540 161 545 162 553 164C561 165 568 167 576 170C583 173 587 177 587 183C587 187 586 190 583 194C579 198 576 202 573 205C545 233 519 263 494 293C469 324 447 354 427 383C408 412 391 438 378 461C365 484 355 502 348 516C348 516 338 537 327 567C319 591 314 638 312 653C311 660 311 668 311 676C311 725 328 764 361 793C388 816 425 830 472 835C486 843 509 857 503 873C499 882 499 884 492 888Z"/>
    <path id="z65302d1b" d="M354 510C372 489 397 472 426 460C458 448 494 441 532 441C577 441 618 450 654 466C690 483 719 507 741 538C763 568 773 605 773 646C773 692 764 734 745 770C726 807 697 836 659 857C621 878 571 888 511 888C504 888 498 888 492 888C478 888 465 877 457 872C436 860 434 835 472 835C484 836 497 837 511 837C580 837 631 819 664 785C697 751 713 706 713 648C713 619 706 592 691 568C676 544 655 525 627 512C600 498 567 491 528 491C494 491 460 499 426 514C392 529 365 551 344 579C326 601 316 625 312 653C308 657 304 660 301 652C295 637 294 607 305 584C316 559 325 541 354 510Z"/>
    <clipPath id="_clip1">
        <path d="M507 99L493 125C467 158 438 195 404 239C370 282 339 327 311 372C278 426 252 479 234 529C214 580 205 633 205 692C205 740 217 784 240 820C266 858 301 887 347 907C392 928 447 939 511 939C581 939 640 927 685 902C730 878 764 844 786 800C808 758 819 708 819 654C819 606 807 562 781 527C756 491 721 462 679 442C637 424 588 413 536 413C491 413 448 421 411 435C373 452 343 473 319 501C327 485 339 464 354 436C370 409 390 379 412 345C436 311 461 275 491 239C520 204 551 168 584 135C587 132 591 127 596 122C599 118 600 114 600 109C600 102 596 98 587 94C578 91 570 88 560 87C551 85 545 84 543 84C536 84 528 86 521 88C516 91 511 94 507 99ZM748 656C748 725 730 778 691 818C652 858 592 879 511 879C433 879 374 861 334 827C296 793 276 747 276 689C276 646 288 608 314 575C339 542 371 516 411 499C451 481 491 472 531 472C577 472 616 480 647 496C680 512 705 534 723 562C740 591 748 622 748 656Z"/>
    </clipPath>
    <g clip-path="url(#_clip1)">
        <path d="M585 112L479 222L387 361L311 499L251 624L220 721L266 818L357 887L479 914L600 887L707 832L768 721L768 624L707 513L600 444L479 431L357 458L296 499" style="fill-rule:nonzero;"/>
    </g>
</svg>
