<?xml version="1.0" encoding="UTF-8" standalone="no"?>
<!DOCTYPE svg PUBLIC "-//W3C//DTD SVG 1.1//EN" "http://www.w3.org/Graphics/SVG/1.1/DTD/svg11.dtd">
<svg width="100%" height="100%" viewBox="0 0 1024 1024" version="1.1" xmlns="http://www.w3.org/2000/svg" xmlns:xlink="http://www.w3.org/1999/xlink" xml:space="preserve" xmlns:serif="http://www.serif.com/" style="fill-rule:evenodd;clip-rule:evenodd;stroke-linejoin:round;stroke-miterlimit:2;">
    <path id="z65301d1" d="M706 170L704 170C694 171 682 172 670 173C657 175 644 176 630 177L398 193C390 194 383 194 376 192C367 190 379 246 391 246C392 246 639 230 639 230C656 229 673 228 688 228C703 228 716 228 726 227C735 227 739 223 739 213C739 205 736 195 728 185C721 175 714 170 706 170Z" style="fill-rule:nonzero;"/>
    <path id="z65301d2" d="M391 246C394 229 410 197 398 193C391 191 383 187 376 185C367 183 360 181 354 181C344 181 339 185 339 192L339 212C339 220 338 228 337 236L296 478L284 513C283 515 283 517 283 521C283 534 287 545 297 553C306 563 315 567 323 567C327 567 330 566 332 563C348 546 364 532 379 520C394 508 413 499 436 493C458 487 489 484 527 484C581 484 625 498 659 526C694 554 712 595 712 648C712 703 694 747 657 781C620 816 564 833 488 833C447 833 411 825 380 810C350 795 323 770 297 734C291 727 286 723 281 723C274 723 267 728 261 738C256 748 253 758 253 768C253 779 256 787 261 792C297 827 332 851 366 866C401 881 441 888 488 888C553 888 606 877 647 856C689 834 720 806 740 770C761 734 771 693 771 647C771 599 760 560 738 528C715 497 686 473 651 457C615 440 576 432 536 432C491 432 454 436 426 445C398 453 372 467 348 487C348 487 383 295 391 246Z" style="fill-rule:nonzero;"/>
    <clipPath id="_clip1">
        <path d="M740 94L738 94C726 95 712 96 698 98C683 100 667 101 651 102L378 121C370 118 360 114 352 112C341 109 333 107 326 107C314 107 308 112 308 120L308 144C308 153 307 162 306 172L258 456L244 498C243 500 243 502 243 507C243 522 247 535 259 545C270 556 280 561 290 561C294 561 298 560 300 556C319 536 338 520 356 506C373 492 396 481 423 474C448 467 485 464 530 464C593 464 645 480 685 513C726 546 747 594 747 656C747 721 726 773 683 813C639 854 573 874 484 874C436 874 393 865 357 847C321 829 290 800 259 758C252 749 246 745 240 745C232 745 224 751 217 762C211 774 207 786 207 798C207 811 211 820 217 826C259 867 300 895 340 913C381 931 428 939 484 939C560 939 623 926 671 901C720 875 757 842 780 800C805 758 817 709 817 655C817 599 804 553 778 515C751 479 717 451 676 432C633 412 587 402 540 402C487 402 444 407 411 418C378 427 347 444 319 467L370 184L661 165C681 164 701 162 719 162C737 162 752 162 764 161C774 161 779 156 779 145C779 135 776 124 766 112C758 100 750 94 740 94Z"/>
    </clipPath>
    <g clip-path="url(#_clip1)">
        <path d="M754 139L340 139" style="fill-rule:nonzero;"/>
    </g>
    <clipPath id="_clip2">
        <path d="M740 94L738 94C726 95 712 96 698 98C683 100 667 101 651 102L378 121C370 118 360 114 352 112C341 109 333 107 326 107C314 107 308 112 308 120L308 144C308 153 307 162 306 172L258 456L244 498C243 500 243 502 243 507C243 522 247 535 259 545C270 556 280 561 290 561C294 561 298 560 300 556C319 536 338 520 356 506C373 492 396 481 423 474C448 467 485 464 530 464C593 464 645 480 685 513C726 546 747 594 747 656C747 721 726 773 683 813C639 854 573 874 484 874C436 874 393 865 357 847C321 829 290 800 259 758C252 749 246 745 240 745C232 745 224 751 217 762C211 774 207 786 207 798C207 811 211 820 217 826C259 867 300 895 340 913C381 931 428 939 484 939C560 939 623 926 671 901C720 875 757 842 780 800C805 758 817 709 817 655C817 599 804 553 778 515C751 479 717 451 676 432C633 412 587 402 540 402C487 402 444 407 411 418C378 427 347 444 319 467L370 184L661 165C681 164 701 162 719 162C737 162 752 162 764 161C774 161 779 156 779 145C779 135 776 124 766 112C758 100 750 94 740 94Z"/>
    </clipPath>
    <g clip-path="url(#_clip2)">
        <path d="M340 139L310 361L340 472L479 444L585 458L677 499L738 582L738 707L677 804L570 873L433 887L310 845" style="fill-rule:nonzero;"/>
    </g>
</svg>
